<svg width="51" height="12" viewBox="0 0 51 12" fill="none" xmlns="http://www.w3.org/2000/svg">
<path d="M24.0862 0.841797L20.9063 8.10295L17.5762 0.841797H13.2946V10.882L8.88795 0.841797H5.10712L0.5 11.5082L3.30427 11.5191L4.18082 9.22957H9.63895L10.6407 11.5191H15.8987V3.17033L19.6044 11.5082C19.6044 11.5082 21.8578 11.5331 22.0329 11.5082C22.2082 11.483 25.6885 3.24546 25.6885 3.24546V11.5082H28.2175V0.841815H24.0862V0.841797ZM5.20521 6.96992L6.95573 2.80029L8.70625 6.96992H5.20521Z" fill="#128CF9"/>
<path d="M50.5 0.841797H47.4384L44.1813 4.37117L41.0329 0.841797H30.5887V11.5191H40.9025L44.1378 8.06243L47.3079 11.5191H50.4128L45.788 6.18047L50.5 0.841797ZM39.4696 9.40867H33.1509V7.23735C33.1509 7.23735 38.6877 7.23735 38.8181 7.23735C38.9483 7.23735 38.8181 5.02256 38.8181 5.02256H33.1509V3.02513H39.5997L42.5309 6.21698L39.4696 9.40867Z" fill="#128CF9"/>
</svg>
