<svg width="43" height="27" viewBox="0 0 43 27" fill="none" xmlns="http://www.w3.org/2000/svg">
<g clip-path="url(#clip0)">
<path fill-rule="evenodd" clip-rule="evenodd" d="M15.5997 23.5119H26.7926V3.55566H15.5997V23.5119Z" fill="#FF5F00"/>
<path fill-rule="evenodd" clip-rule="evenodd" d="M16.3104 13.5335C16.3104 9.48484 18.221 5.87899 21.1962 3.55535C19.0201 1.85572 16.2749 0.841797 13.2908 0.841797C6.22658 0.841797 0.500122 6.52415 0.500122 13.5335C0.500122 20.5428 6.22658 26.2252 13.2908 26.2252C16.2749 26.2252 19.0201 25.2112 21.1962 23.5116C18.221 21.1876 16.3104 17.5821 16.3104 13.5335Z" fill="#EB001B"/>
<path fill-rule="evenodd" clip-rule="evenodd" d="M41.8922 13.5335C41.8922 20.5428 36.1654 26.2252 29.1015 26.2252C26.1175 26.2252 23.3718 25.2112 21.1962 23.5116C24.1713 21.188 26.0819 17.5821 26.0819 13.5335C26.0819 9.48519 24.1713 5.87934 21.1962 3.55535C23.3718 1.85572 26.1175 0.841797 29.1015 0.841797C36.1654 0.841797 41.8922 6.52415 41.8922 13.5335Z" fill="#F79E1B"/>
</g>
<defs>
<clipPath id="clip0">
<rect width="41.82" height="25.42" fill="white" transform="translate(0.5 0.841797)"/>
</clipPath>
</defs>
</svg>
