<svg width="51" height="18" viewBox="0 0 51 18" fill="none" xmlns="http://www.w3.org/2000/svg">
<path d="M22.1755 16.7925H18.0956L20.6455 1.12181H24.7258L22.1755 16.7925ZM14.6633 1.12181L10.7737 11.9002L10.3135 9.57922L10.3139 9.58006L8.94106 2.53278C8.94106 2.53278 8.77507 1.12181 7.0057 1.12181H0.575453L0.5 1.38715C0.5 1.38715 2.46638 1.79627 4.76769 3.17832L8.31229 16.7929H12.5632L19.0542 1.12181H14.6633ZM46.7538 16.7925H50.5L47.2337 1.12139H43.9541C42.4396 1.12139 42.0707 2.28923 42.0707 2.28923L35.9858 16.7925H40.2388L41.0894 14.4648H46.2759L46.7538 16.7925ZM42.2643 11.2492L44.408 5.38489L45.614 11.2492H42.2643ZM36.3048 4.89025L36.8871 1.52506C36.8871 1.52506 35.0905 0.841797 33.2176 0.841797C31.1929 0.841797 26.3849 1.72669 26.3849 6.02959C26.3849 10.078 32.0279 10.1284 32.0279 12.2549C32.0279 14.3814 26.9663 14.0003 25.2959 12.6594L24.6893 16.178C24.6893 16.178 26.5111 17.0629 29.2944 17.0629C32.0786 17.0629 36.2788 15.6213 36.2788 11.6978C36.2788 7.62332 30.5851 7.24396 30.5851 5.4725C30.5855 3.70062 34.5589 3.92823 36.3048 4.89025Z" fill="#2566AF"/>
<path d="M10.3139 9.57934L8.94106 2.53206C8.94106 2.53206 8.77507 1.12109 7.0057 1.12109H0.575453L0.5 1.38644C0.5 1.38644 3.59063 2.02694 6.55508 4.42676C9.38959 6.72052 10.3139 9.57934 10.3139 9.57934Z" fill="#E6A540"/>
</svg>
