<svg width="90" height="100" fill="none" xmlns="http://www.w3.org/2000/svg"><g clip-path="url(#clip0)"><path d="M28.932 96.41c-8.051 2.676-15.448 3.851-20.946 3.525h-.13c-1.572-.066-2.619-.066-3.47-.13-.916-.066-1.702-.131-2.683-.458-.328-.065-.524-.326-.655-.587-.262-.849-.458-2.546-.72-4.504-.196-1.893-.393-3.982-.393-5.353 0-.522.393-.913.917-.913 9.949-3.134 22.45-6.724 32.989-14.818 9.49-7.31 17.28-18.276 20.16-36.161a3.965 3.965 0 00-.458-.392c-.982-.914-3.142-2.546-5.368-4.308a403.533 403.533 0 00-6.218-4.83c-.065-.066-.065-.131-.13-.131l-.132-.13c0-.066 0-.131-.065-.131 0-.066-.066-.13-.066-.196v-.392c0-.065.066-.13.066-.196 0-.065.065-.065.065-.13.066-.065.131-.065.131-.13l.131-.131c.197-.065.393-.196.59-.261 5.497-3.068 10.8-6.528 15.643-10.313 4.123-3.199 7.92-6.528 11.193-9.987l.327-.196C73.048 3.72 76.386 2.285 79.724.914c.262-.196.59-.457.851-.718a.922.922 0 01.917-.13.94.94 0 01.589.717c1.505 12.925 6.676 31.92 7.396 47.324a.9.9 0 01.197.261c.196.457.065.98-.393 1.24a92.06 92.06 0 01-7.79 3.525c-.196.066-.457.066-.72 0-1.57-.718-2.945-1.632-4.254-2.48-4.385 14.099-13.156 24.87-23.302 32.702-7.592 6.07-16.232 10.379-24.283 13.055zm23.432-14.49C62.51 74.085 71.215 63.315 75.34 49.216c0-.13 0-.261.13-.392a45.98 45.98 0 001.375-5.94c.066-.261.262-.522.524-.653.262-.13.59-.13.85 0 3.863 1.959 6.285 3.134 9.688 4.896-.85-14.36-5.433-31.788-7.134-44.517a328.63 328.63 0 01-7.855 6.266C66.7 13.707 59.303 18.93 51.972 22.911c2.487 2.024 4.909 3.851 6.872 5.418a89.798 89.798 0 012.88 2.285c.786.652 1.375 1.174 1.768 1.697.13.13.196.326.327.522.065.196.196.392.13.718-3.01 20.822-13.155 34.856-24.545 43.668-11.258 8.682-23.76 12.402-31.876 12.729 0 .065-.065.196-.065.26-.197.915-.197 2.742 0 4.374.13.849.261 1.632.392 2.285.131.587.393 1.044.458 1.24 5.171.261 12.371-.783 20.095-3.394 7.855-2.611 16.298-6.854 23.956-12.794zM81.1 51.043a14.614 14.614 0 002.225-4.242c-.654-.327-1.374-.718-2.094-1.045-.786 1.371-1.375 2.807-1.833 4.308a8.844 8.844 0 001.702.98zM50.27 23.955a496.729 496.729 0 00-5.956 2.937c.851.653 1.833 1.436 2.815 2.22a356.823 356.823 0 003.142-5.157zm.917 7.571c0 .261-.065.457-.13.653l.981.784a17.353 17.353 0 003.797-4.635c-.59-.457-1.179-.914-1.833-1.436a41.653 41.653 0 01-2.815 4.634zm7.462 15.862a78.672 78.672 0 001.767-5.94c-1.047 1.175-2.29 2.285-3.338 3.394-1.178 1.24-2.356 2.415-3.338 3.786a7.139 7.139 0 01-.655.718c.066.261-.065.523-.261.588l-.131.065c-.459 1.37-.982 2.611-1.506 3.851 2.422-2.154 4.975-4.308 7.462-6.462zm-8.444 8.42c-.85 1.828-1.832 3.525-2.814 5.157 2.487-1.697 4.974-3.394 7.527-4.96a83.195 83.195 0 003.142-6.855c-2.684 2.22-5.236 4.44-7.855 6.658zm6.284-11.553c1.375-1.436 2.88-2.807 4.058-4.308.066-.13.197-.13.328-.196.327-1.501.654-3.068.916-4.635a76.488 76.488 0 01-6.873 8.356c-.13.13-.262.13-.393.13-.327 1.37-.72 2.676-1.112 3.982a50.158 50.158 0 013.076-3.33zm4.058-8.943c-1.57.653-3.142 1.306-4.778 2.024-.262 1.697-.59 3.329-.916 4.96 2.029-2.219 3.992-4.569 5.694-6.984zm-4.909.13c1.964-.848 3.927-1.631 5.891-2.48-.262-.26-.654-.587-1.047-.913-.328-.261-.786-.653-1.178-.98-1.244 1.437-2.422 2.873-3.666 4.374zm-17.28 36.359c0 .065 0 .065-.065.13l-.131.13a53.764 53.764 0 01-3.142 2.546 9.272 9.272 0 01-1.31.914c3.339-1.501 6.939-3.002 9.884-4.438 1.833-1.828 3.666-3.786 5.368-5.94-3.404 2.154-6.742 4.308-10.146 6.462l-.196.065c0 .065-.262.13-.262.13zM6.284 88.25h.393c.131-.066.262-.066.458-.066v.131-.13c5.76-.131 14.204-2.22 22.778-6.854-4.843 1.436-10.603 2.937-15.054 4.047-2.945 1.044-5.826 1.958-8.575 2.872zm-4.45 1.631c0 .392.065.85.065 1.306.458-.392.982-.783 1.44-1.175-.524-.065-.982-.13-1.506-.13zM3.6 94.256c-.393.326-.786.653-1.178 1.11 0 .065-.066.065-.131.065.13.848.196 1.566.327 2.089.982-.718 1.964-1.502 2.945-2.22-.065-.652-.196-1.37-.196-2.023-.59.196-1.178.522-1.767.979zm.916 3.786c.458 0 1.047.065 1.702.065a5.051 5.051 0 01-.327-1.175c-.066-.196-.066-.457-.131-.653-.72.588-1.506 1.11-2.226 1.698.328 0 .655 0 .982.065zM2.161 94.06c0 .065 0 .196.065.261.262-.26.524-.587.851-.783a11.48 11.48 0 012.291-1.306v-.13c0-.783.065-1.502.13-2.089h-.785c-.785.653-1.636 1.306-2.421 1.958-.066.066-.197.066-.328.066.066.652.131 1.37.197 2.023zm18.72-11.227c4.385-1.175 8.967-2.48 12.436-3.655 1.636-1.045 3.273-2.154 4.844-3.395 1.112-.848 2.16-1.762 3.273-2.676-3.797 1.763-8.182 3.525-11.52 5.222-.131.065-.262.065-.328 0a84.968 84.968 0 01-8.705 4.504zM40.975 69.19c3.142-2.024 6.35-4.047 9.491-6.07a50.973 50.973 0 003.47-5.419c-2.75 1.698-5.368 3.525-7.986 5.418a50.21 50.21 0 01-4.975 6.07zm13.746-34.008l3.927-4.7c-.59-.457-1.31-.98-2.03-1.567-1.046 1.698-2.29 3.264-3.795 4.635.327.261.589.522.916.718.327.326.655.653.982.914zm-4.582-3.656a66.321 66.321 0 003.142-5.09c-.72-.588-1.506-1.176-2.291-1.829a219.478 219.478 0 01-3.207 5.092c.85.587 1.636 1.24 2.356 1.827zM70.823 6.723c-2.226 2.35-4.713 4.635-7.397 6.854a228.756 228.756 0 008.313-6.136c1.113-.848 2.16-1.697 3.207-2.48l-4.123 1.762zM87.055 48.76c-1.047-.522-2.029-1.045-2.945-1.502-.458 1.306-1.047 2.48-1.767 3.656a75.424 75.424 0 004.712-2.154zm-8.509.848c.458-1.436 1.047-2.872 1.833-4.177-.655-.326-1.31-.653-2.03-.98-.326 1.502-.654 3.003-1.046 4.44.458.195.85.456 1.243.717z" fill="#0093F5"/></g><defs><clipPath id="clip0"><path fill="#fff" d="M0 0h90v100H0z"/></clipPath></defs></svg>