<svg width="814" height="14" fill="none" xmlns="http://www.w3.org/2000/svg"><mask id="path-1-inside-1" fill="#fff"><path fill-rule="evenodd" clip-rule="evenodd" d="M814 6.442V0H0v6.442c1.866 2.773 5.952 3.71 8.874 1.24l4.541-3.84a6 6 0 017.74-.007l9.976 8.404a6 6 0 007.731 0l9.983-8.41a6 6 0 017.732 0l9.983 8.41a6 6 0 007.731 0l9.983-8.41a6 6 0 017.732 0l9.983 8.41a6 6 0 007.731 0l9.983-8.41a6.001 6.001 0 017.732 0l9.983 8.41a6 6 0 007.731 0l9.983-8.41a6 6 0 017.731 0l9.984 8.41a6 6 0 007.731 0l9.983-8.41a6 6 0 017.731 0l9.983 8.41a6.001 6.001 0 007.732 0l9.983-8.41a6 6 0 017.731 0l9.983 8.41a6.001 6.001 0 007.732 0l9.983-8.41a6 6 0 017.731 0l9.983 8.41a6.001 6.001 0 007.732 0l9.983-8.41a6 6 0 017.731 0l9.983 8.41a6 6 0 007.731 0l9.984-8.41a6 6 0 017.731 0l9.983 8.41a6 6 0 007.731 0l9.983-8.41a6.001 6.001 0 017.732 0l9.983 8.41a6 6 0 007.731 0l9.983-8.41a6.001 6.001 0 017.732 0l9.983 8.41a6 6 0 007.731 0l9.983-8.41a6 6 0 017.731 0l9.984 8.41a6 6 0 007.731 0l9.983-8.41a6 6 0 017.731 0l9.984 8.41a6 6 0 007.731 0l9.983-8.41a6 6 0 017.731 0l9.983 8.41a6.001 6.001 0 007.732 0l9.983-8.41a6 6 0 017.731 0l9.983 8.41a6.001 6.001 0 007.732 0l9.983-8.41a6 6 0 017.731 0l9.983 8.41a6.001 6.001 0 007.732 0l9.983-8.41a6 6 0 017.731 0l9.983 8.41a6 6 0 007.731 0l9.984-8.41a6 6 0 017.731 0l9.983 8.41a6 6 0 007.731 0l9.983-8.41a6.001 6.001 0 017.732 0l9.983 8.41a6 6 0 007.731 0l9.983-8.41a6.001 6.001 0 017.732 0l9.983 8.41a6 6 0 007.731 0l9.983-8.41a6 6 0 017.731 0l9.984 8.41a6 6 0 007.731 0l9.976-8.404a6.001 6.001 0 017.74.007l4.541 3.84c2.922 2.47 7.009 1.533 8.874-1.24z"/></mask><path fill-rule="evenodd" clip-rule="evenodd" d="M814 6.442V0H0v6.442c1.866 2.773 5.952 3.71 8.874 1.24l4.541-3.84a6 6 0 017.74-.007l9.976 8.404a6 6 0 007.731 0l9.983-8.41a6 6 0 017.732 0l9.983 8.41a6 6 0 007.731 0l9.983-8.41a6 6 0 017.732 0l9.983 8.41a6 6 0 007.731 0l9.983-8.41a6.001 6.001 0 017.732 0l9.983 8.41a6 6 0 007.731 0l9.983-8.41a6 6 0 017.731 0l9.984 8.41a6 6 0 007.731 0l9.983-8.41a6 6 0 017.731 0l9.983 8.41a6.001 6.001 0 007.732 0l9.983-8.41a6 6 0 017.731 0l9.983 8.41a6.001 6.001 0 007.732 0l9.983-8.41a6 6 0 017.731 0l9.983 8.41a6.001 6.001 0 007.732 0l9.983-8.41a6 6 0 017.731 0l9.983 8.41a6 6 0 007.731 0l9.984-8.41a6 6 0 017.731 0l9.983 8.41a6 6 0 007.731 0l9.983-8.41a6.001 6.001 0 017.732 0l9.983 8.41a6 6 0 007.731 0l9.983-8.41a6.001 6.001 0 017.732 0l9.983 8.41a6 6 0 007.731 0l9.983-8.41a6 6 0 017.731 0l9.984 8.41a6 6 0 007.731 0l9.983-8.41a6 6 0 017.731 0l9.984 8.41a6 6 0 007.731 0l9.983-8.41a6 6 0 017.731 0l9.983 8.41a6.001 6.001 0 007.732 0l9.983-8.41a6 6 0 017.731 0l9.983 8.41a6.001 6.001 0 007.732 0l9.983-8.41a6 6 0 017.731 0l9.983 8.41a6.001 6.001 0 007.732 0l9.983-8.41a6 6 0 017.731 0l9.983 8.41a6 6 0 007.731 0l9.984-8.41a6 6 0 017.731 0l9.983 8.41a6 6 0 007.731 0l9.983-8.41a6.001 6.001 0 017.732 0l9.983 8.41a6 6 0 007.731 0l9.983-8.41a6.001 6.001 0 017.732 0l9.983 8.41a6 6 0 007.731 0l9.983-8.41a6 6 0 017.731 0l9.984 8.41a6 6 0 007.731 0l9.976-8.404a6.001 6.001 0 017.74.007l4.541 3.84c2.922 2.47 7.009 1.533 8.874-1.24z" fill="#fff"/><path d="M814 0h1v-1h-1v1zm0 6.442l.83.558.17-.253v-.305h-1zM0 0v-1h-1v1h1zm0 6.442h-1v.305L-.83 7 0 6.442zm8.874 1.24l.645.763-.645-.764zm4.541-3.84l.646.764-.646-.764zm7.74-.007l.644-.765-.644.765zm9.976 8.404l.644-.765-.644.765zm7.731 0l.645.765-.645-.765zm9.983-8.41l-.644-.764.645.764zm7.732 0l.644-.765-.644.765zm9.983 8.41l-.644.765.644-.765zm7.731 0l.644.765-.644-.765zm9.983-8.41l.645.765-.645-.765zm7.732 0l-.645.765.645-.765zm9.983 8.41l-.644.765.644-.765zm7.731 0l-.644-.765.644.765zm9.983-8.41l.645.765-.645-.765zm7.732 0l-.645.765.645-.765zm9.983 8.41l.644-.765-.644.765zm7.731 0l.644.765-.644-.765zm9.983-8.41l-.644-.764.644.764zm7.731 0l.645-.765-.645.765zm9.984 8.41l-.645.765.645-.765zm7.731 0l.644.765-.644-.765zm9.983-8.41l-.644-.764.644.764zm7.731 0l-.644.765.644-.765zm9.983 8.41l.645-.765-.645.765zm7.732 0l.644.765-.644-.765zm9.983-8.41l-.644-.764.644.764zm7.731 0l.644-.764-.644.764zm9.983 8.41l-.644.765.644-.765zm7.732 0l.644.765-.644-.765zm9.983-8.41l.644.765-.644-.765zm7.731 0l-.644.765.644-.765zm9.983 8.41l.645-.765-.645.765zm7.732 0l-.645-.765.645.765zm9.983-8.41l.644.765-.644-.765zm7.731 0l.644-.764-.644.764zm9.983 8.41l.644-.765-.644.765zm7.731 0l.645.765-.645-.765zm9.984-8.41l.644.765-.644-.765zm7.731 0l.644-.765-.644.765zm9.983 8.41l-.644.765.644-.765zm7.731 0l.645.765-.645-.765zm9.983-8.41l-.644-.765.644.765zm7.732 0l-.645.765.645-.765zm9.983 8.41l-.644.765.644-.765zm7.731 0l-.644-.765.644.765zm9.983-8.41l.645.765-.645-.765zm7.732 0l-.645.765.645-.765zm9.983 8.41l.644-.765-.644.765zm7.731 0l-.644-.765.644.765zm9.983-8.41l.645.765-.645-.765zm7.731 0l-.644.765.644-.765zm9.984 8.41l.644-.765-.644.765zm7.731 0l.644.765-.644-.765zm9.983-8.41l.644.765-.644-.765zm7.731 0l.645-.764-.645.764zm9.984 8.41l-.645.765.645-.765zm7.731 0l.644.765-.644-.765zm9.983-8.41l-.644-.765.644.765zm7.731 0l.645-.765-.645.765zm9.983 8.41l.645-.765-.645.765zm7.732 0l-.645-.765.645.765zm9.983-8.41l-.644-.765.644.765zm7.731 0l.644-.765-.644.765zm9.983 8.41l-.644.765.644-.765zm7.732 0l.644.765-.644-.765zm9.983-8.41l-.644-.765.644.765zm7.731 0l.644-.765-.644.765zm9.983 8.41l-.644.765.644-.765zm7.732 0l.644.765-.644-.765zm9.983-8.41l-.645-.764.645.764zm7.731 0l.644-.764-.644.764zm9.983 8.41l-.644.765.644-.765zm7.731 0l.645.765-.645-.765zm9.984-8.41l-.645-.765.645.765zm7.731 0l.644-.764-.644.764zm9.983 8.41l-.644.765.644-.765zm7.731 0l.645.765-.645-.765zm9.983-8.41l-.644-.765.644.765zm7.732 0l.644-.764-.644.764zm9.983 8.41l-.644.765.644-.765zm7.731 0l.644.765-.644-.765zm9.983-8.41l-.644-.765.644.765zm7.732 0l.644-.765-.644.765zm9.983 8.41l.644-.765-.644.765zm7.731 0l-.644-.765.644.765zm9.983-8.41l.645.765-.645-.765zm7.731 0l-.644.765.644-.765zm9.984 8.41l.644-.765-.644.765zm7.731 0l-.644-.765.644.765zm9.976-8.404l-.644-.765.644.765zm7.74.007l-.646.764.646-.764zm4.541 3.84l.646-.764-.646.763zM813 0v6.442h2V0h-2zM0 1h814v-2H0v2zm1 5.442V0h-2v6.442h2zM-.83 7c2.167 3.22 6.93 4.336 10.35 1.445L8.227 6.918C5.803 8.968 2.394 8.21.83 5.884L-.83 7zM9.52 8.445l4.541-3.84-1.291-1.527-4.542 3.84 1.291 1.527zm4.541-3.84a5 5 0 016.45-.005l1.288-1.53a7 7 0 00-9.03.008l1.292 1.528zm6.45-.005l9.976 8.404 1.288-1.53L21.8 3.07 20.51 4.6zm9.976 8.404a7 7 0 009.02 0l-1.289-1.53a5 5 0 01-6.443 0l-1.288 1.53zm9.02 0l9.983-8.41-1.289-1.53-9.983 8.41 1.289 1.53zm9.983-8.41a5 5 0 016.442 0l1.289-1.53a7 7 0 00-9.02 0l1.289 1.53zm6.442 0l9.984 8.41 1.288-1.53-9.983-8.41-1.288 1.53zm9.984 8.41a7 7 0 009.02 0l-1.29-1.53a5 5 0 01-6.442 0l-1.288 1.53zm9.02 0l9.983-8.41-1.289-1.53-9.983 8.41 1.288 1.53zm9.983-8.41a5 5 0 016.442 0l1.289-1.53a7 7 0 00-9.02 0l1.289 1.53zm6.442 0l9.984 8.41 1.288-1.53-9.983-8.41-1.289 1.53zm9.984 8.41a6.999 6.999 0 009.019 0l-1.288-1.53a5 5 0 01-6.443 0l-1.288 1.53zm9.019 0l9.984-8.41-1.289-1.53-9.983 8.41 1.288 1.53zm9.984-8.41a4.999 4.999 0 016.442 0l1.289-1.53a7 7 0 00-9.02 0l1.289 1.53zm6.442 0l9.983 8.41 1.289-1.53-9.983-8.41-1.289 1.53zm9.983 8.41a7 7 0 009.02 0l-1.288-1.53a5 5 0 01-6.443 0l-1.289 1.53zm9.02 0l9.983-8.41-1.288-1.53-9.983 8.41 1.288 1.53zm9.983-8.41a5 5 0 016.443 0l1.289-1.53a7 7 0 00-9.02 0l1.288 1.53zm6.443 0l9.983 8.41 1.289-1.53-9.983-8.41-1.289 1.53zm9.983 8.41a7 7 0 009.02 0l-1.288-1.53a5 5 0 01-6.443 0l-1.289 1.53zm9.02 0l9.983-8.41-1.288-1.53-9.983 8.41 1.288 1.53zm9.983-8.41a5 5 0 016.443 0l1.289-1.53a7 7 0 00-9.02 0l1.288 1.53zm6.443 0l9.983 8.41 1.289-1.53-9.983-8.41-1.289 1.53zm9.983 8.41a7 7 0 009.02 0l-1.289-1.53a5 5 0 01-6.442 0l-1.289 1.53zm9.02 0l9.983-8.41-1.288-1.53-9.984 8.41 1.289 1.53zm9.983-8.41a5 5 0 016.443 0l1.288-1.53a6.999 6.999 0 00-9.019 0l1.288 1.53zm6.443 0l9.983 8.41 1.289-1.53-9.984-8.41-1.288 1.53zm9.983 8.41a7 7 0 009.02 0l-1.289-1.53a5 5 0 01-6.442 0l-1.289 1.53zm9.02 0l9.983-8.41-1.288-1.53-9.984 8.41 1.289 1.53zm9.983-8.41a5 5 0 016.443 0l1.288-1.53a6.999 6.999 0 00-9.019 0l1.288 1.53zm6.443 0l9.983 8.41 1.289-1.53-9.984-8.41-1.288 1.53zm9.983 8.41a7 7 0 009.02 0l-1.289-1.53a5 5 0 01-6.442 0l-1.289 1.53zm9.02 0l9.983-8.41-1.289-1.53-9.983 8.41 1.289 1.53zm9.983-8.41a5 5 0 016.443 0l1.288-1.53a7 7 0 00-9.02 0l1.289 1.53zm6.443 0l9.983 8.41 1.288-1.53-9.983-8.41-1.288 1.53zm9.983 8.41a7 7 0 009.02 0l-1.289-1.53a5 5 0 01-6.443 0l-1.288 1.53zm9.02 0l9.983-8.41-1.289-1.53-9.983 8.41 1.289 1.53zm9.983-8.41a5 5 0 016.443 0l1.288-1.53a7 7 0 00-9.02 0l1.289 1.53zm6.443 0l9.983 8.41 1.288-1.53-9.983-8.41-1.288 1.53zm9.983 8.41a7 7 0 009.02 0l-1.289-1.53a5 5 0 01-6.443 0l-1.288 1.53zm9.02 0l9.983-8.41-1.289-1.53-9.983 8.41 1.289 1.53zm9.983-8.41a4.999 4.999 0 016.442 0l1.289-1.53a7 7 0 00-9.02 0l1.289 1.53zm6.442 0l9.984 8.41 1.288-1.53-9.983-8.41-1.289 1.53zm9.984 8.41a6.999 6.999 0 009.019 0l-1.288-1.53a5 5 0 01-6.443 0l-1.288 1.53zm9.019 0l9.984-8.41-1.289-1.53-9.983 8.41 1.288 1.53zm9.984-8.41a4.999 4.999 0 016.442 0l1.289-1.53a7 7 0 00-9.02 0l1.289 1.53zm6.442 0l9.984 8.41 1.288-1.53-9.983-8.41-1.289 1.53zm9.984 8.41a6.999 6.999 0 009.019 0l-1.288-1.53a5 5 0 01-6.443 0l-1.288 1.53zm9.019 0l9.984-8.41-1.289-1.53-9.983 8.41 1.288 1.53zm9.984-8.41a4.999 4.999 0 016.442 0l1.289-1.53a7 7 0 00-9.02 0l1.289 1.53zm6.442 0l9.983 8.41 1.289-1.53-9.983-8.41-1.289 1.53zm9.983 8.41a7 7 0 009.02 0l-1.288-1.53a5 5 0 01-6.443 0l-1.289 1.53zm9.02 0l9.983-8.41-1.288-1.53-9.983 8.41 1.288 1.53zm9.983-8.41a5 5 0 016.443 0l1.289-1.53a7 7 0 00-9.02 0l1.288 1.53zm6.443 0l9.983 8.41 1.289-1.53-9.983-8.41-1.289 1.53zm9.983 8.41a7 7 0 009.02 0l-1.288-1.53a5 5 0 01-6.443 0l-1.289 1.53zm9.02 0l9.983-8.41-1.288-1.53-9.983 8.41 1.288 1.53zm9.983-8.41a5 5 0 016.443 0l1.289-1.53a7 7 0 00-9.02 0l1.288 1.53zm6.443 0l9.983 8.41 1.289-1.53-9.983-8.41-1.289 1.53zm9.983 8.41a7 7 0 009.02 0l-1.289-1.53a5 5 0 01-6.442 0l-1.289 1.53zm9.02 0l9.983-8.41-1.288-1.53-9.984 8.41 1.289 1.53zm9.983-8.41a5 5 0 016.443 0l1.288-1.53a6.999 6.999 0 00-9.019 0l1.288 1.53zm6.443 0l9.983 8.41 1.289-1.53-9.984-8.41-1.288 1.53zm9.983 8.41a7 7 0 009.02 0l-1.289-1.53a5 5 0 01-6.442 0l-1.289 1.53zm9.02 0l9.983-8.41-1.288-1.53-9.984 8.41 1.289 1.53zm9.983-8.41a5 5 0 016.443 0l1.288-1.53a6.999 6.999 0 00-9.019 0l1.288 1.53zm6.443 0l9.983 8.41 1.289-1.53-9.984-8.41-1.288 1.53zm9.983 8.41a7 7 0 009.02 0l-1.289-1.53a5 5 0 01-6.442 0l-1.289 1.53zm9.02 0l9.983-8.41-1.289-1.53-9.983 8.41 1.289 1.53zm9.983-8.41a5 5 0 016.443 0l1.288-1.53a7 7 0 00-9.02 0l1.289 1.53zm6.443 0l9.983 8.41 1.288-1.53-9.983-8.41-1.288 1.53zm9.983 8.41a7 7 0 009.02 0l-1.289-1.53a5 5 0 01-6.443 0l-1.288 1.53zm9.02 0l9.983-8.41-1.289-1.53-9.983 8.41 1.289 1.53zm9.983-8.41a5 5 0 016.443 0l1.288-1.53a7 7 0 00-9.02 0l1.289 1.53zm6.443 0l9.983 8.41 1.288-1.53-9.983-8.41-1.288 1.53zm9.983 8.41a7 7 0 009.02 0l-1.289-1.53a5 5 0 01-6.443 0l-1.288 1.53zm9.02 0l9.983-8.41-1.289-1.53-9.983 8.41 1.289 1.53zm9.983-8.41a4.999 4.999 0 016.442 0l1.289-1.53a7 7 0 00-9.02 0l1.289 1.53zm6.442 0l9.984 8.41 1.288-1.53-9.983-8.41-1.289 1.53zm9.984 8.41a6.999 6.999 0 009.019 0l-1.288-1.53a5 5 0 01-6.443 0l-1.288 1.53zm9.019 0l9.984-8.41-1.289-1.53-9.983 8.41 1.288 1.53zm9.984-8.41a4.999 4.999 0 016.442 0l1.289-1.53a7 7 0 00-9.02 0l1.289 1.53zm6.442 0l9.984 8.41 1.288-1.53-9.983-8.41-1.289 1.53zm9.984 8.41a6.999 6.999 0 009.019 0l-1.288-1.53a5 5 0 01-6.443 0l-1.288 1.53zm9.019 0l9.984-8.41-1.289-1.53-9.983 8.41 1.288 1.53zm9.984-8.41a5 5 0 016.442 0l1.289-1.53a7 7 0 00-9.02 0l1.289 1.53zm6.442 0l9.983 8.41 1.289-1.53-9.983-8.41-1.289 1.53zm9.983 8.41a7 7 0 009.02 0l-1.288-1.53a5 5 0 01-6.443 0l-1.289 1.53zm9.02 0L793.49 4.6l-1.289-1.53-9.976 8.404 1.288 1.53zM793.49 4.6a5 5 0 016.449.006l1.291-1.528a7 7 0 00-9.029-.008l1.289 1.53zm6.449.006l4.542 3.84 1.291-1.528-4.542-3.84-1.291 1.528zm4.542 3.84c3.419 2.89 8.182 1.774 10.349-1.446l-1.66-1.116c-1.564 2.326-4.973 3.084-7.398 1.034l-1.291 1.527z" fill="#D9D9D9" mask="url(#path-1-inside-1)"/><path fill="#fff" d="M1 0h812v1H1z"/></svg>