<svg viewBox="0 0 56 56" xmlns="http://www.w3.org/2000/svg" xmlns:xlink="http://www.w3.org/1999/xlink"><style>:root&gt;svg{display:none}:root&gt;svg:target{display:block}</style><svg viewBox="0 0 13 13" id="activate" xmlns="http://www.w3.org/2000/svg"><path fill-rule="evenodd" clip-rule="evenodd" d="M1.354 3.25h9.209a1.354 1.354 0 001.354-1.354v-.541A1.354 1.354 0 0010.563 0H1.354C.606 0 0 .607 0 1.355v.541C0 2.644.606 3.25 1.354 3.25zm.615-1.625a.604.604 0 111.208 0 .604.604 0 01-1.208 0zm2.697-.603a.604.604 0 100 1.207.604.604 0 000-1.207zM9.48 5.146a4.31 4.31 0 012.045.514.267.267 0 00.392-.238v-.275a1.354 1.354 0 00-1.354-1.355H1.354C.606 3.792 0 4.398 0 5.146v.542c0 .748.606 1.354 1.354 1.354h4.409a.265.265 0 00.216-.112 4.329 4.329 0 013.5-1.784zm-4.21.271a.604.604 0 11-1.208 0 .604.604 0 011.208 0zm-2.697.604a.604.604 0 100-1.208.604.604 0 000 1.208zm2.433 4.813H1.354A1.354 1.354 0 010 9.48v-.542c0-.748.606-1.354 1.354-1.354h3.824a.27.27 0 01.251.366 4.262 4.262 0 00-.162 2.538.273.273 0 01-.26.346zM2.341 8.651a.604.604 0 10.463 1.115.604.604 0 00-.463-1.115z"/><path fill-rule="evenodd" clip-rule="evenodd" d="M9.48 13a3.52 3.52 0 110-7.041 3.52 3.52 0 010 7.042zm-.509-2.906l-.704-.704a.406.406 0 00-.574.575l.813.812a.8.8 0 00.571.24h.06a.809.809 0 00.597-.325l1.573-2.098a.406.406 0 10-.65-.488l-1.48 1.973a.137.137 0 01-.207.015z"/></svg><svg viewBox="0 0 16 16" id="add" xmlns="http://www.w3.org/2000/svg"><path d="M8 2v12m6-6H2" stroke-width="2" stroke-linecap="round"/></svg><svg viewBox="0 0 16 17" id="add-circle" xmlns="http://www.w3.org/2000/svg"><g filter="url(#acfilter0_d)"><path fill-rule="evenodd" clip-rule="evenodd" d="M0 8a8 8 0 018-8 8.009 8.009 0 018 8A8 8 0 110 8zm7-4v3H4v2h3v3h2V9h3V7H9V4H7z"/></g><defs><filter id="acfilter0_d" x="0" y="0" filterUnits="userSpaceOnUse" color-interpolation-filters="sRGB"><feFlood flood-opacity="0" result="BackgroundImageFix"/><feColorMatrix in="SourceAlpha" values="0 0 0 0 0 0 0 0 0 0 0 0 0 0 0 0 0 0 127 0"/><feOffset dy="1"/><feColorMatrix values="0 0 0 0 0 0 0 0 0 0 0 0 0 0 0 0 0 0 0.15 0"/><feBlend in2="BackgroundImageFix" result="effect1_dropShadow"/><feBlend in="SourceGraphic" in2="effect1_dropShadow" result="shape"/></filter></defs></svg><svg viewBox="0 0 13 14" id="alert" xmlns="http://www.w3.org/2000/svg"><path fill-rule="evenodd" clip-rule="evenodd" d="M12.523 11.333L7.46 1.665a1.083 1.083 0 00-1.92 0L.478 11.333a1.083 1.083 0 00.96 1.586h10.126a1.083 1.083 0 00.96-1.586zm-6.565-6.27a.542.542 0 011.084 0v3.25a.542.542 0 01-1.084 0v-3.25zm.554 6.234h.015a.799.799 0 00.785-.83.827.827 0 00-.825-.795h-.015a.8.8 0 00-.785.829.828.828 0 00.825.796z"/></svg><svg viewBox="0 0 13 14" id="back" xmlns="http://www.w3.org/2000/svg"><g clip-path="url(#aeclip0)"><path d="M3.25 7l-.707-.707a1 1 0 000 1.414L3.25 7zM8.23.605L2.543 6.293l1.414 1.414L9.645 2.02 8.23.605zM2.543 7.707l5.687 5.688 1.415-1.415-5.688-5.687-1.414 1.414z"/></g><defs><clipPath id="aeclip0"><path transform="rotate(90 5.031 5.531)" d="M0 0h13v8.125H0z"/></clipPath></defs></svg><svg viewBox="0 0 21 20" id="back-arrow" xmlns="http://www.w3.org/2000/svg"><path d="M8.207 15.543a1 1 0 11-1.414 1.414l1.414-1.414zM1.25 10l-.707.707a1 1 0 010-1.414L1.25 10zm5.543-6.957a1 1 0 011.414 1.414L6.793 3.043zM19.375 9a1 1 0 110 2V9zM6.793 16.957l-6.25-6.25 1.414-1.414 6.25 6.25-1.414 1.414zM.543 9.293l6.25-6.25 1.414 1.414-6.25 6.25L.543 9.293zM1.25 9h18.125v2H1.25V9z"/></svg><svg viewBox="0 0 13 13" id="basket" xmlns="http://www.w3.org/2000/svg"><path fill-rule="evenodd" clip-rule="evenodd" d="M10.563 4.063H2.438a.27.27 0 00-.271.27v7.584c0 .598.485 1.083 1.083 1.083h6.5c.598 0 1.083-.485 1.083-1.083V4.333a.27.27 0 00-.27-.27zm-5.01 7.041a.406.406 0 01-.813 0V6.23a.406.406 0 01.812 0v4.875zm2.301.406a.406.406 0 00.407-.406V6.23a.406.406 0 00-.813 0v4.875c0 .225.182.406.406.406zm1.49-9.343h2.573a.542.542 0 110 1.083H1.083a.542.542 0 010-1.083h2.573a.135.135 0 00.136-.136v-.677C3.792.606 4.398 0 5.146 0h2.708c.748 0 1.354.606 1.354 1.354v.677c0 .075.061.136.136.136zm-4.469-.813v.677c0 .075.06.136.135.136h2.98a.136.136 0 00.135-.136v-.677a.27.27 0 00-.27-.27h-2.71a.27.27 0 00-.27.27z"/></svg><svg viewBox="0 0 22 22" id="block" xmlns="http://www.w3.org/2000/svg"><path d="M9.295 0H.605A.61.61 0 000 .605V8.69c0 .385.275.66.605.66H9.24a.61.61 0 00.605-.605V.605C9.9.275 9.625 0 9.295 0zm12.1 0h-8.69a.61.61 0 00-.605.605V8.69c0 .33.275.605.605.605h8.635a.61.61 0 00.605-.605V.605C22 .275 21.725 0 21.395 0zm-12.1 11.55H.605a.61.61 0 00-.605.605v8.085c0 .385.275.66.605.66H9.24a.61.61 0 00.605-.605v-8.14c.055-.33-.22-.605-.55-.605zm12.1 0h-8.69a.61.61 0 00-.605.605v8.085c0 .33.275.605.605.605h8.635a.61.61 0 00.605-.605v-8.085c.055-.33-.22-.605-.55-.605z"/></svg><svg viewBox="0 0 26 26" id="close" xmlns="http://www.w3.org/2000/svg"><path d="M7.697 7.697l10.606 10.606m0-10.606L7.697 18.303" stroke-width="2" stroke-linecap="round"/></svg><svg viewBox="0 0 12 13" id="collapse-arrow" xmlns="http://www.w3.org/2000/svg"><path d="M1.28 3.324a.75.75 0 00-1.06 1.06l1.06-1.06zM6 9.104l-.53.53a.75.75 0 001.06 0L6 9.104zm5.78-4.72a.75.75 0 00-1.06-1.06l1.06 1.06zm-11.56 0l5.25 5.25 1.06-1.06-5.25-5.25-1.06 1.06zm6.31 5.25l5.25-5.25-1.06-1.06-5.25 5.25 1.06 1.06z"/></svg><svg viewBox="0 0 16 16" id="controls" xmlns="http://www.w3.org/2000/svg"><path d="M8 4a2 2 0 100-4 2 2 0 000 4zm0 6a2 2 0 100-4 2 2 0 000 4zm0 6a2 2 0 100-4 2 2 0 000 4z"/></svg><svg viewBox="0 0 14 13" id="copy" xmlns="http://www.w3.org/2000/svg"><path fill-rule="evenodd" clip-rule="evenodd" d="M11.72 2.746l-1.55-1.642a.986.986 0 00-.704-.291H5.14a.994.994 0 00-.993.992v.903h-.903a.994.994 0 00-.993.993v7.764a.994.994 0 00.993.993h5.869a.994.994 0 00.993-.992v-.903h.903A.994.994 0 0012 9.57V3.44a.975.975 0 00-.28-.694zm-2.969 8.629H3.606a.27.27 0 01-.271-.27V4.062a.27.27 0 01.27-.271h.407c.075 0 .135.06.135.135V9.57c0 .548.445.992.993.992h3.747c.075 0 .135.061.135.136v.406a.27.27 0 01-.27.271zm-3.25-1.896h5.146a.27.27 0 00.271-.27V3.58a.27.27 0 00-.074-.185L9.509 1.98a.27.27 0 00-.197-.085h-3.81a.27.27 0 00-.271.27v7.042c0 .15.12.271.27.271z"/></svg><svg viewBox="0 0 16 17" id="dashboard" xmlns="http://www.w3.org/2000/svg"><path fill-rule="evenodd" clip-rule="evenodd" d="M14.1 12.658A11.193 11.193 0 008 10.833a11.194 11.194 0 00-6.101 1.825.333.333 0 01-.456-.08A7.996 7.996 0 018.33.007 8.074 8.074 0 0116 7.918a7.953 7.953 0 01-1.443 4.66.333.333 0 01-.455.08zM8 1.834a.5.5 0 00-.5.5v1a.5.5 0 001 0v-1a.5.5 0 00-.5-.5zM3.333 8.5h-1a.5.5 0 110-1h1a.5.5 0 110 1zM4.7 5.2a.499.499 0 00.5-.5.5.5 0 00-.147-.354l-.706-.706a.5.5 0 00-.708.707l.708.707c.093.094.22.146.353.146zm3.246 4.43a1.577 1.577 0 01-1.125-2.7c.504-.504 4.695-3.087 5.17-3.38a.333.333 0 01.46.458c-.294.476-2.877 4.667-3.381 5.17-.3.294-.704.457-1.124.453zM12.166 8a.5.5 0 00.5.5h1a.5.5 0 000-1h-1a.5.5 0 00-.5.5z"/><path d="M8 11.834a10.034 10.034 0 00-5.354 1.533.339.339 0 00-.05.53 7.983 7.983 0 0010.808 0 .338.338 0 00-.05-.529A10.03 10.03 0 008 11.834z"/></svg><svg viewBox="0 0 16 12" id="envelope-letter" xmlns="http://www.w3.org/2000/svg"><path fill-rule="evenodd" clip-rule="evenodd" d="M1.333.667h13.334C15.403.667 16 1.264 16 2v8c0 .736-.597 1.333-1.333 1.333H1.333A1.333 1.333 0 010 10V2C0 1.264.597.667 1.333.667zm12.667 5V3a.333.333 0 00-.333-.333H11a.333.333 0 00-.333.333v2.667c0 .184.149.333.333.333h2.667c.184 0 .333-.15.333-.333zM3 7.163h5.333a.503.503 0 110 1.007H3a.503.503 0 010-1.007zM3 4.83a.503.503 0 000 1.007h1.333a.503.503 0 100-1.007H3z"/></svg><svg viewBox="0 0 13 14" id="flag" xmlns="http://www.w3.org/2000/svg"><path d="M1.625 1.313v11.374a.813.813 0 001.625 0V1.313a.813.813 0 00-1.625 0zm2.698 7.233a.542.542 0 00.531.018l6.23-3.25a.542.542 0 000-.961l-6.23-3.25a.542.542 0 00-.792.48v6.5c0 .19.1.365.261.463z"/></svg><svg viewBox="0 0 28 28" id="list" xmlns="http://www.w3.org/2000/svg"><path d="M1.14 5.781h25.662c.628 0 1.141-.513 1.141-1.14 0-.628-.513-1.141-1.14-1.141H1.14C.513 3.5 0 4.013 0 4.64c0 .628.513 1.141 1.14 1.141zm25.72 6.843H1.197c-.628 0-1.141.513-1.141 1.14 0 .628.513 1.141 1.14 1.141H26.86c.627 0 1.14-.513 1.14-1.14 0-.628-.513-1.14-1.14-1.14zm-.058 9.124H1.141C.513 21.748 0 22.262 0 22.89s.513 1.14 1.14 1.14h25.662c.628 0 1.141-.513 1.141-1.14 0-.627-.513-1.14-1.14-1.14z"/></svg><svg viewBox="0 0 17 18" id="lock-open" xmlns="http://www.w3.org/2000/svg"><path fill-rule="evenodd" clip-rule="evenodd" d="M13.281 7.23h.532c.782 0 1.416.633 1.416 1.416v7.437c0 .783-.634 1.417-1.416 1.417H3.188a1.417 1.417 0 01-1.417-1.417V8.646c0-.783.634-1.417 1.417-1.417h7.968a.354.354 0 00.355-.354V5.281a3.011 3.011 0 00-5.895-.865.885.885 0 01-1.697-.508 4.782 4.782 0 019.362 1.373V7.23zM8.25 10.077a1.417 1.417 0 00-.458 2.622v1.613a.708.708 0 001.416 0V12.7a1.417 1.417 0 00-.958-2.622z"/></svg><svg viewBox="0 0 12 14" id="lock-password" xmlns="http://www.w3.org/2000/svg"><path fill-rule="evenodd" clip-rule="evenodd" d="M10.063 5.908h-.407v-1.49a3.656 3.656 0 00-7.312 0v1.49h-.407c-.598 0-1.083.485-1.083 1.083v5.687c0 .599.485 1.084 1.083 1.084h8.126c.598 0 1.083-.485 1.083-1.084V6.991c0-.598-.485-1.083-1.084-1.083zm-2.167 4.604a.542.542 0 110-1.084.542.542 0 010 1.084zm0 1.896a.542.542 0 100-1.084.542.542 0 000 1.084zm0-3.792a.542.542 0 110-1.083.542.542 0 010 1.083zM5.458 9.97a.542.542 0 101.084 0 .542.542 0 00-1.084 0zm1.084 1.896a.542.542 0 11-1.084 0 .542.542 0 011.084 0zM5.458 8.074a.542.542 0 101.084 0 .542.542 0 00-1.084 0zm-1.354 2.438a.542.542 0 110-1.084.542.542 0 010 1.084zm0 1.896a.542.542 0 100-1.084.542.542 0 000 1.084zm0-3.792a.542.542 0 110-1.083.542.542 0 010 1.083zM6 2.116a2.302 2.302 0 00-2.302 2.302v1.219c0 .15.121.27.27.27h4.063a.27.27 0 00.271-.27V4.418A2.302 2.302 0 006 2.116z"/></svg><svg viewBox="0 0 13 14" id="logout" xmlns="http://www.w3.org/2000/svg"><path d="M7.313 9.98a.54.54 0 00-.542.54v1.355a.27.27 0 01-.271.27H1.354a.27.27 0 01-.27-.27v-9.75c0-.15.12-.27.27-.27H6.5c.15 0 .27.12.27.27v1.354a.542.542 0 001.084 0V1.854c0-.598-.485-1.083-1.083-1.083H1.083A1.083 1.083 0 000 1.854v10.292c0 .598.485 1.083 1.083 1.083h5.688c.598 0 1.083-.485 1.083-1.083V10.52c0-.3-.242-.542-.542-.542z"/><path d="M12.759 6.82l-3.25-2.166a.542.542 0 00-.842.45v1.354H3.792a.813.813 0 100 1.625h4.875v1.355a.55.55 0 00.541.541.542.542 0 00.301-.09l3.25-2.167a.542.542 0 000-.902z"/></svg><svg viewBox="0 0 39 39" id="message" xmlns="http://www.w3.org/2000/svg"><g clip-path="url(#atclip0)"><path d="M1.342 16.915a.799.799 0 000 1.476l12.971 5.102L37.06 2.1 1.342 16.915zm13.586 8.115v10.697c0 .43.369.799.8.799.245 0 .552-.123.675-.369l5.164-8.852 9.406 5.163c.246.123.492.123.676 0a.782.782 0 00.43-.553L38.35 3.022 14.928 25.03z"/></g><defs><clipPath id="atclip0"><path transform="translate(.85 .85)" d="M0 0h37.5v37.5H0z"/></clipPath></defs></svg><svg viewBox="0 0 24 25" id="notifications" xmlns="http://www.w3.org/2000/svg"><g filter="url(#aufilter0_d)"><path d="M22.12 18.51c-1.223 0-2.18-1.047-2.18-2.368v-4.988c0-4.404-1.966-7.3-4.888-8.622C14.68 1.046 13.457 0 12.022 0c-1.434 0-2.657 1.046-2.976 2.532C6.07 3.853 4.104 6.75 4.104 11.154v4.988c0 1.321-1.01 2.367-2.179 2.367-.266 0-.425.22-.425.496 0 .275.212.495.425.495h20.142c.265 0 .425-.22.425-.495.053-.276-.16-.496-.372-.496zM14.6 21H9.45c-.25 0-.45.167-.45.375C9 22.833 10.35 24 12 24s3-1.167 3-2.625c0-.208-.2-.375-.4-.375z"/></g><defs><filter id="aufilter0_d" x="0" y="0" filterUnits="userSpaceOnUse" color-interpolation-filters="sRGB"><feFlood flood-opacity="0" result="BackgroundImageFix"/><feColorMatrix in="SourceAlpha" values="0 0 0 0 0 0 0 0 0 0 0 0 0 0 0 0 0 0 127 0"/><feOffset dy="1"/><feColorMatrix values="0 0 0 0 0 0 0 0 0 0 0 0 0 0 0 0 0 0 0.15 0"/><feBlend in2="BackgroundImageFix" result="effect1_dropShadow"/><feBlend in="SourceGraphic" in2="effect1_dropShadow" result="shape"/></filter></defs></svg><svg viewBox="0 0 56 56" id="notifications-blue" xmlns="http://www.w3.org/2000/svg"><path d="M51.612 43.188c-2.852 0-5.084-2.44-5.084-5.523v-11.64c0-10.275-4.587-17.034-11.407-20.117C34.252 2.44 31.4 0 28.052 0s-6.2 2.44-6.944 5.908C14.164 8.991 9.576 15.75 9.576 26.025v11.64c0 3.083-2.356 5.523-5.084 5.523-.62 0-.992.514-.992 1.156 0 .642.496 1.156.992 1.156h46.997c.62 0 .992-.514.992-1.156.124-.642-.373-1.156-.869-1.156zM34.066 49H22.05c-.584 0-1.05.389-1.05.875C21 53.278 24.15 56 28 56s7-2.722 7-6.125c0-.486-.467-.875-.934-.875z"/></svg><svg viewBox="0 0 16 16" id="phone-circle" xmlns="http://www.w3.org/2000/svg"><path d="M8 .005a7.995 7.995 0 100 15.99c2.984 0 4.091-1.162 4.495-2.138a2.678 2.678 0 00-.12-2.4 1.274 1.274 0 00-.012-1.717l-.954-.953a1.288 1.288 0 00-1.814.066l-.141.14A18.773 18.773 0 017 6.543l.14-.14c.52-.482.55-1.293.071-1.815l-.953-.955a1.287 1.287 0 00-1.815.072l-.582.581a1.81 1.81 0 00-.32 2.216 19.181 19.181 0 005.954 5.954c.263.164.566.25.875.247.348-.003.687-.104.981-.289.076.386.01.786-.186 1.127-.439.734-1.533 1.12-3.165 1.12a6.66 6.66 0 115.497-2.897.667.667 0 001.099.755A7.996 7.996 0 008 .005z"/></svg><svg viewBox="0 0 13 13" id="refresh" xmlns="http://www.w3.org/2000/svg"><path d="M11.375 1.34c0-.73-.61-1.34-1.34-1.34H1.34C.609 0 0 .61 0 1.34v.813h11.375v-.812zm-9.466.285a.278.278 0 01-.284-.284c0-.122.122-.244.284-.244.122 0 .244.122.244.244 0 .162-.122.284-.244.284zm1.057 0c-.122 0-.244-.122-.244-.284 0-.122.122-.244.244-.244.162 0 .284.122.284.244a.278.278 0 01-.284.284zm1.096 0a.278.278 0 01-.284-.284c0-.122.122-.244.284-.244.163 0 .285.122.285.284 0 .122-.122.244-.285.244zm5.972 5.403c-1.625 0-2.965 1.3-2.965 2.925-.04 1.666 1.34 3.006 2.965 3.006 1.625 0 2.966-1.3 2.966-2.925 0-1.625-1.3-2.965-2.966-3.006zM7.841 9.994c0-.569.243-1.138.65-1.544.406-.406.975-.61 1.543-.61.528 0 1.016.204 1.422.529v-.244c0-.162.122-.284.285-.284.162 0 .284.122.284.284v1.34h-1.34a.278.278 0 01-.285-.284c0-.162.122-.284.284-.284h.57a1.598 1.598 0 00-1.179-.528 1.74 1.74 0 00-1.137.447c-.325.284-.488.69-.488 1.137l-.61.04zm3.696 1.584c-.406.406-.934.61-1.503.61-.487 0-1.015-.204-1.421-.529v.041a.278.278 0 01-.285.284.278.278 0 01-.284-.284v-1.097H9.14c.162 0 .284.122.284.284a.278.278 0 01-.284.285h-.325c.325.325.771.528 1.178.528.406 0 .812-.162 1.137-.447.325-.284.488-.69.488-1.137h.528c.04.528-.203 1.056-.61 1.462zM10.034 6.5c.488 0 .813 0 1.341.162v-3.98H0V7.84c0 .73.61 1.34 1.34 1.34h5.241C6.947 7.638 8.37 6.5 10.034 6.5z"/></svg><svg viewBox="0 0 8 8" id="selected" xmlns="http://www.w3.org/2000/svg"><path d="M1.757 3.346A1 1 0 00.243 4.654l1.514-1.308zM3.16 6.5l-.757.654a1 1 0 001.55-.045L3.16 6.5zm4.633-4.39A1 1 0 006.207.89l1.586 1.22zM.243 4.653l2.16 2.5 1.514-1.308-2.16-2.5L.243 4.654zm3.71 2.455l3.84-5L6.207.891l-3.84 5 1.586 1.218z"/></svg><svg viewBox="0 0 20 20" id="selected-lg" xmlns="http://www.w3.org/2000/svg"><path d="M3.257 9.346a1 1 0 00-1.514 1.308l1.514-1.308zM7.9 16.25l-.757.654a1 1 0 001.55-.045L7.9 16.25zM18.293 4.36a1 1 0 00-1.586-1.22l1.586 1.22zm-16.55 6.294l5.4 6.25 1.514-1.308-5.4-6.25-1.514 1.308zm6.95 6.205l9.6-12.5-1.586-1.218-9.6 12.5 1.586 1.218z"/></svg><svg viewBox="0 0 24 24" id="setting" xmlns="http://www.w3.org/2000/svg"><path d="M20.794 9.272a.524.524 0 00-.462-.27H12.65L14.59.61a.495.495 0 00-.295-.566.534.534 0 00-.637.166L3.244 14.208a.483.483 0 00-.042.522c.09.167.27.272.466.271h7.682l-1.941 8.39a.494.494 0 00.295.565.534.534 0 00.637-.166L20.756 9.792a.483.483 0 00.038-.52z"/></svg><svg viewBox="0 0 20 24" id="synchronize" xmlns="http://www.w3.org/2000/svg"><path d="M2.936 13.681a7.239 7.239 0 012.252-7.1A1.25 1.25 0 103.531 4.71 9.737 9.737 0 00.5 14.257a10.269 10.269 0 007.11 7.365.25.25 0 01.178.271l-.13 1.033a.5.5 0 00.745.493l4.342-2.476a.5.5 0 00.248-.373.428.428 0 000-.062.5.5 0 00-.152-.359l-3.593-3.477a.5.5 0 00-.844.3l-.232 1.878a.25.25 0 01-.333.2 7.7 7.7 0 01-4.903-5.369zM12.1.594a.5.5 0 00-.526-.015l-4.329 2.5A.5.5 0 007 3.454a.489.489 0 00.151.421l3.614 3.456a.5.5 0 00.842-.3l.221-1.848a.25.25 0 01.333-.206 7.688 7.688 0 014.9 5.37 7.243 7.243 0 01-2.253 7.1 1.25 1.25 0 101.656 1.871 9.74 9.74 0 003.03-9.549 10.261 10.261 0 00-7.12-7.369.251.251 0 01-.179-.27l.127-1.058a.43.43 0 000-.06.5.5 0 00-.222-.418z"/></svg><svg viewBox="0 0 24 25" id="user" xmlns="http://www.w3.org/2000/svg"><g filter="url(#bcfilter0_d)"><path d="M12 11.75a5.5 5.5 0 100-11 5.5 5.5 0 000 11zm0 1.5a9.511 9.511 0 00-9.5 9.5.5.5 0 00.5.5h18a.5.5 0 00.5-.5 9.511 9.511 0 00-9.5-9.5z"/></g><defs><filter id="bcfilter0_d" x="0" y="0" filterUnits="userSpaceOnUse" color-interpolation-filters="sRGB"><feFlood flood-opacity="0" result="BackgroundImageFix"/><feColorMatrix in="SourceAlpha" values="0 0 0 0 0 0 0 0 0 0 0 0 0 0 0 0 0 0 127 0"/><feOffset dy="1"/><feColorMatrix values="0 0 0 0 0 0 0 0 0 0 0 0 0 0 0 0 0 0 0.15 0"/><feBlend in2="BackgroundImageFix" result="effect1_dropShadow"/><feBlend in="SourceGraphic" in2="effect1_dropShadow" result="shape"/></filter></defs></svg><svg viewBox="0 0 24 24" id="user-blue" xmlns="http://www.w3.org/2000/svg"><path d="M12 11.75a5.5 5.5 0 100-11 5.5 5.5 0 000 11zm0 1.5a9.511 9.511 0 00-9.5 9.5.5.5 0 00.5.5h18a.5.5 0 00.5-.5 9.511 9.511 0 00-9.5-9.5z"/></svg><svg viewBox="0 0 14 14" id="visible" xmlns="http://www.w3.org/2000/svg"><path fill-rule="evenodd" clip-rule="evenodd" d="M6.501 2.992c2.384-.034 4.76 1.632 6.193 3.209.407.454.407 1.141.001 1.596-1.417 1.56-3.76 3.211-6.114 3.211h-.167c-2.346 0-4.689-1.651-6.105-3.21a1.198 1.198 0 010-1.597c1.433-1.576 3.81-3.243 6.192-3.21zm0 1.516a2.492 2.492 0 100 4.984 2.492 2.492 0 000-4.984z"/><path d="M6.502 8.083a1.083 1.083 0 100-2.166 1.083 1.083 0 000 2.166z"/></svg></svg>