<svg width="78" height="18" fill="none" xmlns="http://www.w3.org/2000/svg"><path d="M37.366 3.402l-.291 1.866h-6.992v4.378h6.105v1.866h-6.105v6.28h-2.128V3.403h9.411zM24.687 15.927l.304 1.866h-9.956V3.403h9.804l-.291 1.865h-7.385V9.5h6.688v1.866h-6.688v4.56h7.524zM12.92 3.402L7.6 17.792H5.32L0 3.403h2.293L6.498 15h.127l4.23-11.598h2.065zm36.58 8.135c0 1.56-.38 2.743-1.152 3.524a3.14 3.14 0 01-1.28.805 5.007 5.007 0 01-1.62.256c-.596 0-1.14-.085-1.635-.268-1.608-.561-2.419-2-2.419-4.317v-1.89c0-1.562.38-2.745 1.153-3.525a3.181 3.181 0 011.266-.805 4.972 4.972 0 011.634-.268c.583 0 1.127.085 1.634.268 1.609.561 2.42 2 2.42 4.317v1.903zm2.129-1.89c0-2.098-.608-3.72-1.812-4.867-1.127-1.06-2.596-1.597-4.382-1.597-1.786 0-3.243.537-4.383 1.597-1.203 1.147-1.811 2.769-1.811 4.866v1.89c0 2.098.608 3.72 1.811 4.866C42.179 17.463 43.649 18 45.435 18c1.785 0 3.242-.537 4.382-1.598 1.203-1.146 1.812-2.768 1.812-4.865v-1.89zM42.445 2.06h1.964V0h-1.964v2.061zm6.068 0V0h-1.99v2.061h1.99zM64.27 17.793l-.304-1.866H57.1V3.402h-2.14v14.39h9.31zm2.368-1.854v1.854h5.18c1.8 0 3.256-.537 4.358-1.598C77.392 15.05 78 13.427 78 11.33V9.866c0-2.098-.608-3.72-1.824-4.866-1.102-1.061-2.559-1.598-4.357-1.598h-5.18v1.866h5.192a4.58 4.58 0 011.61.269c1.62.56 2.444 2 2.444 4.317v1.463c0 .83-.102 1.524-.304 2.098-.583 1.658-1.824 2.5-3.75 2.5H68.78s-1.419.012-2.14.024z" fill="#fff"/></svg>