<svg width="110" height="24" fill="none" xmlns="http://www.w3.org/2000/svg"><path d="M52.696 4.537l-.411 2.487h-9.86v5.838h8.61v2.488h-8.61v8.374h-3.002V4.537h13.273zM34.815 21.236l.429 2.488h-14.04V4.537h13.825l-.41 2.487H24.203v5.643h9.432v2.488h-9.432v6.08h10.61zM18.22 4.537l-7.502 19.187H7.502L0 4.537h3.233L9.163 20h.18l5.966-15.463h2.911zm51.588 10.845c0 2.081-.536 3.659-1.625 4.7-.5.487-1.09.845-1.804 1.072a7.435 7.435 0 01-2.287.342c-.84 0-1.607-.114-2.304-.358-2.269-.748-3.412-2.667-3.412-5.756v-2.52c0-2.082.536-3.659 1.626-4.7a4.54 4.54 0 011.786-1.073 7.38 7.38 0 012.304-.357c.822 0 1.59.114 2.305.357 2.268.748 3.411 2.667 3.411 5.756v2.537zm3.001-2.52c0-2.797-.857-4.96-2.554-6.488-1.59-1.415-3.662-2.13-6.18-2.13-2.52 0-4.574.715-6.181 2.13-1.697 1.528-2.555 3.691-2.555 6.488v2.52c0 2.797.858 4.96 2.555 6.488 1.59 1.415 3.662 2.13 6.18 2.13 2.52 0 4.573-.715 6.181-2.13 1.697-1.529 2.554-3.691 2.554-6.488v-2.52zM59.86 2.748h2.768V0H59.86v2.748zm8.556 0V0h-2.804v2.748h2.804zm22.222 20.976l-.43-2.488h-9.68v-16.7h-3.02v19.188h13.13zm3.34-2.472v2.472h7.306c2.536 0 4.591-.716 6.145-2.13 1.715-1.529 2.572-3.692 2.572-6.488v-1.951c0-2.797-.857-4.96-2.572-6.488-1.554-1.415-3.609-2.13-6.145-2.13h-7.306v2.487h7.324c.821 0 1.572.114 2.268.358 2.287.748 3.448 2.667 3.448 5.756v1.951c0 1.106-.143 2.033-.429 2.797-.822 2.212-2.572 3.334-5.287 3.334h-4.305s-2 .016-3.02.032z" fill="#ADADAD"/></svg>