<svg width="30" height="30" viewBox="0 0 30 30" fill="none" xmlns="http://www.w3.org/2000/svg">
<path d="M13.1471 15.7353H0.617647C0.264706 15.7353 0 16 0 16.3529V28.6176C0 28.9706 0.264706 29.2353 0.617647 29.2353H13.1029C13.4559 29.2353 13.7206 28.9706 13.7206 28.6176V16.3529C13.7647 16 13.4559 15.7353 13.1471 15.7353ZM6.88235 19.3971H3.75V22.4853C3.75 22.8382 3.48529 23.1029 3.13235 23.1029C2.77941 23.1029 2.51471 22.8382 2.51471 22.4853V18.8235C2.51471 18.4706 2.77941 18.2059 3.13235 18.2059H6.88235C7.23529 18.2059 7.5 18.4706 7.5 18.8235C7.5 19.1324 7.23529 19.3971 6.88235 19.3971ZM29.3824 15.7353H16.8529C16.5 15.7353 16.2353 16 16.2353 16.3529V28.6176C16.2353 28.9706 16.5 29.2353 16.8529 29.2353H29.3382C29.6912 29.2353 29.9559 28.9706 29.9559 28.6176V16.3529C30 16 29.7353 15.7353 29.3824 15.7353ZM23.1176 19.3971H19.9853V22.4853C19.9853 22.8382 19.7206 23.1029 19.3676 23.1029C19.0147 23.1029 18.75 22.8382 18.75 22.4853V18.8235C18.75 18.4706 19.0147 18.2059 19.3676 18.2059H23.1176C23.4706 18.2059 23.7353 18.4706 23.7353 18.8235C23.7353 19.1324 23.4706 19.3971 23.1176 19.3971ZM9.35294 14.5H21.8382C22.1912 14.5 22.4559 14.2353 22.4559 13.8824V1.61765C22.5 1.26471 22.2353 1 21.8824 1H9.35294C9 1 8.73529 1.26471 8.73529 1.61765V13.8824C8.73529 14.2353 9.04412 14.5 9.35294 14.5ZM11.25 4.08824C11.25 3.73529 11.5147 3.47059 11.8676 3.47059H15.6176C15.9706 3.47059 16.2353 3.73529 16.2353 4.08824C16.2353 4.44118 15.9706 4.70588 15.6176 4.70588H12.4853V7.79412C12.4853 8.14706 12.2206 8.41176 11.8676 8.41176C11.5147 8.41176 11.25 8.14706 11.25 7.79412V4.08824Z" fill="white"/>
</svg>
