<svg width="30" height="30" viewBox="0 0 30 30" fill="none" xmlns="http://www.w3.org/2000/svg">
<g clip-path="url(#clip0)">
<path d="M17.5329 0.0405569C17.2491 -0.0810647 16.9248 1.63959e-05 16.7626 0.24326L4.11398 17.7568C3.99235 17.9595 3.95181 18.2027 4.07343 18.4054C4.19506 18.6081 4.39776 18.7297 4.641 18.7297H13.9653L11.614 29.2297C11.5329 29.5135 11.6951 29.7973 11.9788 29.9189C12.2626 30.0406 12.5869 29.9595 12.7491 29.7162L25.3978 12.2027C25.5194 12 25.5599 11.7568 25.4383 11.5541C25.3167 11.3514 25.114 11.2297 24.8707 11.2297H15.5464L17.8978 0.729746C17.9383 0.486503 17.8167 0.162179 17.5329 0.0405569Z" fill="white"/>
</g>
<defs>
<clipPath id="clip0">
<rect width="30" height="30" fill="white"/>
</clipPath>
</defs>
</svg>
