<svg width="30" height="30" viewBox="0 0 30 30" fill="none" xmlns="http://www.w3.org/2000/svg">
<path d="M15 0C6.73171 0 0 6.73171 0 15C0 23.2683 6.73171 30 15 30C23.2683 30 30 23.2683 30 15C30 6.73171 23.2683 0 15 0ZM15 0.695122C22.9024 0.695122 29.3049 7.13415 29.3049 15C29.3049 22.8659 22.9024 29.3049 15 29.3049C7.09756 29.3049 0.695122 22.9024 0.695122 15C0.695122 7.09756 7.09756 0.695122 15 0.695122ZM15 2.12195C10.5 2.12195 6.54878 4.42683 4.2439 7.90244C4.53659 7.90244 4.82927 7.93902 5.08537 7.93902C6.43902 7.93902 8.52439 7.7561 8.52439 7.7561C9.21951 7.71951 9.29268 8.7439 8.59756 8.81707C8.59756 8.81707 7.90244 8.89024 7.13415 8.96342L11.8171 22.9024L14.6341 14.4512L12.622 8.96342C11.9268 8.92683 11.2683 8.81707 11.2683 8.81707C10.5732 8.78049 10.6463 7.71951 11.3415 7.7561C11.3415 7.7561 13.4634 7.93902 14.7073 7.93902C16.061 7.93902 18.1463 7.7561 18.1463 7.7561C18.8415 7.71951 18.9146 8.7439 18.2195 8.81707C18.2195 8.81707 17.5244 8.89024 16.7561 8.96342L21.4024 22.7927L22.6829 18.5122C23.2317 16.7195 23.6707 15.4756 23.6707 14.3415C23.6707 12.7683 23.0854 11.6341 22.6098 10.7927C21.9512 9.73171 21.3293 8.81707 21.3293 7.7561C21.3293 6.58537 22.2073 5.4878 23.4878 5.4878C23.561 5.4878 23.5976 5.4878 23.6707 5.4878C21.4024 3.40244 18.3659 2.12195 15 2.12195ZM26.3049 8.81707C26.3415 9.21951 26.4146 9.65854 26.4146 10.1341C26.4146 11.4512 26.1585 12.9146 25.4268 14.7439L21.4756 26.122C25.2805 23.8902 27.878 19.7561 27.878 15C27.878 12.7683 27.2927 10.6463 26.3049 8.81707ZM3.2561 9.76829C2.56098 11.378 2.15854 13.1341 2.15854 15C2.15854 20.0854 5.12195 24.4756 9.40244 26.561L3.2561 9.76829ZM15.2195 16.1341L11.378 27.3293C12.5488 27.6585 13.7561 27.8415 15 27.8415C16.5 27.8415 17.9268 27.5854 19.2805 27.1098C19.2439 27.0366 19.2073 27 19.1707 26.9268L15.2195 16.1341Z" fill="white"/>
</svg>
