<svg width="30" height="30" viewBox="0 0 30 30" fill="none" xmlns="http://www.w3.org/2000/svg">
<path d="M15 30C20.5 30 25 25.5 25 20C25 17.4583 24.0417 15.1667 22.5 13.4167V6.875V6.75C21.7917 2.83333 18.625 0 15 0C11.375 0 8.20833 2.83333 7.5 6.75V13.375C5.95833 15.1667 5 17.4583 5 20C5 25.5 9.5 30 15 30ZM15.625 21.0833V24.375C15.625 24.7083 15.3333 25 15 25C14.6667 25 14.375 24.7083 14.375 24.375V21.0833C14 20.875 13.75 20.4583 13.75 20C13.75 19.2917 14.2917 18.75 15 18.75C15.7083 18.75 16.25 19.2917 16.25 20C16.25 20.4583 16 20.875 15.625 21.0833ZM15 1.25C18 1.25 20.625 3.625 21.25 6.91667V12.2083C19.5417 10.8333 17.375 10 15 10C12.625 10 10.4583 10.8333 8.75 12.2083V6.91667C9.375 3.625 12 1.25 15 1.25Z" fill="white"/>
</svg>
