<svg width="30" height="30" viewBox="0 0 30 30" fill="none" xmlns="http://www.w3.org/2000/svg">
<g clip-path="url(#clip0)">
<path d="M4.35938 17.2188H0.609375C0.28125 17.2188 0 17.5001 0 17.8282V27.8126C0 28.1407 0.28125 28.4219 0.609375 28.4219H4.35938C4.6875 28.4219 4.96875 28.1407 4.96875 27.8126V17.8282C5.01562 17.5001 4.73438 17.2188 4.35938 17.2188ZM29.8125 22.3751C28.3594 20.9219 27.0938 20.5001 25.4062 20.9688L21.6562 22.2344C21.7031 22.4219 21.7031 22.6094 21.7031 22.8438C21.7031 23.6407 21.4219 24.3907 20.9531 24.9532C20.3906 25.6094 19.6406 25.9376 18.7031 25.9376H12.5156C12.1875 25.9376 11.9062 25.6563 11.9062 25.3282C11.9062 25.0001 12.1875 24.7188 12.5156 24.7188H18.75C19.3125 24.7188 19.7344 24.5313 20.0156 24.1563C20.2969 23.8282 20.4375 23.3594 20.4375 22.8438C20.4375 22.1407 20.0625 20.9688 18.7031 20.9688H15.1875H15C14.8125 20.9688 14.6719 20.9219 14.5781 20.7813C14.0156 20.2188 12.2812 18.4844 9.375 18.4844H6.89062C6.5625 18.4844 6.28125 18.7657 6.28125 19.0938V25.9844C6.28125 26.2657 6.46875 26.5001 6.70312 26.5938C8.67188 27.2501 10.8281 27.8126 12.0469 28.2344C14.4375 29.1251 15.7969 29.5938 17.0156 29.5938C18.4688 29.5938 19.6875 28.9376 22.2188 27.4376C23.9062 26.4532 26.25 25.1407 29.6719 23.4063C29.8594 23.3126 30 23.1251 30 22.9376C30.0469 22.7501 29.9531 22.5157 29.8125 22.3751ZM21.2344 9.71881C23.625 9.71881 25.5938 7.75006 25.5938 5.35944C25.5938 2.96881 23.625 1.00006 21.2344 1.00006C18.8438 1.00006 16.875 2.92194 16.875 5.31256C16.875 7.75006 18.8438 9.71881 21.2344 9.71881ZM20.625 4.09381C20.625 3.76569 20.9062 3.48444 21.2344 3.48444C21.5625 3.48444 21.8438 3.76569 21.8438 4.09381V6.57819C21.8438 6.90631 21.5625 7.18756 21.2344 7.18756C20.9062 7.18756 20.625 6.90631 20.625 6.57819V4.09381ZM15.6094 18.4376C18 18.4376 19.9688 16.4688 19.9688 14.0782C19.9688 11.6876 18 9.71881 15.6094 9.71881C13.2188 9.71881 11.25 11.6876 11.25 14.0782C11.25 16.4688 13.2188 18.4376 15.6094 18.4376ZM15 12.8126C15 12.4844 15.2812 12.2032 15.6094 12.2032C15.9375 12.2032 16.2188 12.4844 16.2188 12.8126V15.2969C16.2188 15.6251 15.9375 15.9063 15.6094 15.9063C15.2812 15.9063 15 15.6251 15 15.2969V12.8126Z" fill="white"/>
</g>
<defs>
<clipPath id="clip0">
<rect width="30" height="30" fill="white"/>
</clipPath>
</defs>
</svg>
