<svg width="90" height="100" viewBox="0 0 90 100" fill="none" xmlns="http://www.w3.org/2000/svg">
<g clip-path="url(#clip0)">
<path d="M28.9317 96.41C20.8808 99.0862 13.4844 100.261 7.98621 99.9348C7.92076 99.9348 7.92076 99.9348 7.8553 99.9348C6.28439 99.8695 5.23712 99.8695 4.38621 99.8042C3.46985 99.7389 2.68439 99.6737 1.70258 99.3473C1.3753 99.282 1.17894 99.0209 1.04803 98.7598C0.786212 97.9113 0.589848 96.2141 0.32803 94.2559C0.131666 92.363 -0.0646973 90.2742 -0.0646973 88.9034C-0.0646973 88.3812 0.32803 87.9896 0.851666 87.9896C10.8008 84.8564 23.3026 81.2663 33.8408 73.1723C43.3317 65.8616 51.1208 54.8956 54.0008 37.0105C53.9353 36.9452 53.8044 36.8146 53.5426 36.6188C52.5608 35.705 50.4008 34.0731 48.1753 32.3107C45.9498 30.5483 43.5935 28.7207 41.9571 27.4804C41.8917 27.4152 41.8917 27.3499 41.8262 27.3499C41.7608 27.2846 41.7608 27.2846 41.6953 27.2193C41.6953 27.1541 41.6953 27.0888 41.6298 27.0888C41.6298 27.0235 41.5644 26.9583 41.5644 26.893C41.5644 26.8277 41.5644 26.7624 41.5644 26.6972C41.5644 26.6319 41.5644 26.5666 41.5644 26.5013C41.5644 26.4361 41.6298 26.3708 41.6298 26.3055C41.6298 26.2402 41.6953 26.2402 41.6953 26.175C41.7608 26.1097 41.8262 26.1097 41.8262 26.0444C41.8917 25.9791 41.8917 25.9791 41.9571 25.9139C42.1535 25.8486 42.3498 25.718 42.5462 25.6528C48.0444 22.5849 53.3462 19.1254 58.1898 15.3395C62.3135 12.141 66.1098 8.81204 69.3826 5.35251L69.7098 5.15669C73.048 3.72065 76.3862 2.28462 79.7244 0.913866C79.9862 0.718044 80.3135 0.456947 80.5753 0.19585C80.8371 2.7918e-05 81.1644 -0.0652462 81.4917 0.0653021C81.8189 0.19585 82.0153 0.456947 82.0808 0.783318C83.5862 13.7076 88.7571 32.7024 89.4771 48.1071C89.5426 48.1723 89.608 48.2376 89.6735 48.3682C89.8699 48.8251 89.7389 49.3473 89.2808 49.6084C86.728 50.9139 84.1098 52.0888 81.4917 53.1332C81.2953 53.1985 81.0335 53.1985 80.7717 53.1332C79.2008 52.4152 77.8262 51.5013 76.5171 50.6528C72.1317 64.752 63.3608 75.5222 53.2153 83.3551C45.6226 89.4256 36.9826 93.7337 28.9317 96.41ZM52.3644 81.9191C62.5098 74.0862 71.2153 63.316 75.3389 49.2167C75.3389 49.0862 75.3389 48.9556 75.4698 48.8251C76.0589 46.8669 76.5171 44.9086 76.8444 42.8851C76.9098 42.624 77.1062 42.3629 77.368 42.2324C77.6298 42.1019 77.9571 42.1019 78.2189 42.2324C82.0807 44.1906 84.5026 45.3656 87.9062 47.128C87.0553 32.7676 82.4735 15.3395 80.7717 2.61099C78.4808 4.50394 75.8626 6.59272 72.9171 8.87731C66.6989 13.7076 59.3026 18.9295 51.9717 22.9113C54.4589 24.9348 56.8808 26.7624 58.8444 28.329C59.9571 29.1776 60.9389 29.9609 61.7244 30.6136C62.5098 31.2663 63.0989 31.7885 63.4917 32.3107C63.6226 32.4413 63.688 32.6371 63.8189 32.8329C63.8844 33.0287 64.0153 33.2246 63.9498 33.5509C60.9389 54.3734 50.7935 68.4073 39.4044 77.2193C28.1462 85.9008 15.6444 89.6214 7.52803 89.9478C7.52803 90.0131 7.46257 90.1436 7.46257 90.2089C7.26621 91.1227 7.26621 92.9504 7.46257 94.5823C7.59348 95.4308 7.72439 96.2141 7.8553 96.8669C7.98621 97.4543 8.24803 97.9113 8.31348 98.1071C13.4844 98.3682 20.6844 97.3238 28.408 94.7128C36.2626 92.1019 44.7062 87.859 52.3644 81.9191ZM81.0989 51.0444C82.0808 49.7389 82.8008 48.3682 83.3244 46.8016C82.6698 46.4752 81.9498 46.0836 81.2298 45.7572C80.4444 47.128 79.8553 48.564 79.3971 50.0653C79.9208 50.4569 80.5098 50.7833 81.0989 51.0444ZM50.2698 23.9556C48.5026 24.8042 46.1462 25.9791 44.3135 26.893C45.1644 27.5457 46.1462 28.329 47.128 29.1123C48.1753 27.4152 49.2226 25.718 50.2698 23.9556ZM51.1862 31.5274C51.1862 31.7885 51.1208 31.9844 51.0553 32.1802C51.3826 32.4413 51.7098 32.7024 52.0371 32.9635C53.5426 31.658 54.8517 30.0914 55.8335 28.329C55.2444 27.8721 54.6553 27.4152 54.0008 26.893C53.1498 28.5248 52.2335 30.0261 51.1862 31.5274ZM58.648 47.3891C59.3026 45.4961 59.8917 43.4726 60.4153 41.4491C59.368 42.624 58.1244 43.7337 57.0771 44.8434C55.8989 46.0836 54.7208 47.2585 53.7389 48.6293C53.5426 48.8904 53.2808 49.1515 53.0844 49.3473C53.1498 49.6084 53.0189 49.8695 52.8226 49.9348L52.6917 50C52.2335 51.3708 51.7098 52.611 51.1862 53.8512C53.608 51.6972 56.1608 49.5431 58.648 47.3891ZM50.2044 55.8094C49.3535 57.6371 48.3717 59.3342 47.3898 60.9661C49.8771 59.269 52.3644 57.5718 54.9171 56.0052C56.0298 53.8512 57.0771 51.5666 58.0589 49.1515C55.3753 51.3708 52.8226 53.5901 50.2044 55.8094ZM56.488 44.2559C57.8626 42.8199 59.368 41.4491 60.5462 39.9478C60.6117 39.8173 60.7426 39.8173 60.8735 39.752C61.2008 38.2507 61.528 36.6841 61.7898 35.1175C59.6953 38.0549 57.4044 40.8616 54.9171 43.4726C54.7862 43.6032 54.6553 43.6032 54.5244 43.6032C54.1971 44.9739 53.8044 46.2794 53.4117 47.5849C54.3935 46.41 55.4408 45.3003 56.488 44.2559ZM60.5462 35.3133C58.9753 35.9661 57.4044 36.6188 55.768 37.3368C55.5062 39.034 55.1789 40.6658 54.8517 42.2977C56.8808 40.0784 58.8444 37.7285 60.5462 35.3133ZM55.6371 35.4439C57.6008 34.5953 59.5644 33.812 61.528 32.9635C61.2662 32.7024 60.8735 32.376 60.4808 32.0496C60.1535 31.7885 59.6953 31.3969 59.3026 31.0705C58.0589 32.5066 56.8808 33.9426 55.6371 35.4439ZM38.3571 71.8016C38.3571 71.8669 38.3571 71.8669 38.2917 71.9321L38.1608 72.0627C37.1135 72.9765 36.0662 73.8251 35.0189 74.6084C34.6262 74.9348 34.168 75.2611 33.7098 75.5222C37.048 74.0209 40.648 72.5196 43.5935 71.0836C45.4262 69.2559 47.2589 67.2977 48.9608 65.1436C45.5571 67.2977 42.2189 69.4517 38.8153 71.6058L38.6189 71.671C38.6189 71.7363 38.3571 71.8016 38.3571 71.8016ZM6.28439 88.2507C6.4153 88.2507 6.54621 88.2507 6.67712 88.2507C6.80803 88.1854 6.93894 88.1854 7.1353 88.1854V88.316V88.1854C12.8953 88.0549 21.3389 85.9661 29.9135 81.3316C25.0698 82.7676 19.3098 84.269 14.8589 85.3786C11.9135 86.423 9.03348 87.3368 6.28439 88.2507ZM1.83348 89.8825C1.83348 90.2742 1.89894 90.7311 1.89894 91.188C2.35712 90.7964 2.88076 90.4047 3.33894 90.0131C2.8153 89.9478 2.35712 89.8825 1.83348 89.8825ZM3.60076 94.2559C3.20803 94.5823 2.8153 94.9086 2.42258 95.3656C2.42258 95.4308 2.35712 95.4308 2.29167 95.4308C2.42258 96.2794 2.48803 96.9974 2.61894 97.5196C3.60076 96.8016 4.58258 96.0183 5.56439 95.3003C5.49894 94.6476 5.36803 93.9295 5.36803 93.2768C4.77894 93.4726 4.18985 93.799 3.60076 94.2559ZM4.51712 98.0418C4.9753 98.0418 5.56439 98.1071 6.21894 98.1071C6.08803 97.7807 5.95712 97.3891 5.89167 96.9321C5.82621 96.7363 5.82621 96.4752 5.76076 96.2794C5.04076 96.8669 4.2553 97.3891 3.5353 97.9765C3.86258 97.9765 4.18985 97.9765 4.51712 98.0418ZM2.16076 94.0601C2.16076 94.1254 2.16076 94.2559 2.22621 94.3212C2.48803 94.0601 2.74985 93.7337 3.07712 93.5379C3.79712 93.0157 4.58258 92.5588 5.36803 92.2324C5.36803 92.1671 5.36803 92.1671 5.36803 92.1019C5.36803 91.3186 5.43348 90.6005 5.49894 90.0131C5.23712 90.0131 4.9753 90.0131 4.71348 90.0131C3.92803 90.6658 3.07712 91.3186 2.29167 91.9713C2.22621 92.0366 2.0953 92.0366 1.96439 92.0366C2.02985 92.6893 2.0953 93.4073 2.16076 94.0601ZM20.8808 82.8329C25.2662 81.658 29.848 80.3525 33.3171 79.1776C34.9535 78.1332 36.5898 77.0235 38.1608 75.7833C39.2735 74.9348 40.3208 74.0209 41.4335 73.1071C37.6371 74.8695 33.2517 76.6319 29.9135 78.329C29.7826 78.3943 29.6517 78.3943 29.5862 78.329C26.7062 80.0261 23.8262 81.5274 20.8808 82.8329ZM40.9753 69.1906C44.1171 67.1671 47.3244 65.1436 50.4662 63.1201C51.7098 61.423 52.888 59.5953 53.9353 57.7024C51.1862 59.3995 48.568 61.2272 45.9498 63.1201C44.4444 65.2742 42.7426 67.363 40.9753 69.1906ZM54.7208 35.1828C56.0298 33.6162 57.3389 32.0496 58.648 30.4831C58.0589 30.0261 57.3389 29.5039 56.6189 28.9165C55.5717 30.6136 54.328 32.1802 52.8226 33.5509C53.1498 33.812 53.4117 34.0731 53.7389 34.269C54.0662 34.5953 54.3935 34.9217 54.7208 35.1828ZM50.1389 31.5274C51.2517 29.8956 52.2989 28.1985 53.2808 26.4361C52.5608 25.8486 51.7753 25.2611 50.9898 24.6084C49.9426 26.3055 48.8953 28.0026 47.7826 29.6998C48.6335 30.2872 49.4189 30.94 50.1389 31.5274ZM70.8226 6.72327C68.5971 9.07314 66.1098 11.3577 63.4262 13.5771C66.3062 11.5536 69.1208 9.46478 71.7389 7.44128C72.8517 6.59272 73.8989 5.74415 74.9462 4.96086C73.5717 5.54833 72.1971 6.1358 70.8226 6.72327ZM87.0553 48.7598C86.008 48.2376 85.0262 47.7154 84.1098 47.2585C83.6517 48.564 83.0626 49.7389 82.3426 50.9139C83.9135 50.2611 85.4844 49.5431 87.0553 48.7598ZM78.5462 49.6084C79.0044 48.1723 79.5935 46.7363 80.3789 45.4308C79.7244 45.1045 79.0698 44.7781 78.3498 44.4517C78.0226 45.953 77.6953 47.4543 77.3026 48.8904C77.7607 49.0862 78.1535 49.3473 78.5462 49.6084Z" fill="#0093F5"/>
</g>
<defs>
<clipPath id="clip0">
<rect width="90" height="100" fill="white"/>
</clipPath>
</defs>
</svg>
