<svg width="814" height="14" viewBox="0 0 814 14" fill="none" xmlns="http://www.w3.org/2000/svg">
<mask id="path-1-inside-1" fill="white">
<path fill-rule="evenodd" clip-rule="evenodd" d="M814 6.44188V0H0V6.44197C1.86552 9.21502 5.95159 10.1517 8.87363 7.68146L13.4154 3.84184C15.6488 1.95377 18.918 1.95091 21.1547 3.83508L31.131 12.2392C33.3647 14.1208 36.6287 14.1208 38.8623 12.2392L48.8455 3.82931C51.0791 1.94769 54.3431 1.94769 56.5767 3.8293L66.5599 12.2392C68.7935 14.1208 72.0575 14.1208 74.2912 12.2392L84.2744 3.82931C86.508 1.94769 89.772 1.94769 92.0056 3.8293L101.989 12.2392C104.222 14.1208 107.486 14.1208 109.72 12.2392L119.703 3.82931C121.937 1.94769 125.201 1.94768 127.435 3.8293L137.418 12.2392C139.651 14.1208 142.915 14.1208 145.149 12.2392L155.132 3.82931C157.366 1.94769 160.63 1.94769 162.863 3.8293L172.847 12.2392C175.08 14.1208 178.344 14.1208 180.578 12.2392L190.561 3.82931C192.795 1.94769 196.059 1.94769 198.292 3.8293L208.275 12.2392C210.509 14.1208 213.773 14.1208 216.007 12.2392L225.99 3.82931C228.224 1.94769 231.488 1.94769 233.721 3.8293L243.704 12.2392C245.938 14.1208 249.202 14.1208 251.436 12.2392L261.419 3.8293C263.652 1.94769 266.916 1.94768 269.15 3.8293L279.133 12.2392C281.367 14.1208 284.631 14.1208 286.865 12.2392L296.848 3.82931C299.081 1.94769 302.345 1.94769 304.579 3.82931L314.562 12.2392C316.796 14.1208 320.06 14.1208 322.293 12.2392L332.277 3.8293C334.51 1.94769 337.774 1.94768 340.008 3.8293L349.991 12.2392C352.225 14.1208 355.489 14.1208 357.722 12.2392L367.705 3.8293C369.939 1.94769 373.203 1.94768 375.437 3.8293L385.42 12.2392C387.654 14.1208 390.918 14.1208 393.151 12.2392L403.134 3.82931C405.368 1.94769 408.632 1.94769 410.866 3.8293L420.849 12.2392C423.082 14.1208 426.346 14.1208 428.58 12.2392L438.563 3.8293C440.797 1.94769 444.061 1.94768 446.294 3.8293L456.278 12.2392C458.511 14.1208 461.775 14.1208 464.009 12.2392L473.992 3.82931C476.226 1.94769 479.49 1.94769 481.723 3.82931L491.707 12.2392C493.94 14.1208 497.204 14.1208 499.438 12.2392L509.421 3.8293C511.655 1.94769 514.919 1.94768 517.152 3.8293L527.135 12.2392C529.369 14.1208 532.633 14.1208 534.867 12.2392L544.85 3.8293C547.084 1.94769 550.348 1.94768 552.581 3.8293L562.564 12.2392C564.798 14.1208 568.062 14.1208 570.296 12.2392L580.279 3.8293C582.512 1.94769 585.776 1.94768 588.01 3.8293L597.993 12.2392C600.227 14.1208 603.491 14.1208 605.725 12.2392L615.708 3.82931C617.941 1.94769 621.205 1.94769 623.439 3.82931L633.422 12.2392C635.656 14.1208 638.92 14.1208 641.153 12.2392L651.137 3.8293C653.37 1.94768 656.634 1.94769 658.868 3.8293L668.851 12.2392C671.085 14.1208 674.349 14.1208 676.582 12.2392L686.565 3.8293C688.799 1.94768 692.063 1.94769 694.297 3.8293L704.28 12.2392C706.514 14.1208 709.778 14.1208 712.011 12.2392L721.994 3.8293C724.228 1.94769 727.492 1.94768 729.726 3.8293L739.709 12.2392C741.942 14.1208 745.206 14.1208 747.44 12.2392L757.423 3.8293C759.657 1.94769 762.921 1.94768 765.154 3.8293L775.138 12.2392C777.371 14.1208 780.635 14.1208 782.869 12.2392L792.845 3.83508C795.082 1.95091 798.351 1.95377 800.585 3.84184L805.126 7.68145C808.048 10.1518 812.135 9.21499 814 6.44188Z"/>
</mask>
<path fill-rule="evenodd" clip-rule="evenodd" d="M814 6.44188V0H0V6.44197C1.86552 9.21502 5.95159 10.1517 8.87363 7.68146L13.4154 3.84184C15.6488 1.95377 18.918 1.95091 21.1547 3.83508L31.131 12.2392C33.3647 14.1208 36.6287 14.1208 38.8623 12.2392L48.8455 3.82931C51.0791 1.94769 54.3431 1.94769 56.5767 3.8293L66.5599 12.2392C68.7935 14.1208 72.0575 14.1208 74.2912 12.2392L84.2744 3.82931C86.508 1.94769 89.772 1.94769 92.0056 3.8293L101.989 12.2392C104.222 14.1208 107.486 14.1208 109.72 12.2392L119.703 3.82931C121.937 1.94769 125.201 1.94768 127.435 3.8293L137.418 12.2392C139.651 14.1208 142.915 14.1208 145.149 12.2392L155.132 3.82931C157.366 1.94769 160.63 1.94769 162.863 3.8293L172.847 12.2392C175.08 14.1208 178.344 14.1208 180.578 12.2392L190.561 3.82931C192.795 1.94769 196.059 1.94769 198.292 3.8293L208.275 12.2392C210.509 14.1208 213.773 14.1208 216.007 12.2392L225.99 3.82931C228.224 1.94769 231.488 1.94769 233.721 3.8293L243.704 12.2392C245.938 14.1208 249.202 14.1208 251.436 12.2392L261.419 3.8293C263.652 1.94769 266.916 1.94768 269.15 3.8293L279.133 12.2392C281.367 14.1208 284.631 14.1208 286.865 12.2392L296.848 3.82931C299.081 1.94769 302.345 1.94769 304.579 3.82931L314.562 12.2392C316.796 14.1208 320.06 14.1208 322.293 12.2392L332.277 3.8293C334.51 1.94769 337.774 1.94768 340.008 3.8293L349.991 12.2392C352.225 14.1208 355.489 14.1208 357.722 12.2392L367.705 3.8293C369.939 1.94769 373.203 1.94768 375.437 3.8293L385.42 12.2392C387.654 14.1208 390.918 14.1208 393.151 12.2392L403.134 3.82931C405.368 1.94769 408.632 1.94769 410.866 3.8293L420.849 12.2392C423.082 14.1208 426.346 14.1208 428.58 12.2392L438.563 3.8293C440.797 1.94769 444.061 1.94768 446.294 3.8293L456.278 12.2392C458.511 14.1208 461.775 14.1208 464.009 12.2392L473.992 3.82931C476.226 1.94769 479.49 1.94769 481.723 3.82931L491.707 12.2392C493.94 14.1208 497.204 14.1208 499.438 12.2392L509.421 3.8293C511.655 1.94769 514.919 1.94768 517.152 3.8293L527.135 12.2392C529.369 14.1208 532.633 14.1208 534.867 12.2392L544.85 3.8293C547.084 1.94769 550.348 1.94768 552.581 3.8293L562.564 12.2392C564.798 14.1208 568.062 14.1208 570.296 12.2392L580.279 3.8293C582.512 1.94769 585.776 1.94768 588.01 3.8293L597.993 12.2392C600.227 14.1208 603.491 14.1208 605.725 12.2392L615.708 3.82931C617.941 1.94769 621.205 1.94769 623.439 3.82931L633.422 12.2392C635.656 14.1208 638.92 14.1208 641.153 12.2392L651.137 3.8293C653.37 1.94768 656.634 1.94769 658.868 3.8293L668.851 12.2392C671.085 14.1208 674.349 14.1208 676.582 12.2392L686.565 3.8293C688.799 1.94768 692.063 1.94769 694.297 3.8293L704.28 12.2392C706.514 14.1208 709.778 14.1208 712.011 12.2392L721.994 3.8293C724.228 1.94769 727.492 1.94768 729.726 3.8293L739.709 12.2392C741.942 14.1208 745.206 14.1208 747.44 12.2392L757.423 3.8293C759.657 1.94769 762.921 1.94768 765.154 3.8293L775.138 12.2392C777.371 14.1208 780.635 14.1208 782.869 12.2392L792.845 3.83508C795.082 1.95091 798.351 1.95377 800.585 3.84184L805.126 7.68145C808.048 10.1518 812.135 9.21499 814 6.44188Z" fill="white"/>
<path d="M814 0H815V-1H814V0ZM814 6.44188L814.83 7.00005L815 6.74693V6.44188H814ZM0 0V-1H-1V0H0ZM0 6.44197H-1V6.74703L-0.82972 7.00015L0 6.44197ZM8.87363 7.68146L9.51924 8.44513L9.51924 8.44513L8.87363 7.68146ZM13.4154 3.84184L14.061 4.60551L14.061 4.60551L13.4154 3.84184ZM21.1547 3.83508L21.799 3.07028L21.799 3.07028L21.1547 3.83508ZM31.131 12.2392L31.7753 11.4744L31.7753 11.4744L31.131 12.2392ZM38.8623 12.2392L39.5066 13.004L39.5066 13.004L38.8623 12.2392ZM48.8455 3.82931L48.2012 3.06451L48.2012 3.06451L48.8455 3.82931ZM56.5767 3.8293L57.221 3.0645L57.221 3.0645L56.5767 3.8293ZM66.5599 12.2392L65.9157 13.004L65.9157 13.004L66.5599 12.2392ZM74.2912 12.2392L74.9354 13.004L74.9354 13.004L74.2912 12.2392ZM84.2744 3.82931L84.9186 4.5941L84.9186 4.5941L84.2744 3.82931ZM92.0056 3.8293L91.3613 4.5941L91.3613 4.5941L92.0056 3.8293ZM101.989 12.2392L101.345 13.004L101.345 13.004L101.989 12.2392ZM109.72 12.2392L109.076 11.4744L109.076 11.4744L109.72 12.2392ZM119.703 3.82931L120.348 4.5941L120.348 4.5941L119.703 3.82931ZM127.435 3.8293L126.79 4.5941L126.79 4.5941L127.435 3.8293ZM137.418 12.2392L138.062 11.4744L138.062 11.4744L137.418 12.2392ZM145.149 12.2392L145.793 13.004L145.793 13.004L145.149 12.2392ZM155.132 3.82931L154.488 3.06451L154.488 3.06451L155.132 3.82931ZM162.863 3.8293L163.508 3.0645L163.508 3.0645L162.863 3.8293ZM172.847 12.2392L172.202 13.004L172.202 13.004L172.847 12.2392ZM180.578 12.2392L181.222 13.004L181.222 13.004L180.578 12.2392ZM190.561 3.82931L189.917 3.06451L189.917 3.06451L190.561 3.82931ZM198.292 3.8293L197.648 4.5941L197.648 4.5941L198.292 3.8293ZM208.275 12.2392L208.92 11.4744L208.92 11.4744L208.275 12.2392ZM216.007 12.2392L216.651 13.004L216.651 13.004L216.007 12.2392ZM225.99 3.82931L225.346 3.06451L225.346 3.06451L225.99 3.82931ZM233.721 3.8293L234.365 3.06451L234.365 3.06451L233.721 3.8293ZM243.704 12.2392L243.06 13.004L243.06 13.004L243.704 12.2392ZM251.436 12.2392L252.08 13.004L252.08 13.004L251.436 12.2392ZM261.419 3.8293L262.063 4.5941L262.063 4.5941L261.419 3.8293ZM269.15 3.8293L268.506 4.5941L268.506 4.5941L269.15 3.8293ZM279.133 12.2392L279.778 11.4744L279.778 11.4744L279.133 12.2392ZM286.865 12.2392L286.22 11.4744L286.22 11.4744L286.865 12.2392ZM296.848 3.82931L297.492 4.59411L297.492 4.5941L296.848 3.82931ZM304.579 3.82931L305.223 3.06451L305.223 3.06451L304.579 3.82931ZM314.562 12.2392L315.206 11.4744L315.206 11.4744L314.562 12.2392ZM322.293 12.2392L322.938 13.004L322.938 13.004L322.293 12.2392ZM332.277 3.8293L332.921 4.5941L332.921 4.5941L332.277 3.8293ZM340.008 3.8293L340.652 3.0645L340.652 3.0645L340.008 3.8293ZM349.991 12.2392L349.347 13.004L349.347 13.004L349.991 12.2392ZM357.722 12.2392L358.367 13.004L358.367 13.004L357.722 12.2392ZM367.705 3.8293L367.061 3.0645L367.061 3.06451L367.705 3.8293ZM375.437 3.8293L374.792 4.5941L374.792 4.5941L375.437 3.8293ZM385.42 12.2392L384.776 13.004L384.776 13.004L385.42 12.2392ZM393.151 12.2392L392.507 11.4744L392.507 11.4744L393.151 12.2392ZM403.134 3.82931L403.779 4.5941L403.779 4.5941L403.134 3.82931ZM410.866 3.8293L410.221 4.5941L410.221 4.5941L410.866 3.8293ZM420.849 12.2392L421.493 11.4744L421.493 11.4744L420.849 12.2392ZM428.58 12.2392L427.936 11.4744L427.936 11.4744L428.58 12.2392ZM438.563 3.8293L439.208 4.5941L439.208 4.5941L438.563 3.8293ZM446.294 3.8293L445.65 4.5941L445.65 4.5941L446.294 3.8293ZM456.278 12.2392L456.922 11.4744L456.922 11.4744L456.278 12.2392ZM464.009 12.2392L464.653 13.004L464.653 13.004L464.009 12.2392ZM473.992 3.82931L474.636 4.5941L474.636 4.5941L473.992 3.82931ZM481.723 3.82931L482.368 3.06451L482.368 3.06451L481.723 3.82931ZM491.707 12.2392L491.062 13.004L491.062 13.004L491.707 12.2392ZM499.438 12.2392L500.082 13.004L500.082 13.004L499.438 12.2392ZM509.421 3.8293L508.777 3.0645L508.777 3.06451L509.421 3.8293ZM517.152 3.8293L517.797 3.0645L517.797 3.0645L517.152 3.8293ZM527.135 12.2392L527.78 11.4744L527.78 11.4744L527.135 12.2392ZM534.867 12.2392L534.222 11.4744L534.222 11.4744L534.867 12.2392ZM544.85 3.8293L544.206 3.0645L544.206 3.06451L544.85 3.8293ZM552.581 3.8293L553.225 3.0645L553.225 3.0645L552.581 3.8293ZM562.564 12.2392L561.92 13.004L561.92 13.004L562.564 12.2392ZM570.296 12.2392L570.94 13.004L570.94 13.004L570.296 12.2392ZM580.279 3.8293L579.635 3.0645L579.635 3.06451L580.279 3.8293ZM588.01 3.8293L588.654 3.0645L588.654 3.0645L588.01 3.8293ZM597.993 12.2392L597.349 13.004L597.349 13.004L597.993 12.2392ZM605.725 12.2392L606.369 13.004L606.369 13.004L605.725 12.2392ZM615.708 3.82931L615.063 3.06451L615.063 3.06451L615.708 3.82931ZM623.439 3.82931L624.083 3.06451L624.083 3.06451L623.439 3.82931ZM633.422 12.2392L632.778 13.004L632.778 13.004L633.422 12.2392ZM641.153 12.2392L641.798 13.004L641.798 13.004L641.153 12.2392ZM651.137 3.8293L650.492 3.06449L650.492 3.0645L651.137 3.8293ZM658.868 3.8293L659.512 3.06451L659.512 3.0645L658.868 3.8293ZM668.851 12.2392L668.207 13.004L668.207 13.004L668.851 12.2392ZM676.582 12.2392L677.227 13.004L677.227 13.004L676.582 12.2392ZM686.565 3.8293L685.921 3.06449L685.921 3.0645L686.565 3.8293ZM694.297 3.8293L694.941 3.06451L694.941 3.0645L694.297 3.8293ZM704.28 12.2392L703.636 13.004L703.636 13.004L704.28 12.2392ZM712.011 12.2392L712.655 13.004L712.655 13.004L712.011 12.2392ZM721.994 3.8293L721.35 3.0645L721.35 3.06451L721.994 3.8293ZM729.726 3.8293L730.37 3.0645L730.37 3.0645L729.726 3.8293ZM739.709 12.2392L740.353 11.4744L740.353 11.4744L739.709 12.2392ZM747.44 12.2392L746.796 11.4744L746.796 11.4744L747.44 12.2392ZM757.423 3.8293L758.068 4.5941L758.068 4.5941L757.423 3.8293ZM765.154 3.8293L764.51 4.59409L764.51 4.5941L765.154 3.8293ZM775.138 12.2392L775.782 11.4744L775.782 11.4744L775.138 12.2392ZM782.869 12.2392L782.225 11.4744L782.225 11.4744L782.869 12.2392ZM792.845 3.83508L792.201 3.07028L792.201 3.07029L792.845 3.83508ZM800.585 3.84184L799.939 4.60551L799.939 4.60552L800.585 3.84184ZM805.126 7.68145L805.772 6.91778L805.772 6.91778L805.126 7.68145ZM813 0V6.44188H815V0H813ZM0 1H814V-1H0V1ZM1 6.44197V0H-1V6.44197H1ZM-0.82972 7.00015C1.33666 10.2204 6.10021 11.3356 9.51924 8.44513L8.22803 6.91779C5.80297 8.96792 2.39438 8.20961 0.82972 5.88379L-0.82972 7.00015ZM9.51924 8.44513L14.061 4.60551L12.7698 3.07816L8.22803 6.91779L9.51924 8.44513ZM14.061 4.60551C15.9222 3.03212 18.6465 3.02974 20.5104 4.59987L21.799 3.07028C19.1895 0.872084 15.3754 0.875416 12.7698 3.07816L14.061 4.60551ZM20.5104 4.59987L30.4868 13.004L31.7753 11.4744L21.799 3.07028L20.5104 4.59987ZM30.4868 13.004C33.0927 15.1992 36.9007 15.1992 39.5066 13.004L38.218 11.4744C36.3567 13.0424 33.6367 13.0424 31.7753 11.4744L30.4868 13.004ZM39.5066 13.004L49.4897 4.5941L48.2012 3.06451L38.218 11.4744L39.5066 13.004ZM49.4897 4.5941C51.3511 3.02609 54.0711 3.02609 55.9325 4.5941L57.221 3.0645C54.6151 0.869284 50.8071 0.869289 48.2012 3.06451L49.4897 4.5941ZM55.9325 4.5941L65.9157 13.004L67.2042 11.4744L57.221 3.0645L55.9325 4.5941ZM65.9157 13.004C68.5215 15.1992 72.3295 15.1992 74.9354 13.004L73.6469 11.4744C71.7856 13.0424 69.0655 13.0424 67.2042 11.4744L65.9157 13.004ZM74.9354 13.004L84.9186 4.5941L83.6301 3.06451L73.6469 11.4744L74.9354 13.004ZM84.9186 4.5941C86.78 3.02609 89.5 3.02609 91.3613 4.5941L92.6499 3.06451C90.044 0.869284 86.236 0.869289 83.6301 3.06451L84.9186 4.5941ZM91.3613 4.5941L101.345 13.004L102.633 11.4744L92.6499 3.06451L91.3613 4.5941ZM101.345 13.004C103.95 15.1992 107.758 15.1992 110.364 13.004L109.076 11.4744C107.214 13.0424 104.494 13.0424 102.633 11.4744L101.345 13.004ZM110.364 13.004L120.348 4.5941L119.059 3.06451L109.076 11.4744L110.364 13.004ZM120.348 4.5941C122.209 3.02609 124.929 3.02609 126.79 4.5941L128.079 3.0645C125.473 0.869283 121.665 0.869289 119.059 3.06451L120.348 4.5941ZM126.79 4.5941L136.773 13.004L138.062 11.4744L128.079 3.0645L126.79 4.5941ZM136.773 13.004C139.379 15.1992 143.187 15.1992 145.793 13.004L144.505 11.4744C142.643 13.0424 139.923 13.0424 138.062 11.4744L136.773 13.004ZM145.793 13.004L155.776 4.5941L154.488 3.06451L144.505 11.4744L145.793 13.004ZM155.776 4.5941C157.638 3.02609 160.358 3.02609 162.219 4.5941L163.508 3.0645C160.902 0.869284 157.094 0.869288 154.488 3.06451L155.776 4.5941ZM162.219 4.5941L172.202 13.004L173.491 11.4744L163.508 3.0645L162.219 4.5941ZM172.202 13.004C174.808 15.1992 178.616 15.1992 181.222 13.004L179.934 11.4744C178.072 13.0424 175.352 13.0424 173.491 11.4744L172.202 13.004ZM181.222 13.004L191.205 4.5941L189.917 3.06451L179.934 11.4744L181.222 13.004ZM191.205 4.5941C193.067 3.02609 195.787 3.02609 197.648 4.5941L198.937 3.06451C196.331 0.869283 192.523 0.869291 189.917 3.06451L191.205 4.5941ZM197.648 4.5941L207.631 13.004L208.92 11.4744L198.937 3.06451L197.648 4.5941ZM207.631 13.004C210.237 15.1992 214.045 15.1992 216.651 13.004L215.362 11.4744C213.501 13.0424 210.781 13.0424 208.92 11.4744L207.631 13.004ZM216.651 13.004L226.634 4.5941L225.346 3.06451L215.362 11.4744L216.651 13.004ZM226.634 4.5941C228.496 3.02609 231.216 3.02609 233.077 4.5941L234.365 3.06451C231.76 0.869285 227.952 0.869289 225.346 3.06451L226.634 4.5941ZM233.077 4.5941L243.06 13.004L244.349 11.4744L234.365 3.06451L233.077 4.5941ZM243.06 13.004C245.666 15.1992 249.474 15.1992 252.08 13.004L250.791 11.4744C248.93 13.0424 246.21 13.0424 244.349 11.4744L243.06 13.004ZM252.08 13.004L262.063 4.5941L260.775 3.06451L250.791 11.4744L252.08 13.004ZM262.063 4.5941C263.924 3.02609 266.644 3.02609 268.506 4.5941L269.794 3.0645C267.188 0.869282 263.38 0.869289 260.775 3.06451L262.063 4.5941ZM268.506 4.5941L278.489 13.004L279.778 11.4744L269.794 3.0645L268.506 4.5941ZM278.489 13.004C281.095 15.1992 284.903 15.1992 287.509 13.004L286.22 11.4744C284.359 13.0424 281.639 13.0424 279.778 11.4744L278.489 13.004ZM287.509 13.004L297.492 4.59411L296.203 3.06451L286.22 11.4744L287.509 13.004ZM297.492 4.5941C299.353 3.02609 302.073 3.02609 303.935 4.59411L305.223 3.06451C302.617 0.86929 298.809 0.869286 296.203 3.06451L297.492 4.5941ZM303.935 4.5941L313.918 13.004L315.206 11.4744L305.223 3.06451L303.935 4.5941ZM313.918 13.004C316.524 15.1992 320.332 15.1992 322.938 13.004L321.649 11.4744C319.788 13.0424 317.068 13.0424 315.206 11.4744L313.918 13.004ZM322.938 13.004L332.921 4.5941L331.632 3.06451L321.649 11.4744L322.938 13.004ZM332.921 4.5941C334.782 3.02609 337.502 3.02608 339.364 4.5941L340.652 3.0645C338.046 0.869286 334.238 0.869287 331.632 3.06451L332.921 4.5941ZM339.364 4.5941L349.347 13.004L350.635 11.4744L340.652 3.0645L339.364 4.5941ZM349.347 13.004C351.953 15.1992 355.761 15.1992 358.367 13.004L357.078 11.4744C355.217 13.0424 352.497 13.0424 350.635 11.4744L349.347 13.004ZM358.367 13.004L368.35 4.5941L367.061 3.06451L357.078 11.4744L358.367 13.004ZM368.35 4.59411C370.211 3.02609 372.931 3.02609 374.792 4.5941L376.081 3.0645C373.475 0.86928 369.667 0.869292 367.061 3.0645L368.35 4.59411ZM374.792 4.5941L384.776 13.004L386.064 11.4744L376.081 3.0645L374.792 4.5941ZM384.776 13.004C387.382 15.1992 391.19 15.1992 393.795 13.004L392.507 11.4744C390.646 13.0424 387.926 13.0424 386.064 11.4744L384.776 13.004ZM393.795 13.004L403.779 4.5941L402.49 3.06451L392.507 11.4744L393.795 13.004ZM403.779 4.5941C405.64 3.02609 408.36 3.02609 410.221 4.5941L411.51 3.06451C408.904 0.869285 405.096 0.869286 402.49 3.06451L403.779 4.5941ZM410.221 4.5941L420.205 13.004L421.493 11.4744L411.51 3.06451L410.221 4.5941ZM420.205 13.004C422.81 15.1992 426.618 15.1992 429.224 13.004L427.936 11.4744C426.074 13.0424 423.354 13.0424 421.493 11.4744L420.205 13.004ZM429.224 13.004L439.208 4.5941L437.919 3.06451L427.936 11.4744L429.224 13.004ZM439.208 4.5941C441.069 3.02609 443.789 3.02609 445.65 4.5941L446.939 3.0645C444.333 0.869282 440.525 0.869289 437.919 3.06451L439.208 4.5941ZM445.65 4.5941L455.633 13.004L456.922 11.4744L446.939 3.0645L445.65 4.5941ZM455.633 13.004C458.239 15.1992 462.047 15.1992 464.653 13.004L463.365 11.4744C461.503 13.0424 458.783 13.0424 456.922 11.4744L455.633 13.004ZM464.653 13.004L474.636 4.5941L473.348 3.06451L463.365 11.4744L464.653 13.004ZM474.636 4.5941C476.498 3.02609 479.218 3.02609 481.079 4.59411L482.368 3.06451C479.762 0.86929 475.954 0.869286 473.348 3.06451L474.636 4.5941ZM481.079 4.5941L491.062 13.004L492.351 11.4744L482.368 3.06451L481.079 4.5941ZM491.062 13.004C493.668 15.1992 497.476 15.1992 500.082 13.004L498.794 11.4744C496.932 13.0424 494.212 13.0424 492.351 11.4744L491.062 13.004ZM500.082 13.004L510.065 4.5941L508.777 3.06451L498.794 11.4744L500.082 13.004ZM510.065 4.59411C511.927 3.02609 514.647 3.02609 516.508 4.5941L517.797 3.0645C515.191 0.869284 511.383 0.86929 508.777 3.0645L510.065 4.59411ZM516.508 4.5941L526.491 13.004L527.78 11.4744L517.797 3.0645L516.508 4.5941ZM526.491 13.004C529.097 15.1992 532.905 15.1992 535.511 13.004L534.222 11.4744C532.361 13.0424 529.641 13.0424 527.78 11.4744L526.491 13.004ZM535.511 13.004L545.494 4.5941L544.206 3.06451L534.222 11.4744L535.511 13.004ZM545.494 4.59411C547.356 3.02609 550.076 3.02609 551.937 4.5941L553.225 3.0645C550.62 0.869284 546.812 0.86929 544.206 3.0645L545.494 4.59411ZM551.937 4.5941L561.92 13.004L563.209 11.4744L553.225 3.0645L551.937 4.5941ZM561.92 13.004C564.526 15.1992 568.334 15.1992 570.94 13.004L569.651 11.4744C567.79 13.0424 565.07 13.0424 563.209 11.4744L561.92 13.004ZM570.94 13.004L580.923 4.5941L579.635 3.06451L569.651 11.4744L570.94 13.004ZM580.923 4.59411C582.784 3.02609 585.504 3.02608 587.366 4.5941L588.654 3.0645C586.048 0.869282 582.24 0.869288 579.635 3.0645L580.923 4.59411ZM587.366 4.59409L597.349 13.004L598.638 11.4744L588.654 3.0645L587.366 4.59409ZM597.349 13.004C599.955 15.1992 603.763 15.1992 606.369 13.004L605.08 11.4744C603.219 13.0424 600.499 13.0424 598.638 11.4744L597.349 13.004ZM606.369 13.004L616.352 4.59411L615.063 3.06451L605.08 11.4744L606.369 13.004ZM616.352 4.59411C618.213 3.02609 620.933 3.02609 622.795 4.59411L624.083 3.06451C621.477 0.86929 617.669 0.86929 615.063 3.06451L616.352 4.59411ZM622.795 4.59411L632.778 13.004L634.066 11.4744L624.083 3.06451L622.795 4.59411ZM632.778 13.004C635.384 15.1992 639.192 15.1992 641.798 13.004L640.509 11.4744C638.648 13.0424 635.928 13.0424 634.066 11.4744L632.778 13.004ZM641.798 13.004L651.781 4.59409L650.492 3.0645L640.509 11.4744L641.798 13.004ZM651.781 4.5941C653.642 3.02608 656.362 3.02609 658.224 4.5941L659.512 3.0645C656.906 0.869287 653.098 0.869282 650.492 3.06449L651.781 4.5941ZM658.224 4.5941L668.207 13.004L669.495 11.4744L659.512 3.06451L658.224 4.5941ZM668.207 13.004C670.813 15.1992 674.621 15.1992 677.227 13.004L675.938 11.4744C674.077 13.0424 671.357 13.0424 669.495 11.4744L668.207 13.004ZM677.227 13.004L687.21 4.59409L685.921 3.0645L675.938 11.4744L677.227 13.004ZM687.21 4.5941C689.071 3.02608 691.791 3.02609 693.652 4.5941L694.941 3.0645C692.335 0.869287 688.527 0.869282 685.921 3.06449L687.21 4.5941ZM693.652 4.5941L703.636 13.004L704.924 11.4744L694.941 3.06451L693.652 4.5941ZM703.636 13.004C706.242 15.1992 710.05 15.1992 712.655 13.004L711.367 11.4744C709.506 13.0424 706.786 13.0424 704.924 11.4744L703.636 13.004ZM712.655 13.004L722.639 4.5941L721.35 3.06451L711.367 11.4744L712.655 13.004ZM722.639 4.59411C724.5 3.02609 727.22 3.02608 729.081 4.5941L730.37 3.0645C727.764 0.869282 723.956 0.869288 721.35 3.0645L722.639 4.59411ZM729.081 4.5941L739.065 13.004L740.353 11.4744L730.37 3.0645L729.081 4.5941ZM739.065 13.004C741.67 15.1992 745.478 15.1992 748.084 13.004L746.796 11.4744C744.934 13.0424 742.214 13.0424 740.353 11.4744L739.065 13.004ZM748.084 13.004L758.068 4.5941L756.779 3.06451L746.796 11.4744L748.084 13.004ZM758.068 4.5941C759.929 3.02609 762.649 3.02609 764.51 4.59409L765.799 3.0645C763.193 0.869279 759.385 0.869285 756.779 3.06451L758.068 4.5941ZM764.51 4.5941L774.493 13.004L775.782 11.4744L765.799 3.0645L764.51 4.5941ZM774.493 13.004C777.099 15.1992 780.907 15.1992 783.513 13.004L782.225 11.4744C780.363 13.0424 777.643 13.0424 775.782 11.4744L774.493 13.004ZM783.513 13.004L793.49 4.59988L792.201 3.07029L782.225 11.4744L783.513 13.004ZM793.49 4.59989C795.353 3.02973 798.078 3.03212 799.939 4.60551L801.23 3.07817C798.625 0.875413 794.81 0.872094 792.201 3.07028L793.49 4.59989ZM799.939 4.60552L804.481 8.44512L805.772 6.91778L801.23 3.07817L799.939 4.60552ZM804.481 8.44512C807.9 11.3356 812.663 10.2204 814.83 7.00005L813.17 5.88372C811.606 8.20959 808.197 8.96793 805.772 6.91778L804.481 8.44512Z" fill="#D9D9D9" mask="url(#path-1-inside-1)"/>
<rect x="1" width="812" height="1" fill="white"/>
</svg>
