<?xml version="1.0" encoding="utf-8"?><svg viewBox="0 0 56 56" xmlns="http://www.w3.org/2000/svg" xmlns:xlink="http://www.w3.org/1999/xlink"><style>:root>svg{display:none}:root>svg:target{display:block}</style><svg viewBox="0 0 16 16" id="add" xmlns="http://www.w3.org/2000/svg"><path d="M8 2v12m6-6H2" stroke-width="2" stroke-linecap="round"/></svg><svg viewBox="0 0 16 17" id="add-circle" xmlns="http://www.w3.org/2000/svg"><g filter="url(#bfilter0_d)"><path fill-rule="evenodd" clip-rule="evenodd" d="M0 8a8 8 0 018-8 8.009 8.009 0 018 8A8 8 0 110 8zm7-4v3H4v2h3v3h2V9h3V7H9V4H7z"/></g><defs><filter id="bfilter0_d" x="0" y="0" filterUnits="userSpaceOnUse" color-interpolation-filters="sRGB"><feFlood flood-opacity="0" result="BackgroundImageFix"/><feColorMatrix in="SourceAlpha" values="0 0 0 0 0 0 0 0 0 0 0 0 0 0 0 0 0 0 127 0"/><feOffset dy="1"/><feColorMatrix values="0 0 0 0 0 0 0 0 0 0 0 0 0 0 0 0 0 0 0.15 0"/><feBlend in2="BackgroundImageFix" result="effect1_dropShadow"/><feBlend in="SourceGraphic" in2="effect1_dropShadow" result="shape"/></filter></defs></svg><svg viewBox="0 0 13 14" id="back" xmlns="http://www.w3.org/2000/svg"><g clip-path="url(#cclip0)"><path d="M3.25 7l-.707-.707a1 1 0 000 1.414L3.25 7zM8.23.605L2.543 6.293l1.414 1.414L9.645 2.02 8.23.605zM2.543 7.707l5.687 5.688 1.415-1.415-5.688-5.687-1.414 1.414z"/></g><defs><clipPath id="cclip0"><path transform="rotate(90 5.031 5.531)" d="M0 0h13v8.125H0z"/></clipPath></defs></svg><svg viewBox="0 0 21 20" id="back-arrow" xmlns="http://www.w3.org/2000/svg"><path d="M8.207 15.543a1 1 0 11-1.414 1.414l1.414-1.414zM1.25 10l-.707.707a1 1 0 010-1.414L1.25 10zm5.543-6.957a1 1 0 011.414 1.414L6.793 3.043zM19.375 9a1 1 0 110 2V9zM6.793 16.957l-6.25-6.25 1.414-1.414 6.25 6.25-1.414 1.414zM.543 9.293l6.25-6.25 1.414 1.414-6.25 6.25L.543 9.293zM1.25 9h18.125v2H1.25V9z"/></svg><svg viewBox="0 0 26 26" id="close" xmlns="http://www.w3.org/2000/svg"><path d="M7.697 7.697l10.606 10.606m0-10.606L7.697 18.303" stroke-width="2" stroke-linecap="round"/></svg><svg viewBox="0 0 12 13" id="collapse-arrow" xmlns="http://www.w3.org/2000/svg"><path d="M1.28 3.324a.75.75 0 00-1.06 1.06l1.06-1.06zM6 9.104l-.53.53a.75.75 0 001.06 0L6 9.104zm5.78-4.72a.75.75 0 00-1.06-1.06l1.06 1.06zm-11.56 0l5.25 5.25 1.06-1.06-5.25-5.25-1.06 1.06zm6.31 5.25l5.25-5.25-1.06-1.06-5.25 5.25 1.06 1.06z"/></svg><svg viewBox="0 0 16 17" id="dashboard" xmlns="http://www.w3.org/2000/svg"><path fill-rule="evenodd" clip-rule="evenodd" d="M14.1 12.658A11.193 11.193 0 008 10.833a11.194 11.194 0 00-6.101 1.825.333.333 0 01-.456-.08A7.996 7.996 0 018.33.007 8.074 8.074 0 0116 7.918a7.953 7.953 0 01-1.443 4.66.333.333 0 01-.455.08zM8 1.834a.5.5 0 00-.5.5v1a.5.5 0 001 0v-1a.5.5 0 00-.5-.5zM3.333 8.5h-1a.5.5 0 110-1h1a.5.5 0 110 1zM4.7 5.2a.499.499 0 00.5-.5.5.5 0 00-.147-.354l-.706-.706a.5.5 0 00-.708.707l.708.707c.093.094.22.146.353.146zm3.246 4.43a1.577 1.577 0 01-1.125-2.7c.504-.504 4.695-3.087 5.17-3.38a.333.333 0 01.46.458c-.294.476-2.877 4.667-3.381 5.17-.3.294-.704.457-1.124.453zM12.166 8a.5.5 0 00.5.5h1a.5.5 0 000-1h-1a.5.5 0 00-.5.5z"/><path d="M8 11.834a10.034 10.034 0 00-5.354 1.533.339.339 0 00-.05.53 7.983 7.983 0 0010.808 0 .338.338 0 00-.05-.529A10.03 10.03 0 008 11.834z"/></svg><svg viewBox="0 0 16 12" id="envelope-letter" xmlns="http://www.w3.org/2000/svg"><path fill-rule="evenodd" clip-rule="evenodd" d="M1.333.667h13.334C15.403.667 16 1.264 16 2v8c0 .736-.597 1.333-1.333 1.333H1.333A1.333 1.333 0 010 10V2C0 1.264.597.667 1.333.667zm12.667 5V3a.333.333 0 00-.333-.333H11a.333.333 0 00-.333.333v2.667c0 .184.149.333.333.333h2.667c.184 0 .333-.15.333-.333zM3 7.163h5.333a.503.503 0 110 1.007H3a.503.503 0 010-1.007zM3 4.83a.503.503 0 000 1.007h1.333a.503.503 0 100-1.007H3z"/></svg><svg viewBox="0 0 17 18" id="lock-open" xmlns="http://www.w3.org/2000/svg"><path fill-rule="evenodd" clip-rule="evenodd" d="M13.281 7.23h.532c.782 0 1.416.633 1.416 1.416v7.437c0 .783-.634 1.417-1.416 1.417H3.188a1.417 1.417 0 01-1.417-1.417V8.646c0-.783.634-1.417 1.417-1.417h7.968a.354.354 0 00.355-.354V5.281a3.011 3.011 0 00-5.895-.865.885.885 0 01-1.697-.508 4.782 4.782 0 019.362 1.373V7.23zM8.25 10.077a1.417 1.417 0 00-.458 2.622v1.613a.708.708 0 001.416 0V12.7a1.417 1.417 0 00-.958-2.622z"/></svg><svg viewBox="0 0 12 14" id="lock-password" xmlns="http://www.w3.org/2000/svg"><path fill-rule="evenodd" clip-rule="evenodd" d="M10.063 5.908h-.407v-1.49a3.656 3.656 0 00-7.312 0v1.49h-.407c-.598 0-1.083.485-1.083 1.083v5.687c0 .599.485 1.084 1.083 1.084h8.126c.598 0 1.083-.485 1.083-1.084V6.991c0-.598-.485-1.083-1.084-1.083zm-2.167 4.604a.542.542 0 110-1.084.542.542 0 010 1.084zm0 1.896a.542.542 0 100-1.084.542.542 0 000 1.084zm0-3.792a.542.542 0 110-1.083.542.542 0 010 1.083zM5.458 9.97a.542.542 0 101.084 0 .542.542 0 00-1.084 0zm1.084 1.896a.542.542 0 11-1.084 0 .542.542 0 011.084 0zM5.458 8.074a.542.542 0 101.084 0 .542.542 0 00-1.084 0zm-1.354 2.438a.542.542 0 110-1.084.542.542 0 010 1.084zm0 1.896a.542.542 0 100-1.084.542.542 0 000 1.084zm0-3.792a.542.542 0 110-1.083.542.542 0 010 1.083zM6 2.116a2.302 2.302 0 00-2.302 2.302v1.219c0 .15.121.27.27.27h4.063a.27.27 0 00.271-.27V4.418A2.302 2.302 0 006 2.116z"/></svg><svg viewBox="0 0 13 14" id="logout" xmlns="http://www.w3.org/2000/svg"><path d="M7.313 9.98c-.3 0-.542.242-.542.54v1.355a.27.27 0 01-.271.27H1.354a.27.27 0 01-.27-.27v-9.75c0-.15.12-.27.27-.27H6.5c.15 0 .27.12.27.27v1.354a.542.542 0 001.084 0V1.854c0-.598-.485-1.083-1.083-1.083H1.083C.485.77 0 1.256 0 1.854v10.292c0 .598.485 1.083 1.083 1.083h5.688c.598 0 1.083-.485 1.083-1.083V10.52c0-.3-.242-.542-.542-.542z"/><path d="M12.759 6.82l-3.25-2.166a.542.542 0 00-.842.45v1.354H3.792a.813.813 0 100 1.625h4.875v1.355a.55.55 0 00.541.541.542.542 0 00.301-.09l3.25-2.167a.542.542 0 000-.902z"/></svg><svg viewBox="0 0 39 39" id="message" xmlns="http://www.w3.org/2000/svg"><g clip-path="url(#lclip0)"><path d="M1.342 16.915a.799.799 0 000 1.476l12.971 5.102L37.06 2.1 1.342 16.915zm13.586 8.115v10.697c0 .43.369.799.8.799.245 0 .552-.123.675-.369l5.164-8.852 9.406 5.163c.246.123.492.123.676 0a.782.782 0 00.43-.553L38.35 3.022 14.928 25.03z"/></g><defs><clipPath id="lclip0"><path transform="translate(.85 .85)" d="M0 0h37.5v37.5H0z"/></clipPath></defs></svg><svg viewBox="0 0 24 25" id="notifications" xmlns="http://www.w3.org/2000/svg"><g filter="url(#mfilter0_d)"><path d="M22.12 18.51c-1.223 0-2.18-1.047-2.18-2.368v-4.988c0-4.404-1.966-7.3-4.888-8.622C14.68 1.046 13.457 0 12.022 0c-1.434 0-2.657 1.046-2.976 2.532C6.07 3.853 4.104 6.75 4.104 11.154v4.988c0 1.321-1.01 2.367-2.179 2.367-.266 0-.425.22-.425.496 0 .275.212.495.425.495h20.142c.265 0 .425-.22.425-.495.053-.276-.16-.496-.372-.496zM14.6 21H9.45c-.25 0-.45.167-.45.375C9 22.833 10.35 24 12 24s3-1.167 3-2.625c0-.208-.2-.375-.4-.375z"/></g><defs><filter id="mfilter0_d" x="0" y="0" filterUnits="userSpaceOnUse" color-interpolation-filters="sRGB"><feFlood flood-opacity="0" result="BackgroundImageFix"/><feColorMatrix in="SourceAlpha" values="0 0 0 0 0 0 0 0 0 0 0 0 0 0 0 0 0 0 127 0"/><feOffset dy="1"/><feColorMatrix values="0 0 0 0 0 0 0 0 0 0 0 0 0 0 0 0 0 0 0.15 0"/><feBlend in2="BackgroundImageFix" result="effect1_dropShadow"/><feBlend in="SourceGraphic" in2="effect1_dropShadow" result="shape"/></filter></defs></svg><svg viewBox="0 0 56 56" id="notifications-blue" xmlns="http://www.w3.org/2000/svg"><path d="M51.612 43.188c-2.852 0-5.084-2.44-5.084-5.523v-11.64c0-10.275-4.587-17.034-11.407-20.117C34.252 2.44 31.4 0 28.052 0c-3.348 0-6.2 2.44-6.944 5.908C14.164 8.991 9.576 15.75 9.576 26.025v11.64c0 3.083-2.356 5.523-5.084 5.523-.62 0-.992.514-.992 1.156 0 .642.496 1.156.992 1.156h46.997c.62 0 .992-.514.992-1.156.124-.642-.373-1.156-.869-1.156zM34.066 49H22.05c-.584 0-1.05.389-1.05.875C21 53.278 24.15 56 28 56s7-2.722 7-6.125c0-.486-.467-.875-.934-.875z"/></svg><svg viewBox="0 0 16 16" id="phone-circle" xmlns="http://www.w3.org/2000/svg"><path d="M8 .005a7.995 7.995 0 100 15.99c2.984 0 4.091-1.162 4.495-2.138a2.678 2.678 0 00-.12-2.4c.44-.489.435-1.234-.012-1.717l-.954-.953a1.288 1.288 0 00-1.814.066l-.141.14A18.773 18.773 0 017 6.543l.14-.14c.52-.482.55-1.293.071-1.815l-.953-.955a1.287 1.287 0 00-1.815.072l-.582.581a1.81 1.81 0 00-.32 2.216 19.181 19.181 0 005.954 5.954c.263.164.566.25.875.247.348-.003.687-.104.981-.289.076.386.01.786-.186 1.127-.439.734-1.533 1.12-3.165 1.12a6.66 6.66 0 115.497-2.897.667.667 0 001.099.755A7.996 7.996 0 008 .005z"/></svg><svg viewBox="0 0 8 8" id="selected" xmlns="http://www.w3.org/2000/svg"><path d="M1.757 3.346A1 1 0 00.243 4.654l1.514-1.308zM3.16 6.5l-.757.654a1 1 0 001.55-.045L3.16 6.5zm4.633-4.39A1 1 0 006.207.89l1.586 1.22zM.243 4.653l2.16 2.5 1.514-1.308-2.16-2.5L.243 4.654zm3.71 2.455l3.84-5L6.207.891l-3.84 5 1.586 1.218z"/></svg><svg viewBox="0 0 20 20" id="selected-lg" xmlns="http://www.w3.org/2000/svg"><path d="M3.257 9.346a1 1 0 00-1.514 1.308l1.514-1.308zM7.9 16.25l-.757.654a1 1 0 001.55-.045L7.9 16.25zM18.293 4.36a1 1 0 00-1.586-1.22l1.586 1.22zm-16.55 6.294l5.4 6.25 1.514-1.308-5.4-6.25-1.514 1.308zm6.95 6.205l9.6-12.5-1.586-1.218-9.6 12.5 1.586 1.218z"/></svg><svg viewBox="0 0 24 25" id="user" xmlns="http://www.w3.org/2000/svg"><g filter="url(#rfilter0_d)"><path d="M12 11.75a5.5 5.5 0 100-11 5.5 5.5 0 000 11zM12 13.25a9.511 9.511 0 00-9.5 9.5.5.5 0 00.5.5h18a.5.5 0 00.5-.5 9.511 9.511 0 00-9.5-9.5z"/></g><defs><filter id="rfilter0_d" x="0" y="0" filterUnits="userSpaceOnUse" color-interpolation-filters="sRGB"><feFlood flood-opacity="0" result="BackgroundImageFix"/><feColorMatrix in="SourceAlpha" values="0 0 0 0 0 0 0 0 0 0 0 0 0 0 0 0 0 0 127 0"/><feOffset dy="1"/><feColorMatrix values="0 0 0 0 0 0 0 0 0 0 0 0 0 0 0 0 0 0 0.15 0"/><feBlend in2="BackgroundImageFix" result="effect1_dropShadow"/><feBlend in="SourceGraphic" in2="effect1_dropShadow" result="shape"/></filter></defs></svg><svg viewBox="0 0 24 24" id="user-blue" xmlns="http://www.w3.org/2000/svg"><path d="M12 11.75a5.5 5.5 0 100-11 5.5 5.5 0 000 11zM12 13.25a9.511 9.511 0 00-9.5 9.5.5.5 0 00.5.5h18a.5.5 0 00.5-.5 9.511 9.511 0 00-9.5-9.5z"/></svg></svg>