<?xml version="1.0" encoding="utf-8"?><!DOCTYPE svg PUBLIC "-//W3C//DTD SVG 1.1//EN" "http://www.w3.org/Graphics/SVG/1.1/DTD/svg11.dtd"><svg viewBox="0 0 348.333 348.334" xmlns="http://www.w3.org/2000/svg" xmlns:xlink="http://www.w3.org/1999/xlink"><style>:root>svg{display:none}:root>svg:target{display:block}</style><svg viewBox="0 0 13 14" id="back" xmlns="http://www.w3.org/2000/svg"><g clip-path="url(#aclip0)"><path d="M3.25 7l-.707-.707a1 1 0 000 1.414L3.25 7zM8.23.605L2.543 6.293l1.414 1.414L9.645 2.02 8.23.605zM2.543 7.707l5.687 5.688 1.415-1.415-5.688-5.687-1.414 1.414z"/></g><defs><clipPath id="aclip0"><path transform="rotate(90 5.031 5.531)" d="M0 0h13v8.125H0z"/></clipPath></defs></svg><svg viewBox="0 0 348.333 348.334" id="close" xmlns="http://www.w3.org/2000/svg"><path d="M336.559 68.611L231.016 174.165l105.543 105.549c15.699 15.705 15.699 41.145 0 56.85-7.844 7.844-18.128 11.769-28.407 11.769-10.296 0-20.581-3.919-28.419-11.769L174.167 231.003 68.609 336.563c-7.843 7.844-18.128 11.769-28.416 11.769-10.285 0-20.563-3.919-28.413-11.769-15.699-15.698-15.699-41.139 0-56.85l105.54-105.549L11.774 68.611c-15.699-15.699-15.699-41.145 0-56.844 15.696-15.687 41.127-15.687 56.829 0l105.563 105.554L279.721 11.767c15.705-15.687 41.139-15.687 56.832 0 15.705 15.699 15.705 41.145.006 56.844z"/></svg><svg viewBox="0 0 17 18" id="lock-open" xmlns="http://www.w3.org/2000/svg"><path fill-rule="evenodd" clip-rule="evenodd" d="M13.281 7.23h.532c.782 0 1.416.633 1.416 1.416v7.437c0 .783-.634 1.417-1.416 1.417H3.188a1.417 1.417 0 01-1.417-1.417V8.646c0-.783.634-1.417 1.417-1.417h7.968a.354.354 0 00.355-.354V5.281a3.011 3.011 0 00-5.895-.865.885.885 0 01-1.697-.508 4.782 4.782 0 019.362 1.373V7.23zM8.25 10.077a1.417 1.417 0 00-.458 2.622v1.613a.708.708 0 001.416 0V12.7a1.417 1.417 0 00-.958-2.622z"/></svg><svg viewBox="0 0 39 39" id="message" xmlns="http://www.w3.org/2000/svg"><g clip-path="url(#dclip0)"><path d="M1.342 16.916a.799.799 0 000 1.475l12.971 5.103L37.06 2.1 1.342 16.916zm13.586 8.114v10.697c0 .43.369.8.8.8.245 0 .552-.124.675-.37l5.164-8.852 9.406 5.164c.246.123.492.123.676 0a.782.782 0 00.43-.553L38.35 3.022 14.928 25.03z"/></g><defs><clipPath id="dclip0"><path transform="translate(.85 .85)" d="M0 0h37.5v37.5H0z"/></clipPath></defs></svg><svg viewBox="0 0 8 8" id="selected" xmlns="http://www.w3.org/2000/svg"><path d="M1.757 3.346A1 1 0 00.243 4.654l1.514-1.308zM3.16 6.5l-.757.654a1 1 0 001.55-.045L3.16 6.5zm4.633-4.39A1 1 0 006.207.89l1.586 1.22zM.243 4.653l2.16 2.5 1.514-1.308-2.16-2.5L.243 4.654zm3.71 2.455l3.84-5L6.207.891l-3.84 5 1.586 1.218z"/></svg></svg>