<?xml version="1.0" encoding="utf-8"?><!DOCTYPE svg PUBLIC "-//W3C//DTD SVG 1.1//EN" "http://www.w3.org/Graphics/SVG/1.1/DTD/svg11.dtd"><svg viewBox="0 0 348.333 348.334" xmlns="http://www.w3.org/2000/svg" xmlns:xlink="http://www.w3.org/1999/xlink"><style>:root>svg{display:none}:root>svg:target{display:block}</style><svg viewBox="0 0 16 16" id="add" xmlns="http://www.w3.org/2000/svg"><path d="M8 2v12m6-6H2" stroke-width="2" stroke-linecap="round"/></svg><svg viewBox="0 0 13 14" id="back" xmlns="http://www.w3.org/2000/svg"><g clip-path="url(#bclip0)"><path d="M3.25 7l-.707-.707a1 1 0 000 1.414L3.25 7zM8.23.605L2.543 6.293l1.414 1.414L9.645 2.02 8.23.605zM2.543 7.707l5.687 5.688 1.415-1.415-5.688-5.687-1.414 1.414z"/></g><defs><clipPath id="bclip0"><path transform="rotate(90 5.031 5.531)" d="M0 0h13v8.125H0z"/></clipPath></defs></svg><svg viewBox="0 0 348.333 348.334" id="close" xmlns="http://www.w3.org/2000/svg"><path d="M336.559 68.611L231.016 174.165l105.543 105.549c15.699 15.705 15.699 41.145 0 56.85-7.844 7.844-18.128 11.769-28.407 11.769-10.296 0-20.581-3.919-28.419-11.769L174.167 231.003 68.609 336.563c-7.843 7.844-18.128 11.769-28.416 11.769-10.285 0-20.563-3.919-28.413-11.769-15.699-15.698-15.699-41.139 0-56.85l105.54-105.549L11.774 68.611c-15.699-15.699-15.699-41.145 0-56.844 15.696-15.687 41.127-15.687 56.829 0l105.563 105.554L279.721 11.767c15.705-15.687 41.139-15.687 56.832 0 15.705 15.699 15.705 41.145.006 56.844z"/></svg><svg viewBox="0 0 16 17" id="dashboard" xmlns="http://www.w3.org/2000/svg"><path fill-rule="evenodd" clip-rule="evenodd" d="M14.1 12.658A11.193 11.193 0 008 10.833a11.194 11.194 0 00-6.101 1.825.333.333 0 01-.456-.08A7.996 7.996 0 018.33.007 8.074 8.074 0 0116 7.918a7.953 7.953 0 01-1.443 4.66.333.333 0 01-.455.08zM8 1.834a.5.5 0 00-.5.5v1a.5.5 0 001 0v-1a.5.5 0 00-.5-.5zM3.333 8.5h-1a.5.5 0 110-1h1a.5.5 0 110 1zM4.7 5.2a.499.499 0 00.5-.5.5.5 0 00-.147-.354l-.706-.706a.5.5 0 00-.708.707l.708.707c.093.094.22.146.353.146zm3.246 4.43a1.577 1.577 0 01-1.125-2.7c.504-.504 4.695-3.087 5.17-3.38a.333.333 0 01.46.458c-.294.476-2.877 4.667-3.381 5.17-.3.294-.704.457-1.124.453zM12.166 8a.5.5 0 00.5.5h1a.5.5 0 000-1h-1a.5.5 0 00-.5.5z"/><path d="M8 11.834a10.034 10.034 0 00-5.354 1.533.339.339 0 00-.05.53 7.983 7.983 0 0010.808 0 .338.338 0 00-.05-.529A10.03 10.03 0 008 11.834z"/></svg><svg viewBox="0 0 16 12" id="envelope-letter" xmlns="http://www.w3.org/2000/svg"><path fill-rule="evenodd" clip-rule="evenodd" d="M1.333.667h13.334C15.403.667 16 1.264 16 2v8c0 .736-.597 1.333-1.333 1.333H1.333A1.333 1.333 0 010 10V2C0 1.264.597.667 1.333.667zm12.667 5V3a.333.333 0 00-.333-.333H11a.333.333 0 00-.333.333v2.667c0 .184.149.333.333.333h2.667c.184 0 .333-.15.333-.333zM3 7.163h5.333a.503.503 0 110 1.007H3a.503.503 0 010-1.007zM3 4.83a.503.503 0 000 1.007h1.333a.503.503 0 100-1.007H3z"/></svg><svg viewBox="0 0 17 18" id="lock-open" xmlns="http://www.w3.org/2000/svg"><path fill-rule="evenodd" clip-rule="evenodd" d="M13.281 7.23h.532c.782 0 1.416.633 1.416 1.416v7.437c0 .783-.634 1.417-1.416 1.417H3.188a1.417 1.417 0 01-1.417-1.417V8.646c0-.783.634-1.417 1.417-1.417h7.968a.354.354 0 00.355-.354V5.281a3.011 3.011 0 00-5.895-.865.885.885 0 01-1.697-.508 4.782 4.782 0 019.362 1.373V7.23zM8.25 10.077a1.417 1.417 0 00-.458 2.622v1.613a.708.708 0 001.416 0V12.7a1.417 1.417 0 00-.958-2.622z"/></svg><svg viewBox="0 0 39 39" id="message" xmlns="http://www.w3.org/2000/svg"><g clip-path="url(#gclip0)"><path d="M1.342 16.915a.799.799 0 000 1.476l12.971 5.102L37.06 2.1 1.342 16.915zm13.586 8.115v10.697c0 .43.369.799.8.799.245 0 .552-.123.675-.369l5.164-8.852 9.406 5.163c.246.123.492.123.676 0a.782.782 0 00.43-.553L38.35 3.022 14.928 25.03z"/></g><defs><clipPath id="gclip0"><path transform="translate(.85 .85)" d="M0 0h37.5v37.5H0z"/></clipPath></defs></svg><svg viewBox="0 0 24 25" id="notifications" xmlns="http://www.w3.org/2000/svg"><g filter="url(#hfilter0_d)"><path d="M22.12 18.51c-1.223 0-2.18-1.047-2.18-2.368v-4.988c0-4.404-1.966-7.3-4.888-8.622C14.68 1.046 13.457 0 12.022 0c-1.434 0-2.657 1.046-2.976 2.532C6.07 3.853 4.104 6.75 4.104 11.154v4.988c0 1.321-1.01 2.367-2.179 2.367-.266 0-.425.22-.425.496 0 .275.212.495.425.495h20.142c.265 0 .425-.22.425-.495.053-.276-.16-.496-.372-.496zM14.6 21H9.45c-.25 0-.45.167-.45.375C9 22.833 10.35 24 12 24s3-1.167 3-2.625c0-.208-.2-.375-.4-.375z"/></g><defs><filter id="hfilter0_d" x="0" y="0" filterUnits="userSpaceOnUse" color-interpolation-filters="sRGB"><feFlood flood-opacity="0" result="BackgroundImageFix"/><feColorMatrix in="SourceAlpha" values="0 0 0 0 0 0 0 0 0 0 0 0 0 0 0 0 0 0 127 0"/><feOffset dy="1"/><feColorMatrix values="0 0 0 0 0 0 0 0 0 0 0 0 0 0 0 0 0 0 0.15 0"/><feBlend in2="BackgroundImageFix" result="effect1_dropShadow"/><feBlend in="SourceGraphic" in2="effect1_dropShadow" result="shape"/></filter></defs></svg><svg viewBox="0 0 16 16" id="phone-circle" xmlns="http://www.w3.org/2000/svg"><path d="M8 .005a7.995 7.995 0 100 15.99c2.984 0 4.091-1.162 4.495-2.138a2.678 2.678 0 00-.12-2.4c.44-.489.435-1.234-.012-1.717l-.954-.953a1.288 1.288 0 00-1.814.066l-.141.14A18.773 18.773 0 017 6.543l.14-.14c.52-.482.55-1.293.071-1.815l-.953-.955a1.287 1.287 0 00-1.815.072l-.582.581a1.81 1.81 0 00-.32 2.216 19.181 19.181 0 005.954 5.954c.263.164.566.25.875.247.348-.003.687-.104.981-.289.076.386.01.786-.186 1.127-.439.734-1.533 1.12-3.165 1.12a6.66 6.66 0 115.497-2.897.667.667 0 001.099.755A7.996 7.996 0 008 .005z"/></svg><svg viewBox="0 0 8 8" id="selected" xmlns="http://www.w3.org/2000/svg"><path d="M1.757 3.346A1 1 0 00.243 4.654l1.514-1.308zM3.16 6.5l-.757.654a1 1 0 001.55-.045L3.16 6.5zm4.633-4.39A1 1 0 006.207.89l1.586 1.22zM.243 4.653l2.16 2.5 1.514-1.308-2.16-2.5L.243 4.654zm3.71 2.455l3.84-5L6.207.891l-3.84 5 1.586 1.218z"/></svg><svg viewBox="0 0 24 25" id="user" xmlns="http://www.w3.org/2000/svg"><g filter="url(#kfilter0_d)"><path d="M12 11.75a5.5 5.5 0 100-11 5.5 5.5 0 000 11zM12 13.25a9.511 9.511 0 00-9.5 9.5.5.5 0 00.5.5h18a.5.5 0 00.5-.5 9.511 9.511 0 00-9.5-9.5z"/></g><defs><filter id="kfilter0_d" x="0" y="0" filterUnits="userSpaceOnUse" color-interpolation-filters="sRGB"><feFlood flood-opacity="0" result="BackgroundImageFix"/><feColorMatrix in="SourceAlpha" values="0 0 0 0 0 0 0 0 0 0 0 0 0 0 0 0 0 0 127 0"/><feOffset dy="1"/><feColorMatrix values="0 0 0 0 0 0 0 0 0 0 0 0 0 0 0 0 0 0 0.15 0"/><feBlend in2="BackgroundImageFix" result="effect1_dropShadow"/><feBlend in="SourceGraphic" in2="effect1_dropShadow" result="shape"/></filter></defs></svg></svg>