<svg width="110" height="24" viewBox="0 0 110 24" fill="none" xmlns="http://www.w3.org/2000/svg">
<path d="M52.6957 4.53659L52.2848 7.02439H42.4245V12.8618H51.0344V15.3496H42.4245V23.7236H39.4235V4.53659H52.6957Z" fill="#ADADAD"/>
<path d="M34.8149 21.2358L35.2436 23.7236H21.2033V4.53659H35.0292L34.6184 7.02439H24.2043V12.6667H33.6359V15.1545H24.2043V21.2358H34.8149Z" fill="#ADADAD"/>
<path d="M18.2202 4.53659L10.7178 23.7236H7.50244L0 4.53659H3.23319L9.16369 20H9.34232L15.3085 4.53659H18.2202Z" fill="#ADADAD"/>
<path d="M69.8084 15.3821C69.8084 17.4634 69.2725 19.0406 68.1829 20.0813C67.6827 20.5691 67.0932 20.9268 66.3787 21.1545C65.6642 21.3821 64.9139 21.4959 64.0922 21.4959C63.2527 21.4959 62.4846 21.3821 61.7879 21.1382C59.5193 20.3902 58.3761 18.4715 58.3761 15.3821V12.8618C58.3761 10.7805 58.912 9.20325 60.0016 8.1626C60.5018 7.6748 61.0913 7.31707 61.7879 7.08943C62.4846 6.86179 63.2527 6.73171 64.0922 6.73171C64.9139 6.73171 65.682 6.84553 66.3966 7.08943C68.6652 7.8374 69.8084 9.7561 69.8084 12.8455V15.3821ZM72.8094 12.8618C72.8094 10.065 71.9519 7.90244 70.255 6.37398C68.6652 4.95935 66.5931 4.2439 64.0744 4.2439C61.5557 4.2439 59.5015 4.95935 57.8938 6.37398C56.1968 7.90244 55.3394 10.065 55.3394 12.8618V15.3821C55.3394 18.1789 56.1968 20.3415 57.8938 21.8699C59.4836 23.2846 61.5557 24 64.0744 24C66.5931 24 68.6473 23.2846 70.255 21.8699C71.9519 20.3415 72.8094 18.1789 72.8094 15.3821V12.8618ZM59.8587 2.74797H62.6275V0H59.8587V2.74797ZM68.4151 2.74797V0H65.6106V2.74797H68.4151ZM90.6366 23.7236L90.2079 21.2358H80.5261V4.53659H77.5073V23.7236H90.6366ZM93.9769 21.252C93.9769 22.748 93.9769 23.7236 93.9769 23.7236H101.283C103.819 23.7236 105.874 23.0081 107.428 21.5935C109.143 20.065 110 17.9024 110 15.1057V13.1545C110 10.3577 109.143 8.19512 107.428 6.66667C105.874 5.25203 103.819 4.53659 101.283 4.53659H93.9769V7.02439C94.9773 7.02439 96.9958 7.02439 96.9958 7.02439H101.301C102.122 7.02439 102.873 7.13821 103.569 7.38211C105.856 8.13008 107.017 10.0488 107.017 13.1382V15.0894C107.017 16.1951 106.874 17.122 106.588 17.8862C105.766 20.0976 104.016 21.2195 101.301 21.2195H96.9958C96.9958 21.2195 94.9951 21.2358 93.9769 21.252Z" fill="#ADADAD"/>
</svg>
