<svg width="78" height="18" viewBox="0 0 78 18" fill="none" xmlns="http://www.w3.org/2000/svg">
<path d="M37.366 3.40244L37.0747 5.26829H30.0828V9.64634H36.188V11.5122H30.0828V17.7927H27.9549V3.40244H37.366Z" fill="white"/>
<path d="M24.6869 15.9268L24.9909 17.7927H15.0351V3.40244H24.8389L24.5476 5.26829H17.163V9.5H23.8509V11.3659H17.163V15.9268H24.6869Z" fill="white"/>
<path d="M12.9198 3.40244L7.59987 17.7927H5.31991L0 3.40244H2.29263L6.49789 15H6.62455L10.8551 3.40244H12.9198Z" fill="white"/>
<path d="M49.5005 11.5366C49.5005 13.0976 49.1205 14.2805 48.3478 15.061C47.9932 15.4268 47.5752 15.6951 47.0685 15.8659C46.5619 16.0366 46.0299 16.122 45.4472 16.122C44.8519 16.122 44.3072 16.0366 43.8133 15.8537C42.2046 15.2927 41.394 13.8537 41.394 11.5366V9.64634C41.394 8.08537 41.774 6.90244 42.5466 6.12195C42.9013 5.7561 43.3193 5.4878 43.8133 5.31707C44.3072 5.14634 44.8519 5.04878 45.4472 5.04878C46.0299 5.04878 46.5745 5.13415 47.0812 5.31707C48.6898 5.87805 49.5005 7.31707 49.5005 9.63415V11.5366ZM51.6285 9.64634C51.6285 7.54878 51.0205 5.92683 49.8171 4.78049C48.6898 3.71951 47.2205 3.18293 45.4346 3.18293C43.6486 3.18293 42.1919 3.71951 41.052 4.78049C39.8487 5.92683 39.2407 7.54878 39.2407 9.64634V11.5366C39.2407 13.6341 39.8487 15.2561 41.052 16.4024C42.1793 17.4634 43.6486 18 45.4346 18C47.2205 18 48.6772 17.4634 49.8171 16.4024C51.0205 15.2561 51.6285 13.6341 51.6285 11.5366V9.64634ZM42.4453 2.06098H44.4086V0H42.4453V2.06098ZM48.5125 2.06098V0H46.5239V2.06098H48.5125ZM64.2696 17.7927L63.9656 15.9268H57.1004V3.40244H54.9597V17.7927H64.2696ZM66.6382 15.939C66.6382 17.061 66.6382 17.7927 66.6382 17.7927H71.8188C73.6174 17.7927 75.0741 17.2561 76.176 16.1951C77.392 15.0488 78 13.4268 78 11.3293V9.86585C78 7.76829 77.392 6.14634 76.176 5C75.0741 3.93902 73.6174 3.40244 71.8188 3.40244H66.6382V5.26829C67.3475 5.26829 68.7788 5.26829 68.7788 5.26829H71.8314C72.4141 5.26829 72.9461 5.35366 73.4401 5.53659C75.0614 6.09756 75.8847 7.53659 75.8847 9.85366V11.3171C75.8847 12.1463 75.7834 12.8415 75.5807 13.4146C74.9981 15.0732 73.7567 15.9146 71.8314 15.9146H68.7788C68.7788 15.9146 67.3602 15.9268 66.6382 15.939Z" fill="white"/>
</svg>
