<svg width="13" height="13" fill="none" xmlns="http://www.w3.org/2000/svg"><path fill-rule="evenodd" clip-rule="evenodd" d="M1.354 3.25h9.209a1.354 1.354 0 001.354-1.354v-.541A1.354 1.354 0 0010.563 0H1.354C.606 0 0 .607 0 1.355v.541C0 2.644.606 3.25 1.354 3.25zm.615-1.625a.604.604 0 111.208 0 .604.604 0 01-1.208 0zm2.697-.603a.604.604 0 100 1.207.604.604 0 000-1.207zM9.48 5.146a4.31 4.31 0 012.045.514.267.267 0 00.392-.238v-.275a1.354 1.354 0 00-1.354-1.355H1.354C.606 3.792 0 4.398 0 5.146v.542c0 .748.606 1.354 1.354 1.354h4.409a.265.265 0 00.216-.112 4.329 4.329 0 013.5-1.784zm-4.21.271a.604.604 0 11-1.208 0 .604.604 0 011.208 0zm-2.697.604a.604.604 0 100-1.208.604.604 0 000 1.208zm2.433 4.813H1.354A1.354 1.354 0 010 9.48v-.542c0-.748.606-1.354 1.354-1.354h3.824a.27.27 0 01.251.366 4.262 4.262 0 00-.162 2.538.273.273 0 01-.26.346zM2.341 8.651a.604.604 0 10.463 1.115.604.604 0 00-.463-1.115z" fill="#6F6F6F"/><path fill-rule="evenodd" clip-rule="evenodd" d="M9.48 13a3.52 3.52 0 110-7.041 3.52 3.52 0 010 7.042zm-.509-2.906l-.704-.704a.406.406 0 00-.574.575l.813.812a.8.8 0 00.571.24h.06a.809.809 0 00.597-.325l1.573-2.098a.406.406 0 10-.65-.488l-1.48 1.973a.137.137 0 01-.207.015z" fill="#6F6F6F"/></svg>