<svg width="13" height="13" fill="none" xmlns="http://www.w3.org/2000/svg"><path fill-rule="evenodd" clip-rule="evenodd" d="M10.563 4.063H2.438a.27.27 0 00-.271.27v7.584c0 .598.485 1.083 1.083 1.083h6.5c.598 0 1.083-.485 1.083-1.083V4.333a.27.27 0 00-.27-.27zm-5.01 7.041a.406.406 0 01-.813 0V6.23a.406.406 0 01.812 0v4.875zm2.301.406a.406.406 0 00.407-.406V6.23a.406.406 0 00-.813 0v4.875c0 .225.182.406.406.406zm1.49-9.343h2.573a.542.542 0 110 1.083H1.083a.542.542 0 010-1.083h2.573a.135.135 0 00.136-.136v-.677C3.792.606 4.398 0 5.146 0h2.708c.748 0 1.354.606 1.354 1.354v.677c0 .075.061.136.136.136zm-4.469-.813v.677c0 .075.06.136.135.136h2.98a.136.136 0 00.135-.136v-.677a.27.27 0 00-.27-.27h-2.71a.27.27 0 00-.27.27z" fill="#6F6F6F"/></svg>