<svg width="22" height="22" fill="none" xmlns="http://www.w3.org/2000/svg"><path d="M9.295 0H.605A.61.61 0 000 .605V8.69c0 .385.275.66.605.66H9.24a.61.61 0 00.605-.605V.605C9.9.275 9.625 0 9.295 0zm12.1 0h-8.69a.61.61 0 00-.605.605V8.69c0 .33.275.605.605.605h8.635a.61.61 0 00.605-.605V.605C22 .275 21.725 0 21.395 0zm-12.1 11.55H.605a.61.61 0 00-.605.605v8.085c0 .385.275.66.605.66H9.24a.61.61 0 00.605-.605v-8.14c.055-.33-.22-.605-.55-.605zm12.1 0h-8.69a.61.61 0 00-.605.605v8.085c0 .33.275.605.605.605h8.635a.61.61 0 00.605-.605v-8.085c.055-.33-.22-.605-.55-.605z" fill="#6F6F6F"/></svg>