<svg width="14" height="13" fill="none" xmlns="http://www.w3.org/2000/svg"><path fill-rule="evenodd" clip-rule="evenodd" d="M11.72 2.746l-1.55-1.642a.986.986 0 00-.704-.291H5.14a.994.994 0 00-.993.992v.903h-.903a.994.994 0 00-.993.993v7.764a.994.994 0 00.993.993h5.869a.994.994 0 00.993-.992v-.903h.903A.994.994 0 0012 9.57V3.44a.975.975 0 00-.28-.694zm-2.969 8.629H3.606a.27.27 0 01-.271-.27V4.062a.27.27 0 01.27-.271h.407c.075 0 .135.06.135.135V9.57c0 .548.445.992.993.992h3.747c.075 0 .135.061.135.136v.406a.27.27 0 01-.27.271zm-3.25-1.896h5.146a.27.27 0 00.271-.27V3.58a.27.27 0 00-.074-.185L9.509 1.98a.27.27 0 00-.197-.085h-3.81a.27.27 0 00-.271.27v7.042c0 .15.12.271.27.271z" fill="#6F6F6F"/></svg>