<svg width="16" height="17" fill="none" xmlns="http://www.w3.org/2000/svg"><path fill-rule="evenodd" clip-rule="evenodd" d="M14.1 12.658A11.193 11.193 0 008 10.833a11.194 11.194 0 00-6.101 1.825.333.333 0 01-.456-.08A7.996 7.996 0 018.33.007 8.074 8.074 0 0116 7.918a7.953 7.953 0 01-1.443 4.66.333.333 0 01-.455.08zM8 1.834a.5.5 0 00-.5.5v1a.5.5 0 001 0v-1a.5.5 0 00-.5-.5zM3.333 8.5h-1a.5.5 0 110-1h1a.5.5 0 110 1zM4.7 5.2a.499.499 0 00.5-.5.5.5 0 00-.147-.354l-.706-.706a.5.5 0 00-.708.707l.708.707c.093.094.22.146.353.146zm3.246 4.43a1.577 1.577 0 01-1.125-2.7c.504-.504 4.695-3.087 5.17-3.38a.333.333 0 01.46.458c-.294.476-2.877 4.667-3.381 5.17-.3.294-.704.457-1.124.453zM12.166 8a.5.5 0 00.5.5h1a.5.5 0 000-1h-1a.5.5 0 00-.5.5z" fill="#fff"/><path d="M8 11.834a10.034 10.034 0 00-5.354 1.533.339.339 0 00-.05.53 7.983 7.983 0 0010.808 0 .338.338 0 00-.05-.529A10.03 10.03 0 008 11.834z" fill="#fff"/></svg>