<svg width="16" height="12" fill="none" xmlns="http://www.w3.org/2000/svg"><path fill-rule="evenodd" clip-rule="evenodd" d="M1.333.667h13.334C15.403.667 16 1.264 16 2v8c0 .736-.597 1.333-1.333 1.333H1.333A1.333 1.333 0 010 10V2C0 1.264.597.667 1.333.667zm12.667 5V3a.333.333 0 00-.333-.333H11a.333.333 0 00-.333.333v2.667c0 .184.149.333.333.333h2.667c.184 0 .333-.15.333-.333zM3 7.163h5.333a.503.503 0 110 1.007H3a.503.503 0 010-1.007zM3 4.83a.503.503 0 000 1.007h1.333a.503.503 0 100-1.007H3z" fill="#0093F5"/></svg>