<svg width="16" height="16" fill="none" xmlns="http://www.w3.org/2000/svg"><path fill-rule="evenodd" clip-rule="evenodd" d="M12.6 4.633a13.97 13.97 0 012.867 2.4c.494.548.496 1.38.004 1.932-1.708 1.877-4.53 3.867-7.367 3.867h-.2a7.508 7.508 0 01-2.873-.627L2.267 14.97a.667.667 0 01-1.088-.725.027.027 0 01.01-.006.04.04 0 00.008-.005l13-13a.49.49 0 00.115-.194l.012-.012a.667.667 0 11.943.942L12.6 4.633zm-3.725 6.233a3.054 3.054 0 002-2.02c.208-.673.16-1.4-.134-2.04a.168.168 0 00-.271-.045l-3.707 3.706a.168.168 0 00.046.272 2.87 2.87 0 002.066.127z" fill="#6F6F6F"/><path d="M5.077 8.933a.163.163 0 00.04-.16A2.877 2.877 0 015 8a3 3 0 013-3c.262.003.522.041.773.115.057.017.118 0 .16-.041l1.294-1.295a.17.17 0 00-.066-.28A6.942 6.942 0 008 3.167C5.133 3.127 2.267 5.133.542 7.033a1.433 1.433 0 00-.005 1.933 14.14 14.14 0 002.292 2.02.17.17 0 00.218-.02l2.03-2.033z" fill="#6F6F6F"/></svg>