<svg width="28" height="28" fill="none" xmlns="http://www.w3.org/2000/svg"><path d="M1.14 5.781h25.662c.628 0 1.141-.513 1.141-1.14 0-.628-.513-1.141-1.14-1.141H1.14C.513 3.5 0 4.013 0 4.64c0 .628.513 1.141 1.14 1.141zm25.72 6.843H1.197c-.628 0-1.141.513-1.141 1.14 0 .628.513 1.141 1.14 1.141H26.86c.627 0 1.14-.513 1.14-1.14 0-.628-.513-1.14-1.14-1.14zm-.058 9.124H1.141C.513 21.748 0 22.262 0 22.89s.513 1.14 1.14 1.14h25.662c.628 0 1.141-.513 1.141-1.14 0-.627-.513-1.14-1.14-1.14z" fill="#0093F5"/></svg>