<svg width="17" height="18" fill="none" xmlns="http://www.w3.org/2000/svg"><path fill-rule="evenodd" clip-rule="evenodd" d="M13.281 7.23h.532c.782 0 1.416.633 1.416 1.416v7.437c0 .783-.634 1.417-1.416 1.417H3.188a1.417 1.417 0 01-1.417-1.417V8.646c0-.783.634-1.417 1.417-1.417h7.968a.354.354 0 00.355-.354V5.281a3.011 3.011 0 00-5.895-.865.885.885 0 01-1.697-.508 4.782 4.782 0 019.362 1.373V7.23zM8.25 10.077a1.417 1.417 0 00-.458 2.622v1.613a.708.708 0 001.416 0V12.7a1.417 1.417 0 00-.958-2.622z" fill="#fff"/></svg>