<svg width="12" height="14" fill="none" xmlns="http://www.w3.org/2000/svg"><path fill-rule="evenodd" clip-rule="evenodd" d="M10.063 5.908h-.407v-1.49a3.656 3.656 0 00-7.312 0v1.49h-.407c-.598 0-1.083.485-1.083 1.083v5.687c0 .599.485 1.084 1.083 1.084h8.126c.598 0 1.083-.485 1.083-1.084V6.991c0-.598-.485-1.083-1.084-1.083zm-2.167 4.604a.542.542 0 110-1.084.542.542 0 010 1.084zm0 1.896a.542.542 0 100-1.084.542.542 0 000 1.084zm0-3.792a.542.542 0 110-1.083.542.542 0 010 1.083zM5.458 9.97a.542.542 0 101.084 0 .542.542 0 00-1.084 0zm1.084 1.896a.542.542 0 11-1.084 0 .542.542 0 011.084 0zM5.458 8.074a.542.542 0 101.084 0 .542.542 0 00-1.084 0zm-1.354 2.438a.542.542 0 110-1.084.542.542 0 010 1.084zm0 1.896a.542.542 0 100-1.084.542.542 0 000 1.084zm0-3.792a.542.542 0 110-1.083.542.542 0 010 1.083zM6 2.116a2.302 2.302 0 00-2.302 2.302v1.219c0 .15.121.27.27.27h4.063a.27.27 0 00.271-.27V4.418A2.302 2.302 0 006 2.116z" fill="#363636"/></svg>