<svg width="13" height="14" fill="none" xmlns="http://www.w3.org/2000/svg"><path d="M7.313 9.98a.54.54 0 00-.542.54v1.355a.27.27 0 01-.271.27H1.354a.27.27 0 01-.27-.27v-9.75c0-.15.12-.27.27-.27H6.5c.15 0 .27.12.27.27v1.354a.542.542 0 001.084 0V1.854c0-.598-.485-1.083-1.083-1.083H1.083A1.083 1.083 0 000 1.854v10.292c0 .598.485 1.083 1.083 1.083h5.688c.598 0 1.083-.485 1.083-1.083V10.52c0-.3-.242-.542-.542-.542z" fill="#0093F5"/><path d="M12.759 6.82l-3.25-2.166a.542.542 0 00-.842.45v1.354H3.792a.813.813 0 100 1.625h4.875v1.355a.55.55 0 00.541.541.542.542 0 00.301-.09l3.25-2.167a.542.542 0 000-.902z" fill="#0093F5"/></svg>