<svg width="56" height="56" fill="none" xmlns="http://www.w3.org/2000/svg"><path d="M51.612 43.188c-2.852 0-5.084-2.44-5.084-5.523v-11.64c0-10.275-4.587-17.034-11.407-20.117C34.252 2.44 31.4 0 28.052 0s-6.2 2.44-6.944 5.908C14.164 8.991 9.576 15.75 9.576 26.025v11.64c0 3.083-2.356 5.523-5.084 5.523-.62 0-.992.514-.992 1.156 0 .642.496 1.156.992 1.156h46.997c.62 0 .992-.514.992-1.156.124-.642-.373-1.156-.869-1.156zM34.066 49H22.05c-.584 0-1.05.389-1.05.875C21 53.278 24.15 56 28 56s7-2.722 7-6.125c0-.486-.467-.875-.934-.875z" fill="#0093F5"/></svg>