<svg width="24" height="25" fill="none" xmlns="http://www.w3.org/2000/svg"><g filter="url(#filter0_d)" fill="#fff"><path d="M22.12 18.51c-1.223 0-2.18-1.047-2.18-2.368v-4.988c0-4.404-1.966-7.3-4.888-8.622C14.68 1.046 13.457 0 12.022 0c-1.434 0-2.657 1.046-2.976 2.532C6.07 3.853 4.104 6.75 4.104 11.154v4.988c0 1.321-1.01 2.367-2.179 2.367-.266 0-.425.22-.425.496 0 .275.212.495.425.495h20.142c.265 0 .425-.22.425-.495.053-.276-.16-.496-.372-.496zM14.6 21H9.45c-.25 0-.45.167-.45.375C9 22.833 10.35 24 12 24s3-1.167 3-2.625c0-.208-.2-.375-.4-.375z"/></g><defs><filter id="filter0_d" x="0" y="0" width="24" height="25" filterUnits="userSpaceOnUse" color-interpolation-filters="sRGB"><feFlood flood-opacity="0" result="BackgroundImageFix"/><feColorMatrix in="SourceAlpha" values="0 0 0 0 0 0 0 0 0 0 0 0 0 0 0 0 0 0 127 0"/><feOffset dy="1"/><feColorMatrix values="0 0 0 0 0 0 0 0 0 0 0 0 0 0 0 0 0 0 0.15 0"/><feBlend in2="BackgroundImageFix" result="effect1_dropShadow"/><feBlend in="SourceGraphic" in2="effect1_dropShadow" result="shape"/></filter></defs></svg>