<svg width="16" height="16" fill="none" xmlns="http://www.w3.org/2000/svg"><path d="M8 .005a7.995 7.995 0 100 15.99c2.984 0 4.091-1.162 4.495-2.138a2.678 2.678 0 00-.12-2.4 1.274 1.274 0 00-.012-1.717l-.954-.953a1.288 1.288 0 00-1.814.066l-.141.14A18.773 18.773 0 017 6.543l.14-.14c.52-.482.55-1.293.071-1.815l-.953-.955a1.287 1.287 0 00-1.815.072l-.582.581a1.81 1.81 0 00-.32 2.216 19.181 19.181 0 005.954 5.954c.263.164.566.25.875.247.348-.003.687-.104.981-.289.076.386.01.786-.186 1.127-.439.734-1.533 1.12-3.165 1.12a6.66 6.66 0 115.497-2.897.667.667 0 001.099.755A7.996 7.996 0 008 .005z" fill="#0093F5"/></svg>