<svg width="13" height="13" fill="none" xmlns="http://www.w3.org/2000/svg"><path d="M11.375 1.34c0-.73-.61-1.34-1.34-1.34H1.34C.609 0 0 .61 0 1.34v.813h11.375v-.812zm-9.466.285a.278.278 0 01-.284-.284c0-.122.122-.244.284-.244.122 0 .244.122.244.244 0 .162-.122.284-.244.284zm1.057 0c-.122 0-.244-.122-.244-.284 0-.122.122-.244.244-.244.162 0 .284.122.284.244a.278.278 0 01-.284.284zm1.096 0a.278.278 0 01-.284-.284c0-.122.122-.244.284-.244.163 0 .285.122.285.284 0 .122-.122.244-.285.244zm5.972 5.403c-1.625 0-2.965 1.3-2.965 2.925-.04 1.666 1.34 3.006 2.965 3.006 1.625 0 2.966-1.3 2.966-2.925 0-1.625-1.3-2.965-2.966-3.006zM7.841 9.994c0-.569.243-1.138.65-1.544.406-.406.975-.61 1.543-.61.528 0 1.016.204 1.422.529v-.244c0-.162.122-.284.285-.284.162 0 .284.122.284.284v1.34h-1.34a.278.278 0 01-.285-.284c0-.162.122-.284.284-.284h.57a1.598 1.598 0 00-1.179-.528 1.74 1.74 0 00-1.137.447c-.325.284-.488.69-.488 1.137l-.61.04zm3.696 1.584c-.406.406-.934.61-1.503.61-.487 0-1.015-.204-1.421-.529v.041a.278.278 0 01-.285.284.278.278 0 01-.284-.284v-1.097H9.14c.162 0 .284.122.284.284a.278.278 0 01-.284.285h-.325c.325.325.771.528 1.178.528.406 0 .812-.162 1.137-.447.325-.284.488-.69.488-1.137h.528c.04.528-.203 1.056-.61 1.462zM10.034 6.5c.488 0 .813 0 1.341.162v-3.98H0V7.84c0 .73.61 1.34 1.34 1.34h5.241C6.947 7.638 8.37 6.5 10.034 6.5z" fill="#6F6F6F"/></svg>