<svg width="20" height="24" fill="none" xmlns="http://www.w3.org/2000/svg"><path d="M2.936 13.681a7.239 7.239 0 012.252-7.1A1.25 1.25 0 103.531 4.71 9.737 9.737 0 00.5 14.257a10.269 10.269 0 007.11 7.365.25.25 0 01.178.271l-.13 1.033a.5.5 0 00.745.493l4.342-2.476a.5.5 0 00.248-.373.428.428 0 000-.062.5.5 0 00-.152-.359l-3.593-3.477a.5.5 0 00-.844.3l-.232 1.878a.25.25 0 01-.333.2 7.7 7.7 0 01-4.903-5.369zM12.1.594a.5.5 0 00-.526-.015l-4.329 2.5A.5.5 0 007 3.454a.489.489 0 00.151.421l3.614 3.456a.5.5 0 00.842-.3l.221-1.848a.25.25 0 01.333-.206 7.688 7.688 0 014.9 5.37 7.243 7.243 0 01-2.253 7.1 1.25 1.25 0 101.656 1.871 9.74 9.74 0 003.03-9.549 10.261 10.261 0 00-7.12-7.369.251.251 0 01-.179-.27l.127-1.058a.43.43 0 000-.06.5.5 0 00-.222-.418z" fill="#fff"/></svg>