<svg width="13" height="13" viewBox="0 0 13 13" fill="none" xmlns="http://www.w3.org/2000/svg">
<path fill-rule="evenodd" clip-rule="evenodd" d="M1.35417 3.25049H10.5625C10.9216 3.25049 11.2661 3.10782 11.52 2.85386C11.774 2.59991 11.9167 2.25547 11.9167 1.89632V1.35466C11.9167 0.995508 11.774 0.65107 11.52 0.397115C11.2661 0.143159 10.9216 0.000488281 10.5625 0.000488281H1.35417C0.606281 0.000488281 0 0.606769 0 1.35466V1.89632C0 2.64421 0.606281 3.25049 1.35417 3.25049ZM1.96895 1.62549C1.96895 1.29193 2.23936 1.02153 2.57291 1.02153C2.90647 1.02153 3.17687 1.29193 3.17687 1.62549C3.17687 1.95904 2.90647 2.22945 2.57291 2.22945C2.23936 2.22945 1.96895 1.95904 1.96895 1.62549ZM4.66646 1.02153C4.3329 1.02153 4.0625 1.29193 4.0625 1.62549C4.06236 1.78571 4.12594 1.93941 4.23924 2.05271C4.35253 2.166 4.50623 2.22959 4.66646 2.22945C5.00002 2.22945 5.27042 1.95904 5.27042 1.62549C5.27042 1.29193 5.00002 1.02153 4.66646 1.02153Z" fill="#6F6F6F"/>
<path fill-rule="evenodd" clip-rule="evenodd" d="M9.47917 5.14616C10.1932 5.1454 10.8962 5.32204 11.525 5.6602C11.6081 5.704 11.708 5.70098 11.7882 5.65226C11.8685 5.60354 11.9172 5.51628 11.9167 5.42241V5.14724C11.917 4.78791 11.7744 4.44319 11.5204 4.189C11.2664 3.93481 10.9218 3.79199 10.5625 3.79199H1.35417C0.606281 3.79199 0 4.39827 0 5.14616V5.68783C0 6.43571 0.606281 7.04199 1.35417 7.04199H5.76279C5.84883 7.04212 5.92959 7.00052 5.97946 6.93041C6.7935 5.81013 8.09436 5.14691 9.47917 5.14616ZM5.26987 5.41699C5.26987 5.66132 5.12266 5.88158 4.89691 5.97503C4.67116 6.06848 4.41135 6.01671 4.23866 5.84386C4.06597 5.67102 4.01443 5.41116 4.10809 5.18549C4.20174 4.95982 4.42213 4.81281 4.66646 4.81303C4.82659 4.81303 4.98015 4.87668 5.09333 4.98996C5.20651 5.10324 5.27002 5.25686 5.26987 5.41699ZM2.57291 6.02095C2.90647 6.02095 3.17687 5.75055 3.17687 5.41699C3.17687 5.08343 2.90647 4.81303 2.57291 4.81303C2.23936 4.81303 1.96895 5.08343 1.96895 5.41699C1.96895 5.75055 2.23936 6.02095 2.57291 6.02095Z" fill="#6F6F6F"/>
<path fill-rule="evenodd" clip-rule="evenodd" d="M5.00608 10.834H1.35417C0.606281 10.834 0 10.2277 0 9.47982V8.93815C0 8.19027 0.606281 7.58398 1.35417 7.58398H5.17833C5.26659 7.58493 5.34885 7.62882 5.39877 7.70161C5.44869 7.77439 5.46002 7.86693 5.42913 7.94961C5.11775 8.75959 5.06106 9.64533 5.26662 10.4884C5.28893 10.5701 5.27215 10.6575 5.22117 10.7251C5.17019 10.7928 5.09076 10.833 5.00608 10.834ZM2.34141 8.65061C2.11575 8.74426 1.96873 8.96465 1.96895 9.20898C1.96925 9.54233 2.23957 9.8124 2.57291 9.8124C2.81724 9.8124 3.0375 9.66519 3.13095 9.43944C3.2244 9.21369 3.17263 8.95387 2.99978 8.78119C2.82694 8.6085 2.56708 8.55696 2.34141 8.65061Z" fill="#6F6F6F"/>
<path fill-rule="evenodd" clip-rule="evenodd" d="M9.47908 13.0007C7.53458 13.0007 5.95825 11.4243 5.95825 9.47982C5.96064 7.5363 7.53557 5.96137 9.47908 5.95898C11.4236 5.95898 12.9999 7.53532 12.9999 9.47982C12.9999 11.4243 11.4236 13.0007 9.47908 13.0007ZM8.971 10.0941L8.26684 9.38991H8.26792C8.10922 9.23121 7.85191 9.23121 7.69321 9.38991C7.53451 9.54861 7.53451 9.80591 7.69321 9.96462L8.50571 10.7771C8.65653 10.9302 8.86229 11.0166 9.07717 11.0171H9.13784C9.3745 11.0014 9.59233 10.8825 9.73367 10.6921L11.3072 8.59366C11.4418 8.41417 11.4055 8.15953 11.226 8.02491C11.0465 7.89029 10.7918 7.92666 10.6572 8.10616L9.17792 10.0794C9.15451 10.111 9.11852 10.1308 9.07934 10.1336C9.03917 10.137 8.99954 10.1225 8.971 10.0941Z" fill="#6F6F6F"/>
</svg>
