<svg width="16" height="17" viewBox="0 0 16 17" fill="none" xmlns="http://www.w3.org/2000/svg">
<g filter="url(#filter0_d)">
<path fill-rule="evenodd" clip-rule="evenodd" d="M-3.49691e-07 8C-5.4282e-07 3.58172 3.58172 -1.56562e-07 8 -3.49691e-07C12.4163 0.00477641 15.9952 3.5837 16 8C16 12.4183 12.4183 16 8 16C3.58172 16 -1.56562e-07 12.4183 -3.49691e-07 8ZM7 4L7 7L4 7L4 9L7 9L7 12L9 12L9 9L12 9L12 7L9 7L9 4L7 4Z" fill="white"/>
</g>
<defs>
<filter id="filter0_d" x="0" y="0" width="16" height="17" filterUnits="userSpaceOnUse" color-interpolation-filters="sRGB">
<feFlood flood-opacity="0" result="BackgroundImageFix"/>
<feColorMatrix in="SourceAlpha" type="matrix" values="0 0 0 0 0 0 0 0 0 0 0 0 0 0 0 0 0 0 127 0"/>
<feOffset dy="1"/>
<feColorMatrix type="matrix" values="0 0 0 0 0 0 0 0 0 0 0 0 0 0 0 0 0 0 0.15 0"/>
<feBlend mode="normal" in2="BackgroundImageFix" result="effect1_dropShadow"/>
<feBlend mode="normal" in="SourceGraphic" in2="effect1_dropShadow" result="shape"/>
</filter>
</defs>
</svg>
