<svg width="13" height="14" viewBox="0 0 13 14" fill="none" xmlns="http://www.w3.org/2000/svg">
<path fill-rule="evenodd" clip-rule="evenodd" d="M12.5228 11.3333L7.45982 1.6646C7.2728 1.30771 6.90317 1.08411 6.50026 1.08411C6.09734 1.08411 5.72771 1.30771 5.5407 1.6646L0.477195 11.3333C0.301279 11.6692 0.313732 12.0726 0.510028 12.3969C0.706325 12.7213 1.0579 12.9194 1.43703 12.9193H11.5629C11.9421 12.9194 12.2936 12.7213 12.4899 12.3969C12.6862 12.0726 12.6987 11.6692 12.5228 11.3333ZM5.95832 5.06247C5.95832 4.76332 6.20084 4.52081 6.49999 4.52081C6.79914 4.52081 7.04166 4.76332 7.04166 5.06247V8.31248C7.04166 8.61163 6.79914 8.85414 6.49999 8.85414C6.20084 8.85414 5.95832 8.61163 5.95832 8.31248V5.06247ZM6.5119 11.2971H6.52707C6.74216 11.2936 6.94677 11.2035 7.09459 11.0472C7.24242 10.8909 7.32097 10.6816 7.31248 10.4667C7.29505 10.0232 6.93077 9.67258 6.48698 9.67205H6.47182C6.25725 9.67598 6.05328 9.766 5.90577 9.92186C5.75825 10.0777 5.6796 10.2863 5.68748 10.5008C5.70433 10.9443 6.06805 11.2956 6.5119 11.2971Z" fill="#F46B4F"/>
</svg>
