<svg width="21" height="20" viewBox="0 0 21 20" fill="none" xmlns="http://www.w3.org/2000/svg">
<path d="M8.20711 15.5429C8.59763 15.9334 8.59763 16.5666 8.20711 16.9571C7.81658 17.3476 7.18342 17.3476 6.79289 16.9571L8.20711 15.5429ZM1.25 10L0.542893 10.7071C0.152369 10.3166 0.152369 9.68342 0.542893 9.29289L1.25 10ZM6.79289 3.04289C7.18342 2.65237 7.81658 2.65237 8.20711 3.04289C8.59763 3.43342 8.59763 4.06658 8.20711 4.45711L6.79289 3.04289ZM19.375 9C19.9273 9 20.375 9.44772 20.375 10C20.375 10.5523 19.9273 11 19.375 11L19.375 9ZM6.79289 16.9571L0.542893 10.7071L1.95711 9.29289L8.20711 15.5429L6.79289 16.9571ZM0.542893 9.29289L6.79289 3.04289L8.20711 4.45711L1.95711 10.7071L0.542893 9.29289ZM1.25 9L19.375 9L19.375 11L1.25 11L1.25 9Z" fill="#363636"/>
</svg>
