<svg width="13" height="13" viewBox="0 0 13 13" fill="none" xmlns="http://www.w3.org/2000/svg">
<path fill-rule="evenodd" clip-rule="evenodd" d="M10.5626 4.0625H2.43758C2.288 4.0625 2.16675 4.18376 2.16675 4.33333V11.9167C2.16675 12.515 2.65177 13 3.25008 13H9.75008C10.3484 13 10.8334 12.515 10.8334 11.9167V4.33333C10.8334 4.18376 10.7122 4.0625 10.5626 4.0625ZM5.55217 11.1042C5.55217 11.3285 5.37029 11.5104 5.14592 11.5104C4.92156 11.5104 4.73967 11.3285 4.73967 11.1042V6.22916C4.73967 6.0048 4.92156 5.82291 5.14592 5.82291C5.37029 5.82291 5.55217 6.0048 5.55217 6.22916V11.1042ZM7.85425 11.5104C8.07861 11.5104 8.2605 11.3285 8.2605 11.1042V6.22916C8.2605 6.0048 8.07861 5.82291 7.85425 5.82291C7.62988 5.82291 7.448 6.0048 7.448 6.22916V11.1042C7.448 11.3285 7.62988 11.5104 7.85425 11.5104Z" fill="#6F6F6F"/>
<path fill-rule="evenodd" clip-rule="evenodd" d="M9.34383 2.16667H11.9167C12.2159 2.16667 12.4584 2.40918 12.4584 2.70833C12.4584 3.00749 12.2159 3.25 11.9167 3.25H1.08341C0.78426 3.25 0.541748 3.00749 0.541748 2.70833C0.541748 2.40918 0.78426 2.16667 1.08341 2.16667H3.65633C3.69225 2.16667 3.72669 2.1524 3.75209 2.127C3.77748 2.10161 3.79175 2.06716 3.79175 2.03125V1.35417C3.79175 0.606281 4.39803 0 5.14591 0H7.85425C8.60213 0 9.20841 0.606281 9.20841 1.35417V2.03125C9.20841 2.10604 9.26904 2.16667 9.34383 2.16667ZM4.87507 1.35417V2.03125C4.87507 2.10604 4.9357 2.16667 5.01049 2.16667H7.98966C8.06445 2.16667 8.12507 2.10604 8.12507 2.03125V1.35417C8.12507 1.20459 8.00382 1.08334 7.85424 1.08334H5.14591C4.99633 1.08334 4.87507 1.20459 4.87507 1.35417Z" fill="#6F6F6F"/>
</svg>
