<svg width="22" height="22" viewBox="0 0 22 22" fill="none" xmlns="http://www.w3.org/2000/svg">
<path d="M9.295 0H0.605C0.275 0 0 0.275 0 0.605V8.69C0 9.075 0.275 9.35 0.605 9.35H9.24C9.57 9.35 9.845 9.075 9.845 8.745V0.605C9.9 0.275 9.625 0 9.295 0ZM21.395 0H12.705C12.375 0 12.1 0.275 12.1 0.605V8.69C12.1 9.02 12.375 9.295 12.705 9.295H21.34C21.67 9.295 21.945 9.02 21.945 8.69V0.605C22 0.275 21.725 0 21.395 0ZM9.295 11.55H0.605C0.275 11.55 0 11.825 0 12.155V20.24C0 20.625 0.275 20.9 0.605 20.9H9.24C9.57 20.9 9.845 20.625 9.845 20.295V12.155C9.9 11.825 9.625 11.55 9.295 11.55ZM21.395 11.55H12.705C12.375 11.55 12.1 11.825 12.1 12.155V20.24C12.1 20.57 12.375 20.845 12.705 20.845H21.34C21.67 20.845 21.945 20.57 21.945 20.24V12.155C22 11.825 21.725 11.55 21.395 11.55Z" fill="#6F6F6F"/>
</svg>
