<svg width="12" height="13" viewBox="0 0 12 13" fill="none" xmlns="http://www.w3.org/2000/svg">
<path d="M1.28033 3.32367C0.987437 3.03078 0.512563 3.03078 0.21967 3.32367C-0.0732233 3.61657 -0.0732233 4.09144 0.21967 4.38433L1.28033 3.32367ZM6 9.104L5.46967 9.63433C5.76256 9.92723 6.23744 9.92723 6.53033 9.63433L6 9.104ZM11.7803 4.38433C12.0732 4.09144 12.0732 3.61657 11.7803 3.32367C11.4874 3.03078 11.0126 3.03078 10.7197 3.32367L11.7803 4.38433ZM0.21967 4.38433L5.46967 9.63433L6.53033 8.57367L1.28033 3.32367L0.21967 4.38433ZM6.53033 9.63433L11.7803 4.38433L10.7197 3.32367L5.46967 8.57367L6.53033 9.63433Z" fill="#6F6F6F"/>
</svg>
