<svg width="14" height="13" viewBox="0 0 14 13" fill="none" xmlns="http://www.w3.org/2000/svg">
<path fill-rule="evenodd" clip-rule="evenodd" d="M11.7209 2.74572L10.1701 1.10393C9.98392 0.916322 9.73022 0.811329 9.46592 0.81251H5.14017C4.59207 0.813107 4.1479 1.25728 4.1473 1.80538V2.70834H3.24434C2.69624 2.70894 2.25206 3.15312 2.25146 3.70122V11.4655C2.25206 12.0136 2.69624 12.4577 3.24434 12.4583H9.11276C9.66086 12.4577 10.105 12.0136 10.1056 11.4655V10.5625H11.0086C11.5567 10.5619 12.0009 10.1177 12.0015 9.56964V3.43959C12.004 3.18018 11.903 2.93047 11.7209 2.74572ZM8.75146 11.375H3.60563C3.45605 11.375 3.3348 11.2538 3.3348 11.1042V4.06251C3.3348 3.91294 3.45605 3.79168 3.60563 3.79168H4.01188C4.08667 3.79168 4.1473 3.85231 4.1473 3.9271V9.56964C4.1473 10.118 4.59182 10.5625 5.14017 10.5625H8.88688C8.96167 10.5625 9.0223 10.6231 9.0223 10.6979V11.1042C9.0223 11.2538 8.90104 11.375 8.75146 11.375ZM5.50146 9.47918H10.6473C10.7969 9.47918 10.9181 9.35793 10.9181 9.20835V3.58043C10.918 3.5113 10.8915 3.44483 10.8439 3.39464L9.50871 1.98089C9.45765 1.92672 9.38653 1.89597 9.31209 1.89585H5.50146C5.35189 1.89585 5.23063 2.0171 5.23063 2.16668V9.20835C5.23063 9.35793 5.35189 9.47918 5.50146 9.47918Z" fill="#6F6F6F"/>
</svg>
