<svg width="16" height="17" viewBox="0 0 16 17" fill="none" xmlns="http://www.w3.org/2000/svg">
<path fill-rule="evenodd" clip-rule="evenodd" d="M14.1009 12.6579C12.2867 11.4718 10.1672 10.8379 7.99977 10.8333C5.8323 10.838 3.71282 11.4718 1.89864 12.6579C1.75003 12.7579 1.54895 12.7226 1.44333 12.5779C-0.299218 10.086 -0.477531 6.82141 0.983243 4.15456C2.44402 1.48772 5.29102 -0.119744 8.32909 0.00697826C12.5677 0.218221 15.9192 3.67492 15.9995 7.91804C16.0184 9.58416 15.5136 11.2141 14.5562 12.5779C14.4506 12.7226 14.2495 12.7579 14.1009 12.6579ZM7.99973 1.83379C7.7236 1.83379 7.49975 2.05764 7.49975 2.33377V3.33374C7.49975 3.60987 7.7236 3.83372 7.99973 3.83372C8.27586 3.83372 8.49971 3.60987 8.49971 3.33374V2.33377C8.49971 2.05764 8.27586 1.83379 7.99973 1.83379ZM3.33322 8.50016H2.33326C2.05712 8.50016 1.83327 8.27631 1.83327 8.00018C1.83327 7.72405 2.05712 7.5002 2.33326 7.5002H3.33322C3.60936 7.5002 3.83321 7.72405 3.83321 8.00018C3.83321 8.27631 3.60936 8.50016 3.33322 8.50016ZM4.69985 5.20044C4.83246 5.20044 4.9596 5.14762 5.05317 5.05366C5.14701 4.95989 5.19973 4.83267 5.19973 4.70001C5.19973 4.56735 5.14701 4.44013 5.05317 4.34636L4.34653 3.64038C4.15044 3.45081 3.83859 3.45337 3.64564 3.64614C3.45269 3.83891 3.44983 4.15075 3.63922 4.34702L4.34653 5.05366C4.4401 5.14762 4.56725 5.20044 4.69985 5.20044ZM7.94571 9.63082C7.30223 9.63823 6.71878 9.25398 6.47144 8.65989C6.22409 8.0658 6.36247 7.38102 6.82108 6.92958C7.32506 6.42627 11.5156 3.84302 11.9916 3.5497C12.123 3.46866 12.293 3.48855 12.4022 3.59775C12.5114 3.70696 12.5313 3.87688 12.4502 4.00835C12.1569 4.48433 9.57365 8.67486 9.06967 9.17817C8.76982 9.47206 8.36555 9.63487 7.94571 9.63082ZM12.1662 8.00018C12.1662 8.27631 12.3901 8.50016 12.6662 8.50016H13.6662C13.9423 8.50016 14.1662 8.27631 14.1662 8.00018C14.1662 7.72405 13.9423 7.5002 13.6662 7.5002H12.6662C12.3901 7.5002 12.1662 7.72405 12.1662 8.00018Z" fill="white"/>
<path d="M7.99971 11.834C6.10618 11.8297 4.25007 12.3613 2.6459 13.3673C2.55876 13.4235 2.50214 13.5165 2.49227 13.6197C2.48239 13.7229 2.52033 13.8249 2.59524 13.8966C5.65027 16.7068 10.3492 16.7068 13.4042 13.8966C13.4791 13.825 13.517 13.7231 13.5072 13.62C13.4973 13.5169 13.4407 13.424 13.3535 13.368C11.7495 12.3615 9.89334 11.8297 7.99971 11.834Z" fill="white"/>
</svg>
