<svg width="17" height="16" viewBox="0 0 17 16" fill="none" xmlns="http://www.w3.org/2000/svg">
<path d="M11.2914 2.34C11.1592 2.21479 10.9522 2.21479 10.82 2.34L3.21137 9.94867C3.08124 10.0788 3.08124 10.2898 3.21137 10.42L6.0647 13.2733C6.19486 13.4035 6.40587 13.4035 6.53603 13.2733L14.1447 5.666C14.2748 5.53583 14.2748 5.32483 14.1447 5.19467L11.2914 2.34Z" fill="#0093F5"/>
<path d="M2.50012 11.1399C2.418 11.0583 2.2994 11.0251 2.18685 11.0523C2.0743 11.0795 1.98392 11.1631 1.94812 11.2732L0.521452 15.5532C0.481301 15.673 0.512275 15.8051 0.601452 15.8946C0.691361 15.9829 0.822861 16.014 0.942786 15.9752L5.22279 14.5492C5.33317 14.5135 5.41705 14.423 5.44426 14.3103C5.47146 14.1975 5.43808 14.0787 5.35612 13.9966L2.50012 11.1399Z" fill="#0093F5"/>
<path d="M15.8121 0.677625C14.8815 -0.21025 13.4175 -0.21025 12.4868 0.677625L12.0121 1.15296C11.882 1.28312 11.882 1.49412 12.0121 1.62429L14.8648 4.47762C14.995 4.60775 15.206 4.60775 15.3361 4.47762L15.8121 3.99962C16.7271 3.0813 16.7271 1.59595 15.8121 0.677625Z" fill="#0093F5"/>
</svg>
