<svg width="16" height="12" viewBox="0 0 16 12" fill="none" xmlns="http://www.w3.org/2000/svg">
<path fill-rule="evenodd" clip-rule="evenodd" d="M1.33333 0.666687H14.6667C15.403 0.666687 16 1.26364 16 2.00002V10C16 10.7364 15.403 11.3334 14.6667 11.3334H1.33333C0.596954 11.3334 0 10.7364 0 10V2.00002C0 1.26364 0.596954 0.666687 1.33333 0.666687ZM14 5.66669V3.00002C14 2.81593 13.8508 2.66669 13.6667 2.66669H11C10.8159 2.66669 10.6667 2.81593 10.6667 3.00002V5.66669C10.6667 5.85078 10.8159 6.00002 11 6.00002H13.6667C13.8508 6.00002 14 5.85078 14 5.66669ZM3 7.16335H8.33333C8.61132 7.16335 8.83667 7.3887 8.83667 7.66669C8.83667 7.94467 8.61132 8.17002 8.33333 8.17002H3C2.72202 8.17002 2.49667 7.94467 2.49667 7.66669C2.49667 7.3887 2.72202 7.16335 3 7.16335ZM3 4.83002C2.72202 4.83002 2.49667 5.05537 2.49667 5.33335C2.49667 5.61134 2.72202 5.83669 3 5.83669H4.33333C4.61132 5.83669 4.83667 5.61134 4.83667 5.33335C4.83667 5.05537 4.61132 4.83002 4.33333 4.83002H3Z" fill="#0093F5"/>
</svg>
