<svg width="13" height="14" viewBox="0 0 13 14" fill="none" xmlns="http://www.w3.org/2000/svg">
<path d="M1.625 1.3125V12.6875C1.625 13.1362 1.98877 13.5 2.4375 13.5C2.88623 13.5 3.25 13.1362 3.25 12.6875V1.3125C3.25 0.863769 2.88623 0.5 2.4375 0.5C1.98877 0.5 1.625 0.863769 1.625 1.3125Z" fill="#94D362"/>
<path d="M4.32304 8.54645C4.48495 8.64474 4.68644 8.65131 4.85442 8.56379L11.0836 5.31379C11.2627 5.22052 11.3751 5.03531 11.3751 4.83333C11.3751 4.63134 11.2627 4.44614 11.0836 4.35287L4.85442 1.10287C4.68649 1.01539 4.48508 1.02195 4.3232 1.12016C4.16132 1.21837 4.06248 1.39399 4.0625 1.58333V8.08333C4.06246 8.27262 4.16124 8.44821 4.32304 8.54645Z" fill="#94D362"/>
</svg>
