<svg width="16" height="16" viewBox="0 0 16 16" fill="none" xmlns="http://www.w3.org/2000/svg">
<path fill-rule="evenodd" clip-rule="evenodd" d="M12.6 4.63278C13.6588 5.30072 14.623 6.10795 15.4667 7.03278C15.9608 7.58134 15.9628 8.41384 15.4714 8.96478C13.7634 10.8421 10.9414 12.8315 8.10405 12.8315H7.90405C6.91436 12.8143 5.93785 12.6015 5.03071 12.2055L2.26671 14.9695C2.04187 15.1935 1.69023 15.228 1.42617 15.0518C1.16211 14.8757 1.05887 14.5378 1.17938 14.2441C1.18225 14.2412 1.18551 14.2395 1.18873 14.2378C1.1915 14.2364 1.19425 14.2349 1.19671 14.2328L14.1967 1.23278C14.2497 1.17794 14.2892 1.11152 14.312 1.03878L14.324 1.02678C14.4914 0.85348 14.7393 0.783976 14.9724 0.844986C15.2055 0.905996 15.3875 1.08803 15.4485 1.32111C15.5095 1.5542 15.44 1.80207 15.2667 1.96945L12.6 4.63278ZM8.87538 10.8655C9.83356 10.5626 10.5814 9.80775 10.8754 8.84679C11.0831 8.17323 11.0354 7.44674 10.7414 6.80613C10.7176 6.75682 10.6713 6.72217 10.6173 6.71328C10.5633 6.70439 10.5084 6.72237 10.47 6.76146L6.76338 10.4675C6.72463 10.506 6.70696 10.5609 6.71597 10.6148C6.72498 10.6687 6.75954 10.7149 6.80871 10.7388C7.45776 11.037 8.19477 11.0822 8.87538 10.8655Z" fill="#6F6F6F"/>
<path d="M5.07659 8.93323C5.11821 8.89125 5.13378 8.82999 5.11726 8.77323C5.04312 8.522 5.00364 8.26182 4.99992 7.9999C4.99992 6.34304 6.34307 4.9999 7.99992 4.9999C8.26177 5.00264 8.522 5.04145 8.77326 5.11523C8.83014 5.13159 8.89141 5.11576 8.93326 5.0739L10.2273 3.77923C10.2689 3.73767 10.286 3.67749 10.2724 3.62027C10.2588 3.56304 10.2165 3.51697 10.1606 3.49857C9.46242 3.27448 8.73316 3.16243 7.99992 3.16657C5.13326 3.1279 2.26659 5.13323 0.541923 7.03257C0.0405555 7.5788 0.0385316 8.41725 0.537256 8.9659C1.22606 9.72004 1.99454 10.3973 2.82926 10.9859C2.8969 11.0327 2.98826 11.0245 3.04659 10.9666L5.07659 8.93323Z" fill="#6F6F6F"/>
</svg>
