<svg width="28" height="28" viewBox="0 0 28 28" fill="none" xmlns="http://www.w3.org/2000/svg">
<path d="M1.14053 5.78106H26.8024C27.4297 5.78106 27.943 5.26782 27.943 4.64053C27.943 4.01324 27.4297 3.5 26.8024 3.5H1.14053C0.513238 3.5 0 4.01324 0 4.64053C0 5.26782 0.513238 5.78106 1.14053 5.78106ZM26.8595 12.6242H1.19756C0.570265 12.6242 0.0570265 13.1375 0.0570265 13.7648C0.0570265 14.3921 0.570265 14.9053 1.19756 14.9053H26.8595C27.4868 14.9053 28 14.3921 28 13.7648C28 13.1375 27.4868 12.6242 26.8595 12.6242ZM26.8024 21.7485H1.14053C0.513238 21.7485 0 22.2617 0 22.889C0 23.5163 0.513238 24.0295 1.14053 24.0295H26.8024C27.4297 24.0295 27.943 23.5163 27.943 22.889C27.943 22.2617 27.4297 21.7485 26.8024 21.7485Z" fill="#0093F5"/>
</svg>
