<svg width="17" height="18" viewBox="0 0 17 18" fill="none" xmlns="http://www.w3.org/2000/svg">
<path fill-rule="evenodd" clip-rule="evenodd" d="M13.2814 7.22916H13.8127C14.5951 7.22916 15.2293 7.86342 15.2293 8.64583V16.0833C15.2293 16.8657 14.5951 17.5 13.8127 17.5H3.18766C2.40526 17.5 1.771 16.8657 1.771 16.0833V8.64583C1.771 7.86342 2.40526 7.22916 3.18766 7.22916H11.1564C11.352 7.22916 11.5106 7.0706 11.5106 6.87499V5.28124C11.5099 3.78773 10.4146 2.5204 8.93692 2.30342C7.45925 2.08644 6.04583 2.98539 5.61583 4.41566C5.52511 4.7187 5.2796 4.95033 4.9718 5.02328C4.66399 5.09623 4.34065 4.99943 4.12357 4.76934C3.90649 4.53925 3.82865 4.21083 3.91937 3.90779C4.60141 1.63553 6.84628 0.206872 9.19356 0.55123C11.5408 0.895588 13.2808 2.90884 13.2814 5.28124V7.22916ZM8.24994 10.0784C7.57245 10.1999 7.08038 10.7909 7.08349 11.4792C7.08491 11.9832 7.35485 12.4484 7.79183 12.6996V14.3125C7.79183 14.7037 8.10896 15.0208 8.50016 15.0208C8.89136 15.0208 9.20849 14.7037 9.20849 14.3125V12.6996C9.80458 12.3555 10.067 11.6327 9.83064 10.9862C9.59425 10.3398 8.92742 9.9568 8.24994 10.0784Z" fill="white"/>
</svg>
