<svg width="12" height="14" viewBox="0 0 12 14" fill="none" xmlns="http://www.w3.org/2000/svg">
<path fill-rule="evenodd" clip-rule="evenodd" d="M10.0625 5.90755H9.65621V4.41797C9.65621 2.39868 8.01925 0.761719 5.99996 0.761719C3.98067 0.761719 2.34371 2.39868 2.34371 4.41797V5.90755H1.93746C1.33915 5.90755 0.854126 6.39258 0.854126 6.99089V12.6784C0.854126 13.2767 1.33915 13.7617 1.93746 13.7617H10.0625C10.6608 13.7617 11.1458 13.2767 11.1458 12.6784V6.99089C11.1458 6.39258 10.6608 5.90755 10.0625 5.90755ZM7.89579 10.5117C7.59664 10.5117 7.35413 10.2692 7.35413 9.97005C7.35413 9.6709 7.59664 9.42839 7.89579 9.42839C8.19495 9.42839 8.43746 9.6709 8.43746 9.97005C8.43746 10.2692 8.19495 10.5117 7.89579 10.5117ZM7.89579 12.4076C8.19495 12.4076 8.43746 12.165 8.43746 11.8659C8.43746 11.5667 8.19495 11.3242 7.89579 11.3242C7.59664 11.3242 7.35413 11.5667 7.35413 11.8659C7.35413 12.165 7.59664 12.4076 7.89579 12.4076ZM7.89579 8.61589C7.59664 8.61589 7.35413 8.37337 7.35413 8.07422C7.35413 7.77506 7.59664 7.53255 7.89579 7.53255C8.19495 7.53255 8.43746 7.77506 8.43746 8.07422C8.43746 8.37337 8.19495 8.61589 7.89579 8.61589ZM5.45829 9.97005C5.45829 10.2692 5.70081 10.5117 5.99996 10.5117C6.29911 10.5117 6.54163 10.2692 6.54163 9.97005C6.54163 9.6709 6.29911 9.42839 5.99996 9.42839C5.70081 9.42839 5.45829 9.6709 5.45829 9.97005ZM6.54163 11.8659C6.54163 12.165 6.29911 12.4076 5.99996 12.4076C5.70081 12.4076 5.45829 12.165 5.45829 11.8659C5.45829 11.5667 5.70081 11.3242 5.99996 11.3242C6.29911 11.3242 6.54163 11.5667 6.54163 11.8659ZM5.45829 8.07422C5.45829 8.37337 5.70081 8.61589 5.99996 8.61589C6.29911 8.61589 6.54163 8.37337 6.54163 8.07422C6.54163 7.77506 6.29911 7.53255 5.99996 7.53255C5.70081 7.53255 5.45829 7.77506 5.45829 8.07422ZM4.10413 10.5117C3.80497 10.5117 3.56246 10.2692 3.56246 9.97005C3.56246 9.6709 3.80497 9.42839 4.10413 9.42839C4.40328 9.42839 4.64579 9.6709 4.64579 9.97005C4.64579 10.2692 4.40328 10.5117 4.10413 10.5117ZM4.10413 12.4076C4.40328 12.4076 4.64579 12.165 4.64579 11.8659C4.64579 11.5667 4.40328 11.3242 4.10413 11.3242C3.80497 11.3242 3.56246 11.5667 3.56246 11.8659C3.56246 12.165 3.80497 12.4076 4.10413 12.4076ZM4.10413 8.61589C3.80497 8.61589 3.56246 8.37337 3.56246 8.07422C3.56246 7.77506 3.80497 7.53255 4.10413 7.53255C4.40328 7.53255 4.64579 7.77506 4.64579 8.07422C4.64579 8.37337 4.40328 8.61589 4.10413 8.61589ZM5.99996 2.11589C4.72855 2.11589 3.69788 3.14656 3.69788 4.41797V5.63672C3.69788 5.7863 3.81913 5.90755 3.96871 5.90755H8.03121C8.18079 5.90755 8.30204 5.7863 8.30204 5.63672V4.41797C8.30204 3.14656 7.27136 2.11589 5.99996 2.11589Z" fill="#363636"/>
</svg>
