<svg width="13" height="14" viewBox="0 0 13 14" fill="none" xmlns="http://www.w3.org/2000/svg">
<path d="M7.3125 9.97918C7.01335 9.97918 6.77083 10.2217 6.77083 10.5208V11.875C6.77083 12.0246 6.64958 12.1458 6.5 12.1458H1.35417C1.20459 12.1458 1.08333 12.0246 1.08333 11.875V2.12501C1.08333 1.97543 1.20459 1.85418 1.35417 1.85418H6.5C6.64958 1.85418 6.77083 1.97543 6.77083 2.12501V3.47918C6.77083 3.77833 7.01335 4.02084 7.3125 4.02084C7.61165 4.02084 7.85417 3.77833 7.85417 3.47918V1.85418C7.85417 1.25587 7.36914 0.770844 6.77083 0.770844H1.08333C0.485025 0.770844 0 1.25587 0 1.85418V12.1458C0 12.7442 0.485025 13.2292 1.08333 13.2292H6.77083C7.36914 13.2292 7.85417 12.7442 7.85417 12.1458V10.5208C7.85417 10.2217 7.61165 9.97918 7.3125 9.97918Z" fill="#0093F5"/>
<path d="M12.759 6.82072L9.50896 4.65406C9.34283 4.54321 9.12918 4.53278 8.95303 4.62691C8.77689 4.72104 8.66684 4.90446 8.66667 5.10418V6.45835H3.79167C3.50139 6.45835 3.23316 6.61321 3.08802 6.8646C2.94288 7.11599 2.94288 7.42571 3.08802 7.6771C3.23316 7.92848 3.50139 8.08335 3.79167 8.08335H8.66667V9.43751C8.67075 9.73496 8.91089 9.9751 9.20833 9.97918C9.31533 9.9792 9.41994 9.94754 9.50896 9.88818L12.759 7.72151C12.9096 7.62105 13.0001 7.45194 13.0001 7.27085C13.0001 7.08976 12.9096 6.92064 12.759 6.82018V6.82072Z" fill="#0093F5"/>
</svg>
