<svg width="39" height="39" viewBox="0 0 39 39" fill="none" xmlns="http://www.w3.org/2000/svg">
<g clip-path="url(#clip0)">
<path d="M1.3419 16.9157C1.03452 17.0386 0.850098 17.346 0.850098 17.6534C0.850098 17.9608 1.03452 18.2681 1.3419 18.3911L14.3132 23.4935L37.0591 2.1001L1.3419 16.9157ZM14.928 25.0304V35.7271C14.928 36.1575 15.2968 36.5263 15.7271 36.5263C15.973 36.5263 16.2804 36.4034 16.4034 36.1575L21.5673 27.305L30.973 32.469C31.2189 32.5919 31.4648 32.5919 31.6493 32.469C31.8952 32.346 32.0181 32.1616 32.0796 31.9157L38.3501 3.02223L14.928 25.0304Z" fill="#0093F5"/>
</g>
<defs>
<clipPath id="clip0">
<rect width="37.5" height="37.5" fill="white" transform="translate(0.850098 0.850098)"/>
</clipPath>
</defs>
</svg>
