<svg width="39" height="39" viewBox="0 0 39 39" fill="none" xmlns="http://www.w3.org/2000/svg">
<g clip-path="url(#clip0)">
<path d="M1.3419 16.9152C1.03452 17.0381 0.850098 17.3455 0.850098 17.6529C0.850098 17.9603 1.03452 18.2676 1.3419 18.3906L14.3132 23.4931L37.0591 2.09961L1.3419 16.9152ZM14.928 25.0299V35.7267C14.928 36.157 15.2968 36.5258 15.7271 36.5258C15.973 36.5258 16.2804 36.4029 16.4034 36.157L21.5673 27.3045L30.973 32.4685C31.2189 32.5914 31.4648 32.5914 31.6493 32.4685C31.8952 32.3455 32.0181 32.1611 32.0796 31.9152L38.3501 3.02174L14.928 25.0299Z" fill="#0093F5"/>
</g>
<defs>
<clipPath id="clip0">
<rect width="37.5" height="37.5" fill="white" transform="translate(0.850098 0.849609)"/>
</clipPath>
</defs>
</svg>
