<svg width="24" height="24" viewBox="0 0 24 24" fill="none" xmlns="http://www.w3.org/2000/svg">
<path d="M22.1196 18.5092C20.8973 18.5092 19.9408 17.4633 19.9408 16.1422L19.9408 11.1537C19.9408 6.75 17.9745 3.85321 15.0516 2.53211C14.6796 1.04587 13.4573 0 12.0224 0C10.5876 0 9.36525 1.04587 9.04639 2.53211C6.07034 3.85321 4.10403 6.75 4.10403 11.1537L4.10395 16.1422C4.10395 17.4633 3.09422 18.5092 1.92506 18.5092C1.65934 18.5092 1.49991 18.7294 1.49991 19.0046C1.49991 19.2798 1.71248 19.5 1.92506 19.5H22.0665C22.3322 19.5 22.4916 19.2798 22.4916 19.0046C22.5448 18.7294 22.3322 18.5092 22.1196 18.5092Z" fill="#0093F5"/>
<path d="M14.5999 21H9.44991C9.19991 21 8.99991 21.1667 8.99991 21.375C8.99991 22.8333 10.3499 24 11.9999 24C13.6499 24 14.9999 22.8333 14.9999 21.375C14.9999 21.1667 14.7999 21 14.5999 21Z" fill="#0093F5"/>
</svg>
