<svg width="56" height="56" viewBox="0 0 56 56" fill="none" xmlns="http://www.w3.org/2000/svg">
<path d="M51.6125 43.1881C48.7605 43.1881 46.5285 40.7477 46.5285 37.6651L46.5286 26.0252C46.5286 15.75 41.9406 8.99083 35.1205 5.90826C34.2525 2.44037 31.4004 0 28.0524 0C24.7043 0 21.8523 2.44037 21.1083 5.90826C14.1642 8.99083 9.5761 15.75 9.5761 26.0252L9.57591 37.6651C9.57591 40.7477 7.21987 43.1881 4.49183 43.1881C3.87182 43.1881 3.49982 43.7018 3.49982 44.344C3.49982 44.9862 3.99582 45.5 4.49183 45.5H51.4885C52.1085 45.5 52.4805 44.9862 52.4805 44.344C52.6046 43.7018 52.1085 43.1881 51.6125 43.1881Z" fill="#0093F5"/>
<path d="M34.0665 49H22.0498C21.4665 49 20.9998 49.3889 20.9998 49.875C20.9998 53.2778 24.1498 56 27.9998 56C31.8498 56 34.9998 53.2778 34.9998 49.875C34.9998 49.3889 34.5332 49 34.0665 49Z" fill="#0093F5"/>
</svg>
