<svg width="24" height="25" viewBox="0 0 24 25" fill="none" xmlns="http://www.w3.org/2000/svg">
<g filter="url(#filter0_d)">
<path d="M22.1196 18.5092C20.8973 18.5092 19.9407 17.4633 19.9407 16.1422L19.9408 11.1537C19.9408 6.75 17.9745 3.85321 15.0516 2.53211C14.6796 1.04587 13.4573 0 12.0224 0C10.5875 0 9.36522 1.04587 9.04636 2.53211C6.07031 3.85321 4.104 6.75 4.104 11.1537L4.10392 16.1422C4.10392 17.4633 3.09419 18.5092 1.92503 18.5092C1.65931 18.5092 1.49988 18.7294 1.49988 19.0046C1.49988 19.2798 1.71245 19.5 1.92503 19.5H22.0665C22.3322 19.5 22.4916 19.2798 22.4916 19.0046C22.5448 18.7294 22.3322 18.5092 22.1196 18.5092Z" fill="white"/>
<path d="M14.5999 21H9.44988C9.19988 21 8.99988 21.1667 8.99988 21.375C8.99988 22.8333 10.3499 24 11.9999 24C13.6499 24 14.9999 22.8333 14.9999 21.375C14.9999 21.1667 14.7999 21 14.5999 21Z" fill="white"/>
</g>
<defs>
<filter id="filter0_d" x="0" y="0" width="24" height="25" filterUnits="userSpaceOnUse" color-interpolation-filters="sRGB">
<feFlood flood-opacity="0" result="BackgroundImageFix"/>
<feColorMatrix in="SourceAlpha" type="matrix" values="0 0 0 0 0 0 0 0 0 0 0 0 0 0 0 0 0 0 127 0"/>
<feOffset dy="1"/>
<feColorMatrix type="matrix" values="0 0 0 0 0 0 0 0 0 0 0 0 0 0 0 0 0 0 0.15 0"/>
<feBlend mode="normal" in2="BackgroundImageFix" result="effect1_dropShadow"/>
<feBlend mode="normal" in="SourceGraphic" in2="effect1_dropShadow" result="shape"/>
</filter>
</defs>
</svg>
