<svg width="16" height="16" viewBox="0 0 16 16" fill="none" xmlns="http://www.w3.org/2000/svg">
<path d="M8.00004 0.00531006C3.58471 0.00531006 0.00537109 3.58464 0.00537109 7.99998C0.00537109 12.4153 3.58471 15.9946 8.00004 15.9946C10.984 15.9946 12.0914 14.8326 12.4947 13.8573C12.8361 13.0833 12.7916 12.1934 12.3747 11.4573C12.8153 10.968 12.8104 10.2235 12.3634 9.73998L11.4094 8.78664C10.889 8.30616 10.0784 8.33594 9.5947 8.85331L9.45404 8.99331C8.5622 8.2541 7.7407 7.43394 7.00004 6.54331L7.1407 6.40331C7.65932 5.92053 7.69088 5.10962 7.21137 4.58798L6.25804 3.63331C5.73672 3.15331 4.92541 3.1852 4.44337 3.70464L3.86137 4.28598C3.25583 4.86215 3.12357 5.77803 3.54137 6.50198C5.06053 8.90315 7.0942 10.9368 9.49537 12.456C9.75758 12.6197 10.0609 12.7055 10.37 12.7033C10.7176 12.6996 11.0574 12.5994 11.3514 12.414C11.4275 12.7999 11.3615 13.2003 11.1654 13.5413C10.726 14.2746 9.63204 14.6613 8.00004 14.6613C4.93821 14.6607 2.27129 12.5725 1.53622 9.60021C0.801145 6.62793 2.18733 3.53739 4.89592 2.10968C7.6045 0.681962 10.9376 1.28494 12.9743 3.57113C15.011 5.85731 15.2265 9.23761 13.4967 11.764C13.3618 11.9604 13.3419 12.2138 13.4445 12.4288C13.5471 12.6439 13.7566 12.7878 13.9941 12.8065C14.2317 12.8252 14.4611 12.7157 14.596 12.5193C16.2722 10.0717 16.4556 6.89724 15.0723 4.27292C13.6891 1.64859 10.9666 0.00577335 8.00004 0.00531006Z" fill="#0093F5"/>
</svg>
