<svg width="13" height="13" viewBox="0 0 13 13" fill="none" xmlns="http://www.w3.org/2000/svg">
<path d="M11.375 1.34062C11.375 0.609375 10.7656 0 10.0344 0H1.34062C0.609375 0 0 0.609375 0 1.34062V2.15313H11.375V1.34062ZM1.90937 1.625C1.74687 1.625 1.625 1.50312 1.625 1.34062C1.625 1.21875 1.74687 1.09688 1.90937 1.09688C2.03125 1.09688 2.15313 1.21875 2.15313 1.34062C2.15313 1.50312 2.03125 1.625 1.90937 1.625ZM2.96563 1.625C2.84375 1.625 2.72187 1.50312 2.72187 1.34062C2.72187 1.21875 2.84375 1.09688 2.96563 1.09688C3.12813 1.09688 3.25 1.21875 3.25 1.34062C3.25 1.50312 3.12813 1.625 2.96563 1.625ZM4.0625 1.625C3.9 1.625 3.77813 1.50312 3.77813 1.34062C3.77813 1.21875 3.9 1.09688 4.0625 1.09688C4.225 1.09688 4.34687 1.21875 4.34687 1.38125C4.34687 1.50313 4.225 1.625 4.0625 1.625ZM10.0344 7.02812C8.40938 7.02812 7.06875 8.32812 7.06875 9.95312C7.02812 11.6187 8.40938 12.9594 10.0344 12.9594C11.6594 12.9594 13 11.6594 13 10.0344C13 8.40938 11.7 7.06875 10.0344 7.02812ZM7.84062 9.99375C7.84062 9.425 8.08437 8.85625 8.49062 8.45C8.89687 8.04375 9.46563 7.84062 10.0344 7.84062C10.5625 7.84062 11.05 8.04375 11.4563 8.36875V8.125C11.4563 7.9625 11.5781 7.84062 11.7406 7.84062C11.9031 7.84062 12.025 7.9625 12.025 8.125V9.46562H10.6844C10.5219 9.46562 10.4 9.34375 10.4 9.18125C10.4 9.01875 10.5219 8.89687 10.6844 8.89687H11.2531C10.9688 8.57187 10.5219 8.36875 10.075 8.36875C9.66875 8.36875 9.2625 8.53125 8.9375 8.81563C8.6125 9.1 8.45 9.50625 8.45 9.95312L7.84062 9.99375ZM11.5375 11.5781C11.1312 11.9844 10.6031 12.1875 10.0344 12.1875C9.54688 12.1875 9.01875 11.9844 8.6125 11.6594V11.7C8.6125 11.8625 8.49063 11.9844 8.32812 11.9844C8.16562 11.9844 8.04375 11.8625 8.04375 11.7V10.6031H9.14062C9.30313 10.6031 9.425 10.725 9.425 10.8875C9.425 11.05 9.30313 11.1719 9.14062 11.1719H8.81563C9.14062 11.4969 9.5875 11.7 9.99375 11.7C10.4 11.7 10.8062 11.5375 11.1312 11.2531C11.4563 10.9688 11.6188 10.5625 11.6188 10.1156H12.1469C12.1875 10.6438 11.9437 11.1719 11.5375 11.5781ZM10.0344 6.5C10.5219 6.5 10.8469 6.5 11.375 6.6625V2.68125H0V7.84062C0 8.57187 0.609375 9.18125 1.34062 9.18125H6.58125C6.94688 7.6375 8.36875 6.5 10.0344 6.5Z" fill="#6F6F6F"/>
</svg>
