<svg width="20" height="20" viewBox="0 0 20 20" fill="none" xmlns="http://www.w3.org/2000/svg">
<path d="M3.25669 9.34622C2.89562 8.92832 2.26413 8.88224 1.84622 9.24331C1.42832 9.60438 1.38224 10.2359 1.74331 10.6538L3.25669 9.34622ZM7.9 16.25L7.14331 16.9038C7.33986 17.1313 7.62831 17.2582 7.92882 17.2496C8.22932 17.2409 8.50998 17.0975 8.6931 16.8591L7.9 16.25ZM18.2931 4.3591C18.6295 3.92108 18.5471 3.2933 18.1091 2.9569C17.6711 2.62051 17.0433 2.70289 16.7069 3.1409L18.2931 4.3591ZM1.74331 10.6538L7.14331 16.9038L8.65669 15.5962L3.25669 9.34622L1.74331 10.6538ZM8.6931 16.8591L18.2931 4.3591L16.7069 3.1409L7.1069 15.6409L8.6931 16.8591Z" fill="#0093F5"/>
</svg>
