<svg width="8" height="8" viewBox="0 0 8 8" fill="none" xmlns="http://www.w3.org/2000/svg">
<path d="M1.75669 3.34622C1.39562 2.92832 0.764129 2.88224 0.346222 3.24331C-0.0716841 3.60438 -0.117758 4.23587 0.243313 4.65378L1.75669 3.34622ZM3.16 6.5L2.40331 7.15378C2.59986 7.38126 2.88831 7.50825 3.18882 7.49958C3.48932 7.49092 3.76998 7.34752 3.9531 7.1091L3.16 6.5ZM7.7931 2.1091C8.12949 1.67108 8.04711 1.0433 7.6091 0.706905C7.17108 0.370509 6.5433 0.452888 6.20691 0.890903L7.7931 2.1091ZM0.243313 4.65378L2.40331 7.15378L3.91669 5.84622L1.75669 3.34622L0.243313 4.65378ZM3.9531 7.1091L7.7931 2.1091L6.20691 0.890903L2.3669 5.8909L3.9531 7.1091Z" fill="#0093F5"/>
</svg>
