<svg width="24" height="24" viewBox="0 0 24 24" fill="none" xmlns="http://www.w3.org/2000/svg">
<path d="M20.7944 9.27242C20.7049 9.10657 20.5265 9.00245 20.3319 9.00247H12.6498L14.5912 0.609827C14.6457 0.377595 14.522 0.140686 14.2957 0.043554C14.0693 -0.0535785 13.8029 0.0160112 13.6591 0.209892L3.24407 14.2076C3.12863 14.3601 3.11231 14.5619 3.20187 14.7296C3.29143 14.8974 3.47164 15.0025 3.66796 15.0015H11.3501L9.4087 23.3901C9.35421 23.6224 9.47785 23.8593 9.70424 23.9564C9.93063 24.0535 10.197 23.984 10.3408 23.7901L20.7558 9.79234C20.8692 9.63968 20.8841 9.43896 20.7944 9.27242Z" fill="#6F6F6F"/>
</svg>
