<svg width="20" height="24" viewBox="0 0 20 24" fill="none" xmlns="http://www.w3.org/2000/svg">
<path d="M2.93605 13.6812C2.31813 11.0803 3.18397 8.35051 5.18805 6.58122C5.70499 6.12366 5.75312 5.33366 5.29555 4.81672C4.83798 4.29978 4.04799 4.25166 3.53105 4.70922C0.835458 7.08824 -0.329838 10.7591 0.500048 14.2572C1.39022 17.8027 4.09809 20.6077 7.61005 21.6222C7.72812 21.6563 7.80371 21.7713 7.78805 21.8932L7.65805 22.9262C7.63402 23.1132 7.71912 23.2973 7.87705 23.4002C8.03459 23.5058 8.2383 23.5132 8.40305 23.4192L12.7451 20.9432C12.8819 20.8649 12.9738 20.7267 12.993 20.5702C12.9945 20.5496 12.9945 20.5289 12.993 20.5082C12.993 20.3729 12.9382 20.2434 12.8411 20.1492L9.24805 16.6722C9.11152 16.5402 8.91199 16.497 8.73304 16.5606C8.5541 16.6242 8.42663 16.7837 8.40405 16.9722L8.17205 18.8502C8.16151 18.9249 8.11785 18.9908 8.05322 19.0296C7.98859 19.0684 7.9099 19.076 7.83905 19.0502C5.40946 18.1935 3.5693 16.1784 2.93605 13.6812Z" fill="white"/>
<path d="M12.1 0.594368C11.9417 0.490047 11.738 0.484239 11.574 0.579368L7.24502 3.07937C7.1088 3.15875 7.01799 3.29773 7.00002 3.45437C6.97947 3.61085 7.0357 3.76762 7.15102 3.87537L10.765 7.33137C10.9017 7.46217 11.1004 7.50467 11.2786 7.44118C11.4568 7.3777 11.5839 7.2191 11.607 7.03137L11.828 5.18337C11.837 5.10768 11.8801 5.04025 11.945 5.00037C12.0099 4.96061 12.0892 4.95216 12.161 4.97737C14.5907 5.83311 16.4303 7.84882 17.061 10.3464C17.6778 12.9475 16.8117 15.6768 14.808 17.4464C14.4616 17.7389 14.3008 18.1961 14.3878 18.6411C14.4748 19.0861 14.7959 19.4491 15.2269 19.5897C15.658 19.7303 16.1314 19.6265 16.464 19.3184C19.159 16.9386 20.3239 13.2676 19.494 9.76937C18.6048 6.219 15.8917 3.41108 12.374 2.40037C12.2565 2.36607 12.1808 2.25198 12.195 2.13037L12.322 1.07237C12.3234 1.05239 12.3234 1.03234 12.322 1.01237C12.3228 0.844616 12.2395 0.687637 12.1 0.594368Z" fill="white"/>
</svg>
