<svg width="14" height="14" viewBox="0 0 14 14" fill="none" xmlns="http://www.w3.org/2000/svg">
<path fill-rule="evenodd" clip-rule="evenodd" d="M6.50145 2.99173C8.88478 2.95814 11.2611 4.62431 12.6938 6.20056C13.1008 6.65459 13.1015 7.342 12.6954 7.79685C11.2779 9.35685 8.9357 11.0084 6.58108 11.0084H6.41424C4.06774 11.0084 1.72503 9.35685 0.309118 7.79739C-0.0975056 7.34277 -0.0975056 6.65518 0.309118 6.20056C1.74183 4.62485 4.11812 2.9576 6.50145 2.99173ZM6.50145 4.50839C5.12534 4.50839 4.00978 5.62395 4.00978 7.00006C4.00978 8.37616 5.12534 9.49172 6.50145 9.49172C7.87756 9.49172 8.99312 8.37616 8.99312 7.00006C8.99312 5.62395 7.87756 4.50839 6.50145 4.50839Z" fill="#6F6F6F"/>
<path d="M6.50155 8.08317C7.09985 8.08317 7.58488 7.59815 7.58488 6.99984C7.58488 6.40153 7.09985 5.9165 6.50155 5.9165C5.90324 5.9165 5.41821 6.40153 5.41821 6.99984C5.41821 7.59815 5.90324 8.08317 6.50155 8.08317Z" fill="#6F6F6F"/>
</svg>
