<svg width="30" height="30" fill="none" xmlns="http://www.w3.org/2000/svg"><path d="M13.147 15.735H.617a.603.603 0 00-.617.618v12.265c0 .353.265.617.618.617h12.485a.603.603 0 00.618-.617V16.353c.044-.353-.265-.618-.574-.618zm-6.265 3.662H3.75v3.088a.603.603 0 01-.618.618.603.603 0 01-.617-.618v-3.662c0-.352.264-.617.617-.617h3.75c.353 0 .618.265.618.617 0 .31-.265.574-.618.574zm22.5-3.662h-12.53a.603.603 0 00-.617.618v12.265c0 .353.265.617.618.617h12.485a.603.603 0 00.618-.617V16.353c.044-.353-.22-.618-.574-.618zm-6.264 3.662h-3.133v3.088a.603.603 0 01-.617.618.603.603 0 01-.618-.618v-3.662c0-.352.265-.617.618-.617h3.75c.353 0 .617.265.617.617 0 .31-.264.574-.617.574zM9.353 14.5h12.485a.603.603 0 00.618-.618V1.618c.044-.353-.22-.618-.574-.618H9.352a.603.603 0 00-.617.618v12.264c0 .353.31.618.618.618zM11.25 4.088c0-.353.265-.617.618-.617h3.75c.353 0 .617.264.617.617a.603.603 0 01-.617.618h-3.133v3.088a.603.603 0 01-.617.618.603.603 0 01-.618-.618V4.088z" fill="#fff"/></svg>