<svg width="30" height="30" fill="none" xmlns="http://www.w3.org/2000/svg"><path d="M15 0C6.732 0 0 6.732 0 15s6.732 15 15 15 15-6.732 15-15S23.268 0 15 0zm0 .695c7.902 0 14.305 6.44 14.305 14.305 0 7.866-6.403 14.305-14.305 14.305S.695 22.902.695 15 7.098.695 15 .695zm0 1.427c-4.5 0-8.451 2.305-10.756 5.78.293 0 .585.037.841.037 1.354 0 3.44-.183 3.44-.183.695-.036.768.988.073 1.061 0 0-.696.073-1.464.146l4.683 13.94 2.817-8.452-2.012-5.488c-.695-.036-1.354-.146-1.354-.146-.695-.037-.622-1.097.073-1.06 0 0 2.122.182 3.366.182 1.354 0 3.44-.183 3.44-.183.695-.036.768.988.073 1.061 0 0-.696.073-1.464.146l4.646 13.83 1.28-4.28c.55-1.794.989-3.037.989-4.172 0-1.573-.586-2.707-1.061-3.548-.659-1.061-1.28-1.976-1.28-3.037 0-1.17.877-2.268 2.158-2.268h.183A12.75 12.75 0 0015 2.122zm11.305 6.695c.037.403.11.842.11 1.317 0 1.317-.256 2.78-.988 4.61l-3.951 11.378C25.28 23.89 27.878 19.756 27.878 15c0-2.232-.585-4.354-1.573-6.183zm-23.049.951A13.13 13.13 0 002.16 15c0 5.085 2.963 9.476 7.243 11.561L3.256 9.768zm11.963 6.366L11.378 27.33c1.17.33 2.378.512 3.622.512 1.5 0 2.927-.256 4.28-.731-.036-.073-.073-.11-.11-.183l-3.95-10.793z" fill="#fff"/></svg>