<svg width="30" height="30" fill="none" xmlns="http://www.w3.org/2000/svg"><path d="M15 30c5.5 0 10-4.5 10-10a9.917 9.917 0 00-2.5-6.583V6.75C21.792 2.833 18.625 0 15 0S8.208 2.833 7.5 6.75v6.625C5.958 15.167 5 17.458 5 20c0 5.5 4.5 10 10 10zm.625-8.917v3.292A.64.64 0 0115 25a.64.64 0 01-.625-.625v-3.292A1.243 1.243 0 0113.75 20c0-.708.542-1.25 1.25-1.25s1.25.542 1.25 1.25c0 .458-.25.875-.625 1.083zM15 1.25c3 0 5.625 2.375 6.25 5.667v5.291A9.926 9.926 0 0015 10a9.926 9.926 0 00-6.25 2.208V6.917C9.375 3.625 12 1.25 15 1.25z" fill="#fff"/></svg>