<svg width="30" height="30" fill="none" xmlns="http://www.w3.org/2000/svg"><g clip-path="url(#clip0)"><path d="M4.36 17.219H.61a.62.62 0 00-.61.61v9.984a.62.62 0 00.61.609h3.75a.62.62 0 00.609-.61v-9.984c.047-.328-.235-.61-.61-.61zm25.452 5.156c-1.453-1.453-2.718-1.875-4.406-1.406l-3.75 1.265c.047.188.047.375.047.61 0 .797-.281 1.547-.75 2.11-.562.655-1.312.984-2.25.984h-6.187a.62.62 0 01-.61-.61.62.62 0 01.61-.61h6.234c.563 0 .984-.187 1.266-.562.28-.328.422-.797.422-1.312 0-.703-.375-1.875-1.735-1.875H15c-.188 0-.328-.047-.422-.188-.562-.562-2.297-2.297-5.203-2.297H6.891a.62.62 0 00-.61.61v6.89c0 .282.188.516.422.61 1.969.656 4.125 1.219 5.344 1.64 2.39.891 3.75 1.36 4.969 1.36 1.453 0 2.672-.656 5.203-2.156 1.687-.985 4.031-2.297 7.453-4.032.187-.093.328-.28.328-.468.047-.188-.047-.422-.188-.563zM21.235 9.72c2.391 0 4.36-1.969 4.36-4.36 0-2.39-1.969-4.359-4.36-4.359-2.39 0-4.359 1.922-4.359 4.313 0 2.437 1.969 4.406 4.36 4.406zm-.609-5.625a.62.62 0 01.61-.61.62.62 0 01.609.61v2.484a.62.62 0 01-.61.61.62.62 0 01-.609-.61V4.094zM15.61 18.439c2.391 0 4.36-1.97 4.36-4.36 0-2.39-1.969-4.36-4.36-4.36-2.39 0-4.359 1.97-4.359 4.36 0 2.39 1.969 4.36 4.36 4.36zM15 12.813a.62.62 0 01.61-.61.62.62 0 01.609.61v2.484a.62.62 0 01-.61.61.62.62 0 01-.609-.61v-2.484z" fill="#fff"/></g><defs><clipPath id="clip0"><path fill="#fff" d="M0 0h30v30H0z"/></clipPath></defs></svg>