<svg width="51" height="12" fill="none" xmlns="http://www.w3.org/2000/svg"><path d="M24.086.842l-3.18 7.261-3.33-7.261h-4.281v10.04L8.888.842h-3.78L.5 11.508l2.804.011.877-2.29h5.458l1.002 2.29h5.258V3.17l3.705 8.338s2.254.025 2.429 0c.175-.025 3.655-8.263 3.655-8.263v8.263h2.53V.842h-4.132zM5.206 6.97l1.75-4.17 1.75 4.17h-3.5zM50.5.842h-3.062l-3.257 3.53-3.148-3.53H30.589v10.677h10.314l3.235-3.457 3.17 3.457h3.105L45.788 6.18 50.5.842zM39.47 9.409h-6.32V7.237h5.668c.13 0 0-2.214 0-2.214h-5.667V3.025H39.6l2.93 3.192-3.06 3.192z" fill="#128CF9"/></svg>