<svg width="43" height="27" fill="none" xmlns="http://www.w3.org/2000/svg"><g clip-path="url(#clip0)" fill-rule="evenodd" clip-rule="evenodd"><path d="M15.6 23.512h11.193V3.556H15.6v19.956z" fill="#FF5F00"/><path d="M16.31 13.534c0-4.05 1.911-7.655 4.886-9.979A12.8 12.8 0 0013.291.842C6.227.842.5 6.524.5 13.534c0 7.009 5.726 12.691 12.79 12.691a12.8 12.8 0 007.905-2.713c-2.975-2.324-4.886-5.93-4.886-9.979z" fill="#EB001B"/><path d="M41.892 13.534c0 7.009-5.727 12.691-12.79 12.691-2.985 0-5.73-1.014-7.906-2.713 2.975-2.324 4.886-5.93 4.886-9.979 0-4.048-1.91-7.654-4.886-9.978A12.798 12.798 0 0129.101.842c7.064 0 12.791 5.682 12.791 12.692z" fill="#F79E1B"/></g><defs><clipPath id="clip0"><path fill="#fff" transform="translate(.5 .842)" d="M0 0h41.82v25.42H0z"/></clipPath></defs></svg>