<svg width="51" height="18" fill="none" xmlns="http://www.w3.org/2000/svg"><path d="M22.175 16.793h-4.08l2.55-15.671h4.08l-2.55 15.67zM14.663 1.122L10.773 11.9l-.46-2.32-1.372-7.047s-.166-1.411-1.935-1.411H.576L.5 1.387s1.966.41 4.268 1.791l3.544 13.615h4.251l6.491-15.671h-4.39zm32.09 15.67H50.5l-3.266-15.67h-3.28c-1.514 0-1.883 1.167-1.883 1.167l-6.085 14.504h4.253l.85-2.328h5.187l.478 2.328zm-4.489-5.543l2.144-5.864 1.206 5.864h-3.35zm-5.96-6.359l.583-3.365S35.09.842 33.217.842c-2.024 0-6.832.885-6.832 5.188 0 4.048 5.643 4.098 5.643 6.225 0 2.126-5.062 1.745-6.732.404l-.607 3.519s1.822.885 4.605.885c2.785 0 6.985-1.442 6.985-5.365 0-4.075-5.694-4.454-5.694-6.226 0-1.771 3.974-1.544 5.72-.582z" fill="#2566AF"/><path d="M10.314 9.58L8.94 2.531s-.166-1.41-1.935-1.41H.576L.5 1.385s3.09.64 6.055 3.04C9.39 6.722 10.314 9.58 10.314 9.58z" fill="#E6A540"/></svg>